<svg xmlns="http://www.w3.org/2000/svg" style="height: 0; width: 0; position: absolute; visibility: hidden;">

    <symbol id="fill-none" viewBox="0 0 18 18">
        <path
            d="M16.5,1H1.5a.5.5,0,0,0-.5.5v15a.5.5,0,0,0,.5.5h15a.5.5,0,0,0,.5-.5V1.5A.5.5,0,0,0,16.5,1ZM15.293,2,2,15.293V2ZM2.707,16,16,2.707V16Z" />
    </symbol>

    <symbol id="fill-solid" viewBox="0 0 18 18">
        <rect x="1" y="1" width="16" height="16" rx="0.5" />
    </symbol>

    <symbol id="fill-linear-gradient" viewBox="0 0 18 18">
        <rect x="2" y="14" width="14" height="2" fill-opacity="0" />
        <rect x="2" y="12" width="14" height="2" opacity="0.124" style="isolation: isolate" />
        <rect x="2" y="10" width="14" height="2" opacity="0.242" style="isolation: isolate" />
        <rect x="2" y="8" width="14" height="2" opacity="0.319" style="isolation: isolate" />
        <rect x="2" y="6" width="14" height="2" opacity="0.476" style="isolation: isolate" />
        <rect x="2" y="4" width="14" height="2" opacity="0.597" style="isolation: isolate" />
        <rect x="2" y="2" width="14" height="2" opacity="0.725" style="isolation: isolate" />
        <path
            d="M16.5,1H1.5a.5.5,0,0,0-.5.5v15a.5.5,0,0,0,.5.5h15a.5.5,0,0,0,.5-.5V1.5A.5.5,0,0,0,16.5,1ZM16,16H2V2H16Z" />
    </symbol>

    <symbol id="fill-radial-gradient" viewBox="0 0 18 18">
        <path
            d="M16.5,1H1.5a.5.5,0,0,0-.5.5v15a.5.5,0,0,0,.5.5h15a.5.5,0,0,0,.5-.5V1.5A.5.5,0,0,0,16.5,1ZM16,16H2V2H16Z" />
        <rect x="1.51" y="1.51" width="14.98" height="14.98" fill-opacity="0" />
        <path d="M9,2.5H9A6.5,6.5,0,0,1,15.5,9h0A6.5,6.5,0,0,1,9,15.5H9A6.5,6.5,0,0,1,2.5,9h0A6.5,6.5,0,0,1,9,2.5Z"
            opacity="0.117" style="isolation: isolate" />
        <path
            d="M9,3.583H9A5.417,5.417,0,0,1,14.416,9h0A5.416,5.416,0,0,1,9,14.416H9A5.416,5.416,0,0,1,3.583,9h0A5.416,5.416,0,0,1,9,3.583Z"
            opacity="0.242" style="isolation: isolate" />
        <rect x="4.667" y="4.667" width="8.667" height="8.667" rx="4.333" opacity="0.321" style="isolation: isolate" />
        <path
            d="M9,5.75H9A3.25,3.25,0,0,1,12.25,9h0A3.25,3.25,0,0,1,9,12.25H9A3.25,3.25,0,0,1,5.75,9h0A3.25,3.25,0,0,1,9,5.75Z"
            opacity="0.477" style="isolation: isolate" />
        <path
            d="M9,6.833H9A2.167,2.167,0,0,1,11.166,9h0A2.167,2.167,0,0,1,9,11.166H9A2.166,2.166,0,0,1,6.833,9h0A2.167,2.167,0,0,1,9,6.833Z"
            opacity="0.6" style="isolation: isolate" />
        <rect x="7.917" y="7.917" width="2.167" height="2.167" rx="1.083" />
    </symbol>

    <symbol id="fill-radial-focal-gradient" viewBox="0 0 18 18">
        <path
            d="M16.5,1H1.5a.5.5,0,0,0-.5.5v15a.5.5,0,0,0,.5.5h15a.5.5,0,0,0,.5-.5V1.5A.5.5,0,0,0,16.5,1ZM16,16H2V2H16Z" />
        <path
            d="M17,3.74V14.26a10.03,10.03,0,0,1-1.43,1.81,9.373,9.373,0,0,1-1.08.93H2.75a2.452,2.452,0,0,1-.27-.02,10.206,10.206,0,0,1-1.05-.91c-.13-.13-.25-.26-.38-.4v-.01a1.718,1.718,0,0,1-.04-.32A.3.3,0,0,1,1,15.25V2.75a.3.3,0,0,1,.01-.09c.01-.11.02-.21.04-.32V2.33c.13-.14.25-.27.38-.4a10.206,10.206,0,0,1,1.05-.91A2.452,2.452,0,0,1,2.75,1H14.49A9.794,9.794,0,0,1,17,3.74Z"
            opacity="0.04" style="isolation: isolate" />
        <path
            d="M17,4.89v8.22a8.137,8.137,0,0,1-1,1.53A8.139,8.139,0,0,1,14.64,16a8.187,8.187,0,0,1-1.53,1H4.89a8.252,8.252,0,0,1-1.53-1A8.215,8.215,0,0,1,2,14.64a8.237,8.237,0,0,1-1-1.53V4.89A8.237,8.237,0,0,1,2,3.36,8.215,8.215,0,0,1,3.36,2,8.252,8.252,0,0,1,4.89,1h8.22a8.187,8.187,0,0,1,1.53,1A7.92,7.92,0,0,1,16,3.36,8.137,8.137,0,0,1,17,4.89Z"
            opacity="0.06" style="isolation: isolate" />
        <path
            d="M17,6.22v5.56a7.839,7.839,0,0,1-1,1.88,7.223,7.223,0,0,1-.84,1A7.671,7.671,0,0,1,13.36,16a7.952,7.952,0,0,1-7.72,0,7.692,7.692,0,0,1-1.8-1.34A8.093,8.093,0,0,1,2,11.78,7.986,7.986,0,0,1,2,6.22,8.093,8.093,0,0,1,3.84,3.34,7.692,7.692,0,0,1,5.64,2,8,8,0,0,1,17,6.22Z"
            opacity="0.08" style="isolation: isolate" />
        <path d="M10,3h0a6,6,0,0,1,6,6h0a6,6,0,0,1-6,6h0A6,6,0,0,1,4,9H4A6,6,0,0,1,10,3Z" opacity="0.1"
            style="isolation: isolate" />
        <path d="M10.9,4h0a5,5,0,0,1,5,5h0a5,5,0,0,1-5,5h0a5,5,0,0,1-5-5h0A5,5,0,0,1,10.9,4Z" opacity="0.15"
            style="isolation: isolate" />
        <path
            d="M11.686,5.25h0A3.75,3.75,0,0,1,15.436,9h0a3.75,3.75,0,0,1-3.75,3.75h0A3.75,3.75,0,0,1,7.936,9h0A3.75,3.75,0,0,1,11.686,5.25Z"
            opacity="0.2" style="isolation: isolate" />
        <path
            d="M12.766,6.33h0A2.669,2.669,0,0,1,15.436,9h0a2.669,2.669,0,0,1-2.67,2.67h0A2.67,2.67,0,0,1,10.1,9h0A2.67,2.67,0,0,1,12.766,6.33Z"
            opacity="0.4" style="isolation: isolate" />
        <path
            d="M13.723,7.4h0a1.6,1.6,0,0,1,1.6,1.6h0a1.6,1.6,0,0,1-1.6,1.6h0a1.6,1.6,0,0,1-1.6-1.6h0a1.6,1.6,0,0,1,1.6-1.6Z"
            opacity="0.5" style="isolation: isolate" />
        <path d="M14.523,8.2h0a.8.8,0,0,1,.8.8h0a.8.8,0,0,1-.8.8h0a.8.8,0,0,1-.8-.8h0a.8.8,0,0,1,.8-.8Z" />
    </symbol>

    <symbol id="fill-conical-gradient" viewBox="0 0 18 18">
        <path d="M9.01,9H9l.01.01Z" />
        <path d="M9.01,9.014,9.028,9H9.01v.014Z" />
        <path d="M9.01,1V9H9L2.22,2.22l-.71-.71A1.793,1.793,0,0,1,2.75,1Z" fill-opacity="0" />
        <path d="M16.5,1.53l-.71.71L9.03,9H9.01V1h6.24A1.713,1.713,0,0,1,16.5,1.53Z" />
        <path d="M9,9H1.01V2.66a1.761,1.761,0,0,1,.5-1.15l.71.71Z" opacity="0.122" style="isolation: isolate" />
        <path d="M9.01,9.01v.01L2.24,15.79l-.71.71a1.674,1.674,0,0,1-.52-1.16V9H9Z" opacity="0.238"
            style="isolation: isolate" />
        <path d="M17,2.75V9H9.03l6.76-6.76.71-.71A1.712,1.712,0,0,1,17,2.75Z" opacity="0.718"
            style="isolation: isolate" />
        <path d="M17,9v6.25a1.728,1.728,0,0,1-.51,1.24l-.71-.71L9.01,9.02V9.01L9.03,9Z" opacity="0.6"
            style="isolation: isolate" />
        <path d="M9.01,9.02V17H2.75a1.712,1.712,0,0,1-1.22-.5l.71-.71Z" opacity="0.358" style="isolation: isolate" />
        <path d="M16.49,16.49a1.79,1.79,0,0,1-1.24.51H9.01V9.02l6.77,6.76Z" opacity="0.477"
            style="isolation: isolate" />
        <path
            d="M16.5,1H1.5a.5.5,0,0,0-.5.5v15a.5.5,0,0,0,.5.5h15a.5.5,0,0,0,.5-.5V1.5A.5.5,0,0,0,16.5,1ZM16,16H2V2H16Z" />
    </symbol>

    <symbol id="fill-pattern" viewBox="0 0 18 18">
        <path
            d="M16.5,1H1.5a.5.5,0,0,0-.5.5v15a.5.5,0,0,0,.5.5h15a.5.5,0,0,0,.5-.5V1.5A.5.5,0,0,0,16.5,1ZM16,16H2V2H16Z" />
        <rect x="11.957" y="2.814" width="3.224" height="3.224" transform="translate(0.845 10.891) rotate(-44.999)" />
        <rect x="11.957" y="7.392" width="3.224" height="3.224" transform="translate(-2.392 12.232) rotate(-45)" />
        <rect x="11.957" y="11.962" width="3.224" height="3.224" transform="translate(-5.624 13.57) rotate(-45)" />
        <rect x="7.397" y="2.814" width="3.224" height="3.224" transform="translate(-0.491 7.666) rotate(-44.999)" />
        <rect x="7.397" y="7.392" width="3.224" height="3.224" transform="translate(-3.728 9.007) rotate(-45)" />
        <rect x="7.397" y="11.962" width="3.224" height="3.224" transform="translate(-6.959 10.346) rotate(-45)" />
        <rect x="2.819" y="2.814" width="3.224" height="3.224" transform="translate(-1.832 4.429) rotate(-44.999)" />
        <rect x="2.819" y="7.392" width="3.224" height="3.224" transform="translate(-5.069 5.77) rotate(-45)" />
        <rect x="2.819" y="11.962" width="3.224" height="3.224" transform="translate(-8.3 7.109) rotate(-45)" />
    </symbol>

    <symbol id="fill-evenodd" viewBox="0 0 18 18">
        <path
            d="M15.562,2H2.437A.438.438,0,0,0,2,2.438V15.562A.438.438,0,0,0,2.437,16H15.562A.438.438,0,0,0,16,15.562V2.438A.438.438,0,0,0,15.562,2ZM9,13a4,4,0,1,1,4-4A4,4,0,0,1,9,13Z" />
    </symbol>

    <symbol id="fill-nonzero" viewBox="0 0 18 18">
        <circle cx="9" cy="9" r="3" />
        <path
            d="M15.562,2H2.437A.438.438,0,0,0,2,2.438V15.562A.438.438,0,0,0,2.437,16H15.562A.438.438,0,0,0,16,15.562V2.438A.438.438,0,0,0,15.562,2ZM9,13a4,4,0,1,1,4-4A4,4,0,0,1,9,13Z" />
    </symbol>

    <symbol id="swatch" viewBox="0 0 18 18">
        <path d="M7,2V7H2V2H7m.5-1h-6a.5.5,0,0,0-.5.5v6a.5.5,0,0,0,.5.5h6A.5.5,0,0,0,8,7.5v-6A.5.5,0,0,0,7.5,1Z" />
        <rect x="1" y="10" width="7" height="7" rx="0.5" />
        <rect x="10" y="1" width="7" height="7" rx="0.5" />
        <path d="M16,11v5H11V11h5m.5-1h-6a.5.5,0,0,0-.5.5v6a.5.5,0,0,0,.5.5h6a.5.5,0,0,0,.5-.5v-6a.5.5,0,0,0-.5-.5Z" />
    </symbol>

    <symbol id="player-start" viewBox="0 0 18 18">
        <rect x="1" y="2" width="3" height="14" rx="0.5" />
        <path
            d="M17,2.529V15.471a.521.521,0,0,1-.784.456L5.259,9.456a.531.531,0,0,1,0-.912L16.216,2.073A.521.521,0,0,1,17,2.529Z" />
    </symbol>

    <symbol id="player-end" viewBox="0 0 18 18">
        <rect x="14" y="2" width="3" height="14" rx="0.5" transform="translate(31 18) rotate(180)" />
        <path
            d="M1,2.529V15.471a.521.521,0,0,0,.784.456L12.741,9.456a.531.531,0,0,0,0-.912L1.784,2.073A.521.521,0,0,0,1,2.529Z" />
    </symbol>

    <symbol id="player-prevkey" viewBox="0 0 18 18">
        <rect x="14" y="2" width="3" height="14" rx="0.5" />
        <path
            d="M12,2.529V15.471a.479.479,0,0,1-.719.456L1.237,9.456a.557.557,0,0,1,0-.912L11.281,2.073A.479.479,0,0,1,12,2.529Z" />
    </symbol>

    <symbol id="player-nextkey" viewBox="0 0 18 18">
        <rect x="1" y="2" width="3" height="14" rx="0.5" transform="translate(5 18) rotate(180)" />
        <path
            d="M6,2.529V15.471a.479.479,0,0,0,.719.456L16.763,9.456a.557.557,0,0,0,0-.912L6.719,2.073A.479.479,0,0,0,6,2.529Z" />
    </symbol>

    <symbol id="player-reverseplay" viewBox="0 0 18 18">
        <path
            d="M14,2.529V15.471a.521.521,0,0,1-.784.456L2.259,9.456a.531.531,0,0,1,0-.912L13.216,2.073A.521.521,0,0,1,14,2.529Z" />
    </symbol>

    <symbol id="player-play" viewBox="0 0 18 18">
        <path
            d="M4,2.529V15.471a.521.521,0,0,0,.784.456L15.741,9.456a.531.531,0,0,0,0-.912L4.784,2.073A.521.521,0,0,0,4,2.529Z" />
    </symbol>

    <symbol id="player-record" viewBox="0 0 18 18">
        <circle cx="9" cy="9" r="8" />
    </symbol>

    <symbol id="player-stop" viewBox="0 0 18 18">
        <rect x="2" y="2" width="6" height="14" rx="0.5" transform="translate(10 18) rotate(180)" />
        <rect x="10" y="2" width="6" height="14" rx="0.5" transform="translate(26 18) rotate(180)" />
    </symbol>

    <symbol id="path" viewBox="0 0 18 18">
        <path
            d="M14,11a2.992,2.992,0,0,0-2.891,2.241c-1.182-.041-1.967-.272-2.22-.665-.4-.616.236-2.025.8-3.268.752-1.67,1.529-3.4.687-4.7C9.812,3.745,8.7,3.316,6.9,3.261a3,3,0,1,0-.006,1.5c1.182.041,1.967.272,2.22.665.4.616-.236,2.025-.795,3.268-.752,1.67-1.528,3.4-.687,4.7.559.864,1.674,1.293,3.474,1.348A3,3,0,1,0,14,11ZM4,5.5A1.5,1.5,0,1,1,5.5,4,1.5,1.5,0,0,1,4,5.5Zm10,10A1.5,1.5,0,1,1,15.5,14,1.5,1.5,0,0,1,14,15.5Z" />
    </symbol>

    <symbol id="radius-same" viewBox="0 0 18 18">
        <path
            d="M14,2a2,2,0,0,1,2,2V14a2,2,0,0,1-2,2H4a2,2,0,0,1-2-2V4A2,2,0,0,1,4,2H14m0-1H4A3,3,0,0,0,1,4V14a3,3,0,0,0,3,3H14a3,3,0,0,0,3-3V4a3,3,0,0,0-3-3Z" />
    </symbol>

    <symbol id="radius-separate" viewBox="0 0 18 18">
        <path d="M2,7V4A2,2,0,0,1,4,2H7V1H4A3,3,0,0,0,1,4V7Z" />
        <path d="M11,2h3a2,2,0,0,1,2,2V7h1V4a3,3,0,0,0-3-3H11Z" />
        <path d="M7,16H4a2,2,0,0,1-2-2V11H1v3a3,3,0,0,0,3,3H7Z" />
        <path d="M16,11v3a2,2,0,0,1-2,2H11v1h3a3,3,0,0,0,3-3V11Z" />
    </symbol>

    <symbol id="maintain-checked" viewBox="0 0 18 18">
        <path
            d="M14,9a3.419,3.419,0,0,0-3.333-3.5H7.333A3.419,3.419,0,0,0,4,9a3.419,3.419,0,0,0,3.333,3.5h3.334A3.419,3.419,0,0,0,14,9Z" />
        <path d="M7,14.5a5.5,5.5,0,0,1,0-11V2A7,7,0,0,0,7,16Z" />
        <path d="M11,2V3.5a5.5,5.5,0,0,1,0,11V16A7,7,0,0,0,11,2Z" />
    </symbol>

    <symbol id="maintain-unchecked" viewBox="0 0 18 18">
        <path d="M7,14.5a5.5,5.5,0,0,1,0-11V2A7,7,0,0,0,7,16Z" />
        <path d="M11,2V3.5a5.5,5.5,0,0,1,0,11V16A7,7,0,0,0,11,2Z" />
    </symbol>

    <symbol id="rotate" viewBox="0 0 18 18">
        <path
            d="M15.935,9H14.674a7.307,7.307,0,0,1,.076,1A6.522,6.522,0,0,1,8.5,16.75,6.522,6.522,0,0,1,2.25,10,6.568,6.568,0,0,1,8,3.277V5.8a.185.185,0,0,0,.086.151.306.306,0,0,0,.362-.017L11.928,3.1a.172.172,0,0,0,0-.282L8.448.068A.29.29,0,0,0,8.256,0,.234.234,0,0,0,8,.2V2.027A7.8,7.8,0,0,0,1,10a7.762,7.762,0,0,0,7.5,8A7.762,7.762,0,0,0,16,10,8.453,8.453,0,0,0,15.935,9Z" />
        <rect x="8" y="10" width="1" height="1" />
    </symbol>

    <symbol id="add-color" viewBox="0 0 18 18">
        <rect x="1" y="5" width="1" height="2" />
        <path d="M2,16V14H1v2.5a.5.5,0,0,0,.5.5H4V16Z" />
        <rect x="1" y="11" width="1" height="2" />
        <rect x="1" y="8" width="1" height="2" />
        <path d="M2,2H4V1H1.5a.5.5,0,0,0-.5.5V4H2Z" />
        <rect x="11" y="1" width="2" height="1" />
        <rect x="8" y="1" width="2" height="1" />
        <rect x="5" y="1" width="2" height="1" />
        <rect x="16" y="8" width="1" height="2" />
        <rect x="16" y="11" width="1" height="2" />
        <rect x="16" y="5" width="1" height="2" />
        <path d="M16.5,1H14V2h2V4h1V1.5A.5.5,0,0,0,16.5,1Z" />
        <rect x="8" y="16" width="2" height="1" />
        <rect x="5" y="16" width="2" height="1" />
        <rect x="11" y="16" width="2" height="1" />
        <path d="M16,16H14v1h2.5a.5.5,0,0,0,.5-.5V14H16Z" />
        <path
            d="M12.5,8H10V5.5A.5.5,0,0,0,9.5,5h-1a.5.5,0,0,0-.5.5V8H5.5a.5.5,0,0,0-.5.5v1a.5.5,0,0,0,.5.5H8v2.5a.5.5,0,0,0,.5.5h1a.5.5,0,0,0,.5-.5V10h2.5a.5.5,0,0,0,.5-.5v-1A.5.5,0,0,0,12.5,8Z" />
    </symbol>

    <symbol id="boolean-add" viewBox="0 0 18 18">
        <path
            d="M15.5,6H12V2.5a.5.5,0,0,0-.5-.5h-9a.5.5,0,0,0-.5.5v9a.5.5,0,0,0,.5.5H6v3.5a.5.5,0,0,0,.5.5h9a.5.5,0,0,0,.5-.5v-9A.5.5,0,0,0,15.5,6Z" />

    </symbol>

    <symbol id="boolean-divide" viewBox="0 0 18 18">
        <rect x="7" y="7" width="4" height="4" />
        <path d="M15.5,6H12v6H6v3.5a.5.5,0,0,0,.5.5h9a.5.5,0,0,0,.5-.5v-9A.5.5,0,0,0,15.5,6Z" />
        <path d="M12,6V2.5a.5.5,0,0,0-.5-.5h-9a.5.5,0,0,0-.5.5v9a.5.5,0,0,0,.5.5H6V6Z" />
    </symbol>

    <symbol id="boolean-intersect" viewBox="0 0 18 18">
        <path
            d="M15.5,6H12V2.5a.508.508,0,0,0-.5-.5h-9a.508.508,0,0,0-.5.5v9a.508.508,0,0,0,.5.5H6v3.5a.5.5,0,0,0,.5.5h9a.508.508,0,0,0,.5-.5v-9A.5.5,0,0,0,15.5,6ZM3,11V3h8V6H6.5a.5.5,0,0,0-.5.5V11Zm12,4H7V12h4.5a.508.508,0,0,0,.5-.5V7h3Z" />
    </symbol>

    <symbol id="boolean-overlap" viewBox="0 0 18 18">
        <path d="M6.5,6H12V2.5a.5.5,0,0,0-.5-.5h-9a.5.5,0,0,0-.5.5v9a.5.5,0,0,0,.5.5H6V6.5A.5.5,0,0,1,6.5,6Z" />
        <path d="M15.5,6H12v5.5a.5.5,0,0,1-.5.5H6v3.5a.5.5,0,0,0,.5.5h9a.5.5,0,0,0,.5-.5v-9A.5.5,0,0,0,15.5,6Z" />
    </symbol>

    <symbol id="boolean-substract" viewBox="0 0 18 18">
        <path
            d="M15.5,6H12V2.5a.5.5,0,0,0-.5-.5h-9a.5.5,0,0,0-.5.5v9a.5.5,0,0,0,.5.5H6v3.5a.5.5,0,0,0,.5.5h9a.5.5,0,0,0,.5-.5v-9A.5.5,0,0,0,15.5,6ZM15,15H7V7h8Z" />
    </symbol>

    <symbol id="bring-forward" viewBox="0 0 18 18">
        <rect y="0.987" width="9" height="7" rx="0.5" />
        <path
            d="M17.75,8.976H15.841v3.5a.5.5,0,0,1-.5.5h-2a.5.5,0,0,1-.5-.5v-3.5H10.818a.243.243,0,0,1-.187-.084.25.25,0,0,1,.021-.353l3.689-3.563,3.575,3.563A.254.254,0,0,1,18,8.727.249.249,0,0,1,17.75,8.976Z" />
        <path
            d="M8.5,16.987H.5a.5.5,0,0,1-.5-.5v-6a.5.5,0,0,1,.5-.5h8a.5.5,0,0,1,.5.5v6A.5.5,0,0,1,8.5,16.987Zm-.5-6H1v5H8Z" />
    </symbol>

    <symbol id="send-backward" viewBox="0 0 18 18">
        <rect y="10" width="9" height="7" rx="0.5" />
        <path
            d="M17.75,9.011H15.841v-3.5a.5.5,0,0,0-.5-.5h-2a.5.5,0,0,0-.5.5v3.5H10.818a.247.247,0,0,0-.187.084.25.25,0,0,0,.021.353l3.689,3.563,3.575-3.563A.253.253,0,0,0,18,9.261.25.25,0,0,0,17.75,9.011Z" />
        <path d="M8.5,1H.5a.5.5,0,0,0-.5.5v6A.5.5,0,0,0,.5,8h8A.5.5,0,0,0,9,7.5v-6A.5.5,0,0,0,8.5,1ZM8,7H1V2H8Z" />
    </symbol>

    <symbol id="bring-front" viewBox="0 0 18 18">
        <rect y="1" width="9" height="7" rx="0.5" />
        <rect y="16" width="1" height="1" />
        <rect x="2" y="16" width="1" height="1" />
        <rect y="14" width="1" height="1" />
        <rect y="12" width="1" height="1" />
        <rect y="10" width="1" height="1" />
        <rect x="2" y="10" width="1" height="1" />
        <rect x="4" y="16" width="1" height="1" />
        <rect x="4" y="10" width="1" height="1" />
        <rect x="8" y="16" width="1" height="1" />
        <rect x="6" y="16" width="1" height="1" />
        <rect x="6" y="10" width="1" height="1" />
        <rect x="8" y="14" width="1" height="1" />
        <rect x="8" y="12" width="1" height="1" />
        <rect x="8" y="10" width="1" height="1" />
        <path
            d="M17.916,8.552,14.341,4.989,10.652,8.552a.25.25,0,0,0-.021.353.247.247,0,0,0,.187.084h2.023v3.5a.5.5,0,0,0,.5.5h2a.5.5,0,0,0,.5-.5v-3.5H17.75a.25.25,0,0,0,.25-.25A.253.253,0,0,0,17.916,8.552Z" />
    </symbol>

    <symbol id="send-back" viewBox="0 0 18 18">
        <rect y="10" width="9" height="7" rx="0.5" />
        <rect y="1" width="1" height="1" />
        <rect x="2" y="1" width="1" height="1" />
        <rect y="3" width="1" height="1" />
        <rect y="5" width="1" height="1" />
        <rect y="7" width="1" height="1" />
        <rect x="2" y="7" width="1" height="1" />
        <rect x="4" y="1" width="1" height="1" />
        <rect x="4" y="7" width="1" height="1" />
        <rect x="8" y="1" width="1" height="1" />
        <rect x="6" y="1" width="1" height="1" />
        <rect x="6" y="7" width="1" height="1" />
        <rect x="8" y="3" width="1" height="1" />
        <rect x="8" y="5" width="1" height="1" />
        <rect x="8" y="7" width="1" height="1" />
        <path
            d="M17.916,9.448l-3.575,3.563L10.652,9.448a.25.25,0,0,1-.021-.353.247.247,0,0,1,.187-.084h2.023v-3.5a.5.5,0,0,1,.5-.5h2a.5.5,0,0,1,.5.5v3.5H17.75a.25.25,0,0,1,.25.25A.253.253,0,0,1,17.916,9.448Z" />
    </symbol>

    <symbol id="cap-butt" viewBox="0 0 18 18">
        <circle cx="5.5" cy="9.5" r="1.5" />
        <path
            d="M5.5,12.5a3.048,3.048,0,0,1-.5-.05V15.5a.5.5,0,0,0,.5.5h10a.5.5,0,0,0,.5-.5V10H8.45A3,3,0,0,1,5.5,12.5Z" />
        <path
            d="M5.5,2a.5.5,0,0,0-.5.5V6.55a3.048,3.048,0,0,1,.5-.05,2.99,2.99,0,0,1,2.816,2H16v-6a.5.5,0,0,0-.5-.5Z" />
    </symbol>

    <symbol id="cap-square" viewBox="0 0 18 18">
        <path
            d="M10.45,10a3.009,3.009,0,1,1-.134-1.5H16v-6a.5.5,0,0,0-.5-.5H2.5a.5.5,0,0,0-.5.5v13a.5.5,0,0,0,.5.5h13a.5.5,0,0,0,.5-.5V10Z" />
        <circle cx="7.5" cy="9.5" r="1.5" />
    </symbol>

    <symbol id="cap-round" viewBox="0 0 18 18">
        <path
            d="M11.45,10a3.009,3.009,0,1,1-.134-1.5H16v-6a.5.5,0,0,0-.5-.5H9A7,7,0,0,0,2,9H2a7,7,0,0,0,7,7h6.5a.5.5,0,0,0,.5-.5V10Z" />
        <circle cx="8.5" cy="9.5" r="1.5" />
    </symbol>

    <symbol id="stroke-center" viewBox="0 0 18 18">
        <path d="M9.5,11.316V16h6a.5.5,0,0,0,.5-.5V9H11.45A2.989,2.989,0,0,1,9.5,11.316Z" />
        <circle cx="8.5" cy="8.5" r="1.5" />
        <path d="M2,2.5v13a.5.5,0,0,0,.5.5H8V11.45A3,3,0,1,1,11.316,7.5H16v-5a.5.5,0,0,0-.5-.5H2.5A.5.5,0,0,0,2,2.5Z" />
    </symbol>

    <symbol id="stroke-inside" viewBox="0 0 18 18">
        <path d="M7.5,8.74V16h8a.5.5,0,0,0,.5-.5v-8H8.74A4.309,4.309,0,0,1,7.5,8.74Z" />
        <path
            d="M7.95,4.5A3,3,0,1,0,4.5,7.95V16H6V7.82a2.3,2.3,0,0,0,.5-.24.567.567,0,0,0,.13-.08,2.779,2.779,0,0,0,.87-.87.567.567,0,0,0,.08-.13A2.3,2.3,0,0,0,7.82,6H16V4.5ZM5,6.5A1.5,1.5,0,1,1,6.5,5,1.5,1.5,0,0,1,5,6.5Z" />
    </symbol>

    <symbol id="stroke-outside" viewBox="0 0 18 18">
        <path
            d="M2,2.5v13a.5.5,0,0,0,.5.5H10V13.45A3,3,0,1,1,13.316,9.5H16v-7a.5.5,0,0,0-.5-.5H2.5A.5.5,0,0,0,2,2.5Z" />
        <circle cx="10.5" cy="10.5" r="1.5" />
        <path d="M11.5,13.32V16H13V14.24a4.44,4.44,0,0,0,1.53-1.74H16V11H13.45A2.943,2.943,0,0,1,11.5,13.32Z" />
    </symbol>

    <symbol id="join-bevel" viewBox="0 0 18 18">
        <path d="M8,10V2H2v8.414a.249.249,0,0,0,.073.177l5.336,5.336A.249.249,0,0,0,7.586,16H16V10Z" />

    </symbol>

    <symbol id="join-miter" viewBox="0 0 18 18">
        <path
            d="M8,10V2.5A.5.5,0,0,0,7.5,2h-5a.5.5,0,0,0-.5.5v13a.5.5,0,0,0,.5.5h13a.5.5,0,0,0,.5-.5v-5a.5.5,0,0,0-.5-.5Z" />
    </symbol>

    <symbol id="join-round" viewBox="0 0 18 18">
        <path
            d="M8,10V2.5A.5.5,0,0,0,7.5,2h-5a.5.5,0,0,0-.5.5V10a6,6,0,0,0,6,6h7.5a.5.5,0,0,0,.5-.5v-5a.5.5,0,0,0-.5-.5Z" />
    </symbol>

    <symbol id="selection-tool" viewBox="0 0 18 18">
        <path d="M14.419,11.063l-10-10a.253.253,0,0,0-.356.021A.257.257,0,0,0,4,1.244v14.5a.25.25,0,0,0,.425.182L8.091,13.18l1.882,3.681a.251.251,0,0,0,.336.113h0l1.552-.774a.25.25,0,0,0,.113-.335h0l-1.831-3.58,4.121-.783a.25.25,0,0,0,.156-.435Z" />
    </symbol>

    <symbol id="direct-selection-tool" viewBox="0 0 18 18">
        <path d="M15.921,11.727,4.419,1.065A.251.251,0,0,0,4,1.245v15.5A.251.251,0,0,0,4.25,17h0a.253.253,0,0,0,.175-.07l4.534-4.321a.239.239,0,0,1,.159-.069l6.647-.378A.252.252,0,0,0,16,11.9a.244.244,0,0,0-.08-.17Zm-6.86-.189a1.234,1.234,0,0,0-.8.347L5,15V2.961l8.95,8.3Z" />
    </symbol>

    <symbol id="transform-tool" viewBox="0 0 18 18">
        <circle cx="11.5" cy="12.5" r="0.625" />
        <path
            d="M7.66,10.18l2.63-.16a.224.224,0,0,0,.21-.24.213.213,0,0,0-.07-.15L8.4,7.7,6.84,6.22.37.07A.213.213,0,0,0,.22,0,.222.222,0,0,0,0,.22V14.14a.224.224,0,0,0,.22.23.339.339,0,0,0,.15-.06l3.97-3.88a.267.267,0,0,1,.14-.07l2.43-.15Z" />
        <path
            d="M17,15.09V8.91A1.5,1.5,0,1,0,15.09,7H9.84l1.05,1h4.2a1.517,1.517,0,0,0,.91.91v6.18a1.517,1.517,0,0,0-.91.91H7.91A1.517,1.517,0,0,0,7,15.09V11.71l-1,.06v3.32A1.5,1.5,0,1,0,7.91,17h7.18A1.5,1.5,0,1,0,17,15.09ZM6.5,17.12a.62.62,0,1,1,.62-.62A.611.611,0,0,1,6.5,17.12ZM15.88,7.5a.62.62,0,1,1,.62.62A.611.611,0,0,1,15.88,7.5Zm.62,9.62a.62.62,0,1,1,.62-.62A.611.611,0,0,1,16.5,17.12Z" />
    </symbol>

    <symbol id="transform-tool-alt" viewBox="0 0 18 18">
        <path
            d="M1,1.245v15.5a.251.251,0,0,0,.425.182l4.533-4.32a.246.246,0,0,1,.159-.069l6.646-.378a.25.25,0,0,0,.156-.435L1.419,1.065a.25.25,0,0,0-.354.018A.254.254,0,0,0,1,1.245Z" />
    </symbol>

    <symbol id="pen-tool" viewBox="0 0 18 18">
        <path
            d="M16.3,6l-4.6-4.6a.5.5,0,0,0-.708,0L8.972,3.434,3.09,6.5a.227.227,0,0,0-.119.16L1,16.725A.232.232,0,0,0,1.23,17a.246.246,0,0,0,.053-.006L11.347,15a.229.229,0,0,0,.153-.118l2.8-6.166L16.3,6.71A.5.5,0,0,0,16.3,6Zm-5.719,7.874-7.1,1.407,3.169-3.169a1.251,1.251,0,1,0-.707-.708l-3.27,3.27L4.1,7.383,9.077,4.789l3.872,3.872Z" />
    </symbol>

    <symbol id="colorpicker-tool" viewBox="0 0 18 18">
        <path
            d="M16.2,1.958l-.153-.153a2.753,2.753,0,0,0-3.89,0L9.6,4.356l-.034-.033a.668.668,0,0,0-.943,0h0l-.172.171a.67.67,0,0,0,0,.945l.286.286L5.18,9.283C4.024,10.438,2.173,12.7,2.173,12.7s-.377,1.943-.6,2.713l-.367.367a.714.714,0,0,0,0,1.01h0a.715.715,0,0,0,1.011,0h0l.367-.367c.77-.22,2.713-.6,2.713-.6s2.262-1.851,3.417-3.007l3.558-3.557.286.285a.668.668,0,0,0,.943,0h0l.172-.171a.668.668,0,0,0,0-.943h0L13.642,8.4l2.552-2.551a2.749,2.749,0,0,0,0-3.888l0,0ZM8.008,12.106c-.91.909-2.583,2.309-3.149,2.778-.451.09-1.4.282-2.089.45-.012-.021-.025-.04-.039-.06h0a.617.617,0,0,0-.06-.039c.167-.691.36-1.638.45-2.089C3.59,12.58,4.987,10.91,5.9,10L9.457,6.439l2.108,2.109Z" />
    </symbol>

    <symbol id="gradient-tool" viewBox="0 0 18 18">
        <rect x="2" y="11.571" width="14" height="1.714" opacity="0.124" style="isolation: isolate" />
        <rect x="2" y="9.857" width="14" height="1.714" opacity="0.242" style="isolation: isolate" />
        <rect x="2" y="8.143" width="14" height="1.714" opacity="0.319" style="isolation: isolate" />
        <rect x="2" y="6.429" width="14" height="1.714" opacity="0.476" style="isolation: isolate" />
        <rect x="2" y="4.714" width="14" height="1.714" opacity="0.597" style="isolation: isolate" />
        <rect x="2" y="3" width="14" height="1.714" opacity="0.725" style="isolation: isolate" />
        <path
            d="M16.5,2H11V.5a.5.5,0,0,0-.5-.5h-3A.5.5,0,0,0,7,.5V2H1.5a.5.5,0,0,0-.5.5v13a.5.5,0,0,0,.5.5H7v1.5a.5.5,0,0,0,.5.5h3a.5.5,0,0,0,.5-.5V16h5.5a.5.5,0,0,0,.5-.5V2.5A.5.5,0,0,0,16.5,2ZM8,1h2V3H8ZM2,15V3H7v.5a.5.5,0,0,0,.5.5h1V14h-1a.5.5,0,0,0-.5.5V15Zm8,2H8V15h2Zm6-2H11v-.5a.5.5,0,0,0-.5-.5h-1V4h1a.5.5,0,0,0,.5-.5V3h5Z" />
    </symbol>

    <symbol id="shaper-tool" viewBox="0 0 18 18">
        <path
            d="M14.331,15.084l1.83-.111a.156.156,0,0,0,.146-.167.149.149,0,0,0-.049-.1l-1.412-1.343-1.086-1.03-4.5-4.279A.145.145,0,0,0,9.153,8,.155.155,0,0,0,9,8.153V17.84a.157.157,0,0,0,.153.16.228.228,0,0,0,.1-.042l2.763-2.7a.187.187,0,0,1,.1-.049l1.691-.1Z" />
        <rect x="5" y="5" width="1" height="1" />
        <rect x="7" y="5" width="1" height="1" />
        <rect x="9" y="5" width="1" height="1" />
        <rect x="5" y="7" width="1" height="1" />
        <rect x="5" y="9" width="1" height="1" />
        <path
            d="M15.5,5H12.82A6.5,6.5,0,1,0,5,12.819V15.5a.5.5,0,0,0,.5.5H7V15H6V11H5v.784A5.5,5.5,0,1,1,11.79,5H11V6h4v5h1V5.5A.5.5,0,0,0,15.5,5Z" />
    </symbol>

    <symbol id="line-tool" viewBox="0 0 18 18">
        <rect x="-0.9" y="8.5" width="19.799" height="1" rx="0.25" transform="translate(-3.728 9) rotate(-45)" />
    </symbol>

    <symbol id="polyline-tool" viewBox="0 0 18 18">
        <path
            d="M16.147,16.854,2,2.707V12H1V1.5a.5.5,0,0,1,.853-.354L16,15.291,15.986,6h1L17,16.5A.5.5,0,0,1,16.147,16.854Z" />
    </symbol>

    <symbol id="rectangle-tool" viewBox="0 0 18 18">
        <path
            d="M16.5,2H1.5a.5.5,0,0,0-.5.5v13a.5.5,0,0,0,.5.5h15a.5.5,0,0,0,.5-.5V2.5A.5.5,0,0,0,16.5,2ZM16,15H2V3H16Z" />
    </symbol>

    <symbol id="ellipse-tool" viewBox="0 0 18 18">
        <path d="M9,2A7,7,0,1,1,2,9,7.008,7.008,0,0,1,9,2M9,1a8,8,0,1,0,8,8A8,8,0,0,0,9,1Z" />
    </symbol>

    <symbol id="polygon-tool" viewBox="0 0 18 18">
        <path
            d="M9,2.944,16.234,15H1.766L9,2.944M9,1.472a.5.5,0,0,0-.429.243L.454,15.243A.5.5,0,0,0,.883,16H17.117a.5.5,0,0,0,.429-.757L9.429,1.715A.5.5,0,0,0,9,1.472Z" />
    </symbol>

    <symbol id="star-tool" viewBox="0 0 18 18">
        <path
            d="M9,1.874l1.922,3.861a1.3,1.3,0,0,0,.976.705l4.28.616-3.091,2.987a1.29,1.29,0,0,0-.376,1.15l.731,4.229-3.842-2a1.3,1.3,0,0,0-1.2,0l-3.842,2,.731-4.229a1.29,1.29,0,0,0-.376-1.15L1.822,7.056,6.1,6.44a1.3,1.3,0,0,0,.976-.7L9,1.874M9,0a.294.294,0,0,0-.266.164L6.183,5.289a.3.3,0,0,1-.223.161L.254,6.272a.293.293,0,0,0-.164.5l4.129,3.99a.294.294,0,0,1,.085.259l-.975,5.634A.3.3,0,0,0,3.621,17a.309.309,0,0,0,.138-.034l5.1-2.66a.3.3,0,0,1,.276,0l5.1,2.66a.309.309,0,0,0,.138.034.3.3,0,0,0,.292-.344L13.7,11.022a.294.294,0,0,1,.085-.259l4.129-3.99a.293.293,0,0,0-.164-.5L12.04,5.45a.3.3,0,0,1-.223-.161L9.266.164A.294.294,0,0,0,9,0Z" />
    </symbol>

    <symbol id="polygon" viewBox="0 0 18 18">
        <path d="M12.934,3l3.9,6.5-3.9,6.5H5.066l-3.9-6.5L5.066,3h7.868M13.5,2h-9L0,9.5,4.5,17h9L18,9.5,13.5,2Z" />
    </symbol>

    <symbol id="ellipse" viewBox="0 0 18 18">
        <path
            d="M9,3c3.86,0,7,2.692,7,6s-3.14,6-7,6S2,12.308,2,9,5.14,3,9,3M9,2C4.582,2,1,5.134,1,9s3.582,7,8,7,8-3.134,8-7S13.418,2,9,2Z" />
    </symbol>

    <symbol id="guidelines-toggle" viewBox="0 0 18 18">
        <path
            d="M16.75,4H5V1.25A.25.25,0,0,0,4.75,1h-.5A.25.25,0,0,0,4,1.25V4H1.25A.25.25,0,0,0,1,4.25v.5A.25.25,0,0,0,1.25,5H4V16.75a.25.25,0,0,0,.25.25h.5A.25.25,0,0,0,5,16.75V5H16.75A.25.25,0,0,0,17,4.75v-.5A.25.25,0,0,0,16.75,4Z" />
    </symbol>

    <symbol id="ruler-toggle" viewBox="0 0 18 18">
        <path
            d="M14.5,1H2.5a.5.5,0,0,0-.5.5v14a.5.5,0,0,0,.5.5h2a.5.5,0,0,0,.5-.5V4h9.5a.5.5,0,0,0,.5-.5v-2A.5.5,0,0,0,14.5,1ZM4,15H3V14H4Zm0-2H3V12H4Zm0-2H3V10H4ZM4,9H3V8H4ZM4,7H3V6H4ZM4,5H3V4H4ZM6,3H5V2H6ZM8,3H7V2H8Zm2,0H9V2h1Zm2,0H11V2h1Zm2,0H13V2h1Z" />
    </symbol>

    <symbol id="rulergrid" viewBox="0 0 18 18">
        <path d="M9,1H1.25A.25.25,0,0,0,1,1.25V9H2V2H9Z" />
        <path d="M9,17h7.75a.25.25,0,0,0,.25-.25V9H16v7H9Z" />
        <path
            d="M16.778,4.257,13.243.722a.5.5,0,0,0-.707,0L10.483,2.775l1.871,1.871-.708.708L9.776,3.482,8.483,4.775l2.871,2.871-.708.708L7.776,5.482,6.483,6.775,8.354,8.646l-.708.708L5.776,7.482,4.483,8.775l2.871,2.871-.708.708L3.776,9.482,1.222,12.036a.5.5,0,0,0,0,.707l3.535,3.535a.5.5,0,0,0,.707,0L16.778,4.964A.5.5,0,0,0,16.778,4.257Z" />
    </symbol>

    <symbol id="grid-toggle" viewBox="0 0 18 18">
        <path
            d="M16.75,7A.25.25,0,0,0,17,6.75V5.25A.25.25,0,0,0,16.75,5H13V1.25A.25.25,0,0,0,12.75,1h-1.5a.25.25,0,0,0-.25.25V5H7V1.25A.25.25,0,0,0,6.75,1H5.25A.25.25,0,0,0,5,1.25V5H1.25A.25.25,0,0,0,1,5.25v1.5A.25.25,0,0,0,1.25,7H5v4H1.25a.25.25,0,0,0-.25.25v1.5a.25.25,0,0,0,.25.25H5v3.75a.25.25,0,0,0,.25.25h1.5A.25.25,0,0,0,7,16.75V13h4v3.75a.25.25,0,0,0,.25.25h1.5a.25.25,0,0,0,.25-.25V13h3.75a.25.25,0,0,0,.25-.25v-1.5a.25.25,0,0,0-.25-.25H13V7ZM11,11H7V7h4Z" />
    </symbol>

    <symbol id="snap" viewBox="0 0 18 18">
        <path
            d="M15.5,1h-3a.5.5,0,0,0-.5.5V9.83A3.114,3.114,0,0,1,9.161,13c-.054,0-.108,0-.161,0a3,3,0,0,1-3-3V1.5A.5.5,0,0,0,5.5,1h-3a.5.5,0,0,0-.5.5V9.706A7.2,7.2,0,0,0,8.785,17L9,17a7,7,0,0,0,7-7V1.5A.5.5,0,0,0,15.5,1ZM9,16l-.185,0A6.2,6.2,0,0,1,3,9.706V5H5v5a4,4,0,0,0,4,4c.071,0,.142,0,.214-.006A4.089,4.089,0,0,0,13,9.83V5h2v5A6.007,6.007,0,0,1,9,16Z" />
    </symbol>

    <symbol id="switch-horizontal" viewBox="0 0 18 18">
        <rect y="5" width="8" height="8" rx="0.5" />
        <path d="M17,6v6H11V6h6m.5-1h-7a.5.5,0,0,0-.5.5v7a.5.5,0,0,0,.5.5h7a.5.5,0,0,0,.5-.5v-7a.5.5,0,0,0-.5-.5Z" />
        <path
            d="M6.5,2V.75A.25.25,0,0,0,6.25.5a.244.244,0,0,0-.175.073L4.059,2.342a.25.25,0,0,0,0,.316L6.075,4.427A.244.244,0,0,0,6.25,4.5a.25.25,0,0,0,.25-.25V3H14V2Z" />
        <path
            d="M13.944,15.342l-2.017-1.769a.244.244,0,0,0-.175-.073.25.25,0,0,0-.25.25V15H4v1h7.5v1.25a.25.25,0,0,0,.25.25.244.244,0,0,0,.175-.073l2.017-1.769A.25.25,0,0,0,13.944,15.342Z" />
    </symbol>

    <symbol id="switch-vertical" viewBox="0 0 18 18">
        <rect x="5" width="8" height="8" rx="0.5" transform="translate(13 -5) rotate(90)" />
        <path d="M12,17H6V11h6v6m1,.5v-7a.5.5,0,0,0-.5-.5h-7a.5.5,0,0,0-.5.5v7a.5.5,0,0,0,.5.5h7a.5.5,0,0,0,.5-.5Z" />
        <path
            d="M16,6.5h1.25a.25.25,0,0,0,.25-.25.244.244,0,0,0-.073-.175L15.658,4.059a.25.25,0,0,0-.316,0L13.573,6.075a.244.244,0,0,0-.073.175.25.25,0,0,0,.25.25H15V14h1Z" />
        <path
            d="M2.658,13.944l1.769-2.017a.244.244,0,0,0,.073-.175.25.25,0,0,0-.25-.25H3V4H2v7.5H.75a.25.25,0,0,0-.25.25.244.244,0,0,0,.073.175l1.769,2.017A.25.25,0,0,0,2.658,13.944Z" />
    </symbol>

    <symbol id="text-tool" viewBox="0 0 18 18">
        <path d="M3,2V6h.5c0-2.5.5-3,3-3H8V14.5c0,1.5-.5,2-2,2V17h6v-.5c-1.5,0-2-.5-2-2V3h1.5c2.5,0,3,.5,3,3H15V2Z" />
    </symbol>

    <symbol id="zoom-tool" viewBox="0 0 18 18">
        <path
            d="M16.586,15.107,12.7,11.221A6.413,6.413,0,1,0,11.221,12.7l3.886,3.886a1.05,1.05,0,0,0,1.479-1.479ZM7.5,12A4.5,4.5,0,1,1,12,7.5,4.5,4.5,0,0,1,7.5,12Z" />
    </symbol>

    <symbol id="checkbox-unchecked" viewBox="0 0 18 18">
        <path
            d="M15,3V15H3V3H15m.5-1H2.5a.5.5,0,0,0-.5.5v13a.5.5,0,0,0,.5.5h13a.5.5,0,0,0,.5-.5V2.5a.5.5,0,0,0-.5-.5Z" />
    </symbol>

    <symbol id="checkbox-checked" viewBox="0 0 18 18">
        <path
            d="M15,3V15H3V3H15m.5-1H2.5a.5.5,0,0,0-.5.5v13a.5.5,0,0,0,.5.5h13a.5.5,0,0,0,.5-.5V2.5a.5.5,0,0,0-.5-.5Z" />
        <rect x="5" y="5" width="8" height="8" rx="0.5" />
    </symbol>

    <symbol id="radio-unchecked" viewBox="0 0 18 18">
        <path d="M9,3A6,6,0,1,1,3,9,6.007,6.007,0,0,1,9,3M9,2a7,7,0,1,0,7,7A7,7,0,0,0,9,2Z" />
    </symbol>

    <symbol id="radio-checked" viewBox="0 0 18 18">
        <path d="M9,3A6,6,0,1,1,3,9,6.007,6.007,0,0,1,9,3M9,2a7,7,0,1,0,7,7A7,7,0,0,0,9,2Z" />
        <circle cx="9" cy="9" r="4" />
    </symbol>

    <symbol id="pan-tool" viewBox="0 0 18 18">
        <path
            d="M16.844,4.014a1.564,1.564,0,0,0-1.884.971c-.332.91-.809,3.011-1.011,3.458a.168.168,0,0,1-.318-.1c.146-.75.567-3.825.817-5.2a1.633,1.633,0,0,0-3.213-.588c-.255,1.381-.455,4.474-.618,5.289a.194.194,0,0,1-.384-.023c-.086-1.036-.349-4.367-.475-5.829a1.632,1.632,0,1,0-3.252.281c.137,1.594.518,4.73.612,5.86a.092.092,0,0,1-.179.039C6.682,7.463,5.872,4.96,5.453,3.814a1.646,1.646,0,0,0-3.144.977c.013.041.028.083.044.123.637,1.831,1.811,5.167,2.171,6.25a.219.219,0,0,1-.381.2c-.122-.155-.653-1.1-1-1.546A1.762,1.762,0,0,0,.381,12.007l.033.04a51.332,51.332,0,0,0,5.13,5.4,2.837,2.837,0,0,0,2.016.533h5.155A1.838,1.838,0,0,0,14.424,16.7L17.911,6.014a1.563,1.563,0,0,0-.99-1.976C16.9,4.029,16.87,4.022,16.844,4.014Z" />
    </symbol>

    <symbol id="save" viewBox="0 0 18 18">
        <path
            d="M15.854,5.854,12.146,2.146A.5.5,0,0,0,11.793,2H2.5a.5.5,0,0,0-.5.5v13a.5.5,0,0,0,.5.5h13a.5.5,0,0,0,.5-.5V6.207A.5.5,0,0,0,15.854,5.854ZM9,12.25A2.25,2.25,0,1,1,11.25,10,2.25,2.25,0,0,1,9,12.25ZM11,4.5a.5.5,0,0,1-.5.5h-7A.5.5,0,0,1,3,4.5v-1A.5.5,0,0,1,3.5,3h7a.5.5,0,0,1,.5.5Z" />
    </symbol>

    <symbol id="fit-view" viewBox="0 0 18 18">
        <path d="M6.073,1.427,1.427,6.077A.25.25,0,0,1,1,5.9V1.25A.25.25,0,0,1,1.25,1H5.9A.25.25,0,0,1,6.073,1.427Z" />
        <path
            d="M11.927,1.427l4.646,4.65A.25.25,0,0,0,17,5.9V1.25A.25.25,0,0,0,16.75,1H12.1A.25.25,0,0,0,11.927,1.427Z" />
        <path
            d="M6.073,16.573l-4.646-4.65A.25.25,0,0,0,1,12.1v4.65a.25.25,0,0,0,.25.25H5.9A.25.25,0,0,0,6.073,16.573Z" />
        <path
            d="M11.927,16.573l4.646-4.65A.25.25,0,0,1,17,12.1v4.65a.25.25,0,0,1-.25.25H12.1A.25.25,0,0,1,11.927,16.573Z" />
    </symbol>

    <symbol id="anchor-straight" viewBox="0 0 18 18">
        <path
            d="M17.823,15.116,12,9.293V4.5a.5.5,0,0,0-.5-.5h-5a.5.5,0,0,0-.5.5V9.293L.177,15.116a.25.25,0,0,0,0,.354l.353.353a.25.25,0,0,0,.354,0L6.707,10h4.586l5.823,5.823a.25.25,0,0,0,.354,0l.353-.353A.25.25,0,0,0,17.823,15.116ZM11,9H7V5h4Z" />
    </symbol>

    <symbol id="anchor-mirrored" viewBox="0 0 18 18">
        <path
            d="M12.2,7h2.888a1.5,1.5,0,1,0,0-1H12V4.5a.5.5,0,0,0-.5-.5h-5a.5.5,0,0,0-.5.5V6H2.908a1.5,1.5,0,1,0,0,1H5.8C.089,8.949,0,15.921,0,16H1c0-.3.082-6.263,5-8.007V9.5a.5.5,0,0,0,.5.5h5a.5.5,0,0,0,.5-.5V7.993C16.918,9.737,17,15.7,17,16h1C18,15.921,17.911,8.949,12.2,7ZM11,9H7V5h4Z" />
    </symbol>

    <symbol id="anchor-asymmetric" viewBox="0 0 18 18">
        <path
            d="M17.7,14.951,12.049,9.305c-.014-.014-.033-.011-.049-.021V7h1.092a1.5,1.5,0,1,0,0-1H12V4.5a.5.5,0,0,0-.5-.5h-5a.5.5,0,0,0-.5.5V6H2.908a1.5,1.5,0,1,0,0,1H5.8C.089,8.949,0,15.921,0,16H1c0-.3.082-6.263,5-8.007V9.5a.5.5,0,0,0,.5.5h4.837l.005.012,5.646,5.646a.25.25,0,0,0,.354,0l.353-.353A.25.25,0,0,0,17.7,14.951ZM11,9H7V5h4Z" />
    </symbol>

    <symbol id="anchor-disconnected" viewBox="0 0 18 18">
        <path
            d="M16.5,13a1.483,1.483,0,0,0-.628.142L12,9.27V4.5a.5.5,0,0,0-.5-.5h-5a.5.5,0,0,0-.5.5V6H2.908a1.5,1.5,0,1,0,0,1H5.8C.089,8.949,0,15.921,0,16H1c0-.3.082-6.263,5-8.007V9.5a.5.5,0,0,0,.5.5h4.83l3.833,3.833A1.483,1.483,0,0,0,15,14.5,1.5,1.5,0,1,0,16.5,13ZM11,9H7V5h4Z" />
    </symbol>

    <symbol id="unknown" viewBox="0 0 18 18">
        <path
            d="M15,3V15H3V3H15m.5-1H2.5a.5.5,0,0,0-.5.5v13a.5.5,0,0,0,.5.5h13a.5.5,0,0,0,.5-.5V2.5a.5.5,0,0,0-.5-.5Z" />
        <path
            d="M7.962,10.383a1.844,1.844,0,0,1,.032-.761,2.311,2.311,0,0,1,.275-.634,3.574,3.574,0,0,1,.413-.536c.153-.165.3-.326.437-.484A3.257,3.257,0,0,0,9.463,7.5a.955.955,0,0,0,.137-.5.877.877,0,0,0-.268-.669,1.044,1.044,0,0,0-.744-.254,1.5,1.5,0,0,0-.7.162,2.356,2.356,0,0,0-.588.438L6.5,6a3.444,3.444,0,0,1,.981-.721A2.851,2.851,0,0,1,8.763,5a3.168,3.168,0,0,1,.9.121,1.973,1.973,0,0,1,.707.363,1.71,1.71,0,0,1,.462.6A1.921,1.921,0,0,1,11,6.914a1.5,1.5,0,0,1-.143.662,3.015,3.015,0,0,1-.356.559,6.079,6.079,0,0,1-.457.507,4.317,4.317,0,0,0-.438.508,2.54,2.54,0,0,0-.312.565,1.3,1.3,0,0,0-.069.668Z" />
        <path d="M8.745,13a.75.75,0,1,1,0-1.5.74.74,0,0,1,.538.212.775.775,0,0,1,0,1.076A.74.74,0,0,1,8.745,13Z" />
    </symbol>

    <symbol id="layer" viewBox="0 0 18 18">
        <path
            d="M15.5,2H2.5a.5.5,0,0,0-.5.5v13a.5.5,0,0,0,.5.5h13a.5.5,0,0,0,.5-.5V2.5A.5.5,0,0,0,15.5,2ZM15,6H12V9h3v3H12v3H9V12H6v3H3V12H6V9H3V6H6V3H9V6h3V3h3Z" />
        <rect x="6" y="6" width="3" height="3" />
        <rect x="9" y="9" width="3" height="3" />
    </symbol>

    <symbol id="layer3D" viewBox="0 0 18 18">
        <path
            d="M16,5,9,1,2,5v8l6,3.429V16.5h.125L9,17l.875-.5H10v-.071L16,13Zm-3.069.549-3.948,2.3L4.92,5.635,9,3.3ZM4,11.839V7.412L8,9.594v4.531Zm6,2.286V9.575l4-2.334v4.6Z" />
    </symbol>

    <symbol id="easing" viewBox="0 0 18 18">
        <path
            d="M16,2V16H2V2H16m.5-1H1.5a.5.5,0,0,0-.5.5v15a.5.5,0,0,0,.5.5h15a.5.5,0,0,0,.5-.5V1.5a.5.5,0,0,0-.5-.5Z" />
        <path
            d="M3.5,14.625A.625.625,0,0,1,2.875,14V13A5.131,5.131,0,0,1,8,7.875h2A3.879,3.879,0,0,0,13.875,4a.625.625,0,0,1,1.25,0A5.131,5.131,0,0,1,10,9.125H8A3.879,3.879,0,0,0,4.125,13v1A.625.625,0,0,1,3.5,14.625Z" />
    </symbol>

    <symbol id="easing-alt" viewBox="0 0 18 18">
        <path
            d="M16.5,1H1.5a.5.5,0,0,0-.5.5v15a.5.5,0,0,0,.5.5h15a.5.5,0,0,0,.5-.5V1.5A.5.5,0,0,0,16.5,1ZM10,9.125H8A3.879,3.879,0,0,0,4.125,13v1a.625.625,0,0,1-1.25,0V13A5.131,5.131,0,0,1,8,7.875h2A3.879,3.879,0,0,0,13.875,4a.625.625,0,0,1,1.25,0A5.131,5.131,0,0,1,10,9.125Z" />
    </symbol>

    <symbol id="ease-linear" viewBox="0 0 18 18">
        <path d="M2,16.625a.625.625,0,0,1-.442-1.067l14-14a.625.625,0,1,1,.884.884l-14,14A.623.623,0,0,1,2,16.625Z"/>
    </symbol>

    <symbol id="ease-in" viewBox="0 0 18 18">
        <path d="M1.5,17.125a.625.625,0,0,1,0-1.25c5.543,0,9.641-2.4,12.18-7.134a20.261,20.261,0,0,0,2.2-7.283.639.639,0,0,1,.666-.582.626.626,0,0,1,.582.666A21.2,21.2,0,0,1,14.8,9.294,14.243,14.243,0,0,1,1.5,17.125Z"/>
    </symbol>

    <symbol id="ease-out" viewBox="0 0 18 18">
        <path d="M1.5,17.125l-.042,0a.625.625,0,0,1-.582-.665A21.19,21.19,0,0,1,3.2,8.706,14.238,14.238,0,0,1,16.5.875a.625.625,0,0,1,0,1.25c-5.543,0-9.641,2.4-12.18,7.134a20.267,20.267,0,0,0-2.2,7.283A.626.626,0,0,1,1.5,17.125Z"/>
    </symbol>

    <symbol id="ease-in-out" viewBox="0 0 18 18">
        <path d="M1.5,17.125a.625.625,0,0,1,0-1.25c6.375,0,6.375-3.034,6.375-6.875,0-3.809,0-8.125,7.625-8.125a.625.625,0,0,1,0,1.25C9.125,2.125,9.125,5.159,9.125,9,9.125,12.809,9.125,17.125,1.5,17.125Z"/>
    </symbol>

    <symbol id="ease-step-start" viewBox="0 0 18 18">
        <path d="M2.5,16.125a.625.625,0,0,1-.625-.625V2.5A.625.625,0,0,1,2.5,1.875h13a.625.625,0,0,1,0,1.25H3.125V15.5A.625.625,0,0,1,2.5,16.125Z"/>
    </symbol>

    <symbol id="ease-step-end" viewBox="0 0 18 18">
        <path d="M15.5,1.875a.625.625,0,0,1,.625.625v13a.625.625,0,0,1-.625.625H2.5a.625.625,0,0,1,0-1.25H14.875V2.5A.625.625,0,0,1,15.5,1.875Z"/>
    </symbol>

    <symbol id="ease-steps" viewBox="0 0 18 18">
        <path d="M6.5,16.125h-5a.625.625,0,0,1,0-1.25H5.875V11.5a.625.625,0,0,1,.625-.625h4.375V6.5a.625.625,0,0,1,.625-.625h4.375V1.5a.625.625,0,0,1,1.25,0v5a.625.625,0,0,1-.625.625H12.125V11.5a.625.625,0,0,1-.625.625H7.125V15.5A.625.625,0,0,1,6.5,16.125Z"/>
    </symbol>

    <symbol id="ease-back" viewBox="0 0 18 18">
        <path d="M1.5,17.125c-.0679,0-.1372-.0107-.2051-.0342-.3262-.1133-.4985-.4697-.3853-.7959L4.729,5.3047C5.6387,2.6875,7.3188,1.0356,9.2241,.8862c1.7358-.1431,3.3706,.9771,4.4829,3.0552,.3271,.6099,.5781,1.2026,.7998,1.7256,.6953,1.6392,.9912,2.1802,1.9678,2.1284,.3779-.022,.6357,.2554,.6494,.5996,.0146,.3447-.2539,.6357-.5986,.6494-1.9307,.0708-2.5234-1.3647-3.1699-2.8896-.2217-.5229-.4502-1.0635-.75-1.6235-.8672-1.6206-2.0537-2.4937-3.2837-2.3989-1.395,.1094-2.6704,1.4487-3.4121,3.5825l-3.8193,10.9902c-.0898,.2578-.3315,.4199-.5903,.4199Z"/>
    </symbol>

    <symbol id="ease-elastic" viewBox="0 0 18 18">
        <path d="M7.5,16.125c-1.3013,0-1.6646-2.0625-2.1494-5.4277-.1396-.9692-.3203-2.2241-.5044-2.8501-.0186,.0303-.0371,.0605-.0542,.0884-.3896,.6318-1.041,1.6895-3.292,1.6895-.3452,0-.625-.2798-.625-.625s.2798-.625,.625-.625c1.5527,0,1.896-.5566,2.2275-1.0952,.2354-.3818,.5576-.9048,1.2725-.9048,.9907,0,1.1904,1.3848,1.5879,4.1445,.1797,1.2461,.4956,3.4385,.8701,4.1738,.4253-.9209,.8691-3.8066,1.1743-5.7886,.8013-5.2075,1.187-7.0298,2.3677-7.0298,1.3369,0,1.5703,2.0791,1.8662,5.7544,.0762,.9468,.1729,2.1499,.3037,2.855,.0029-.0068,.0068-.0137,.0098-.0205,.3848-.7812,1.0293-2.0889,3.3203-2.0889,.3447,0,.625,.2798,.625,.625s-.2803,.625-.625,.625c-1.5127,0-1.8623,.707-2.1992,1.3916-.2305,.4678-.5459,1.1084-1.3008,1.1084-1.0264,0-1.1445-1.4688-1.3799-4.395-.1035-1.2866-.2842-3.5312-.6025-4.3687-.418,.9761-.8506,3.7896-1.1499,5.7339-.8013,5.2075-1.187,7.0298-2.3677,7.0298Z"/>
    </symbol>

    <symbol id="ease-bounce" viewBox="0 0 18 18">
        <path d="M1.5,17.125c-.3452,0-.625-.2803-.625-.625,0-.3428,.2754-.6211,.6172-.625,.0703-.002,.6421-.041,.9487-.6543,.1304-.2617,.2295-.5928,.3252-.9131,.2441-.8154,.5781-1.9326,1.7339-1.9326,.7871,0,1.5728,.998,2.1992,2.0957,.4917-2.5352,1.5034-6.0957,3.3008-6.0957,1.2822,0,2.165,1.8125,2.7441,3.7715,.5684-5.3638,1.668-11.2715,3.7559-11.2715,.3447,0,.625,.2798,.625,.625s-.2803,.625-.625,.625c-1.0078,.0898-2.3789,6.9614-2.876,14.417-.0215,.3203-.2822,.5723-.6035,.583-.335-.0146-.5977-.2246-.6396-.542-.4863-3.6416-1.6211-6.958-2.3809-6.958-.7593,0-1.894,3.3164-2.3804,6.958-.0371,.2783-.2563,.498-.5347,.5361-.2778,.0391-.5483-.1133-.6592-.373-.6509-1.5166-1.5859-3.0059-1.9619-3.125-.1562,.0039-.2847,.3252-.5,1.0449-.1108,.3711-.2256,.7559-.4048,1.1133-.5312,1.0625-1.5444,1.3457-2.0591,1.3457Z"/>
    </symbol>

    <symbol id="ease-sinc" viewBox="0 0 18 18">
        <path d="M1.4995,17.125c-.104,0-.2095-.0264-.3066-.0811-.3008-.1689-.4067-.5508-.2373-.8516,.9136-1.6182,1.1738-4.3408,1.4253-6.9746C2.7725,5.1162,3.1777,.875,6.3389,.875c1.6099,0,2.0811,1.5933,2.4595,2.8735,.4873,1.6494,.77,2.1313,1.5708,1.9614,.2803-.0601,.3926-.394,.5664-1.0903,.2129-.8511,.5342-2.1377,2.0645-2.1377,.9111,0,1.4375,.4834,1.8613,.8721,.4482,.4106,.8018,.7354,1.6387,.7354,.3447,0,.625,.2798,.625,.625s-.2803,.625-.625,.625c-1.3232,0-1.9941-.6152-2.4834-1.0645-.4004-.3667-.6104-.543-1.0166-.543-.4668,0-.6016,.189-.8516,1.1904-.1875,.7515-.4443,1.7803-1.5176,2.0103-2.0513,.4414-2.6226-1.4487-3.0312-2.8296-.3638-1.231-.6304-1.978-1.2607-1.978-2.0249,0-2.3594,3.5029-2.7139,7.2119-.2637,2.7637-.5366,5.6211-1.5806,7.4707-.1152,.2031-.3267,.3174-.5449,.3174Z"/>
    </symbol>

    <symbol id="clip-path" viewBox="0 0 18 18">
        <path
            d="M11.5,1H1.5a.5.5,0,0,0-.5.5v10a.5.5,0,0,0,.5.5h10a.5.5,0,0,0,.5-.5V1.5A.5.5,0,0,0,11.5,1Zm-5,5a.5.5,0,0,0-.5.5V11H2V2h9V6Z" />
        <rect x="13" y="6" width="1" height="1" />
        <rect x="13" y="16" width="1" height="1" />
        <rect x="11" y="16" width="1" height="1" />
        <rect x="9" y="16" width="1" height="1" />
        <rect x="16" y="9" width="1" height="1" />
        <rect x="16" y="11" width="1" height="1" />
        <rect x="16" y="13" width="1" height="1" />
        <rect x="6" y="13" width="1" height="1" />
        <path d="M15,6V7h1V8h1V6.5a.5.5,0,0,0-.5-.5Z" />
        <path d="M15,17V16h1V15h1v1.5a.5.5,0,0,1-.5.5Z" />
        <path d="M8,17V16H7V15H6v1.5a.5.5,0,0,0,.5.5Z" />
    </symbol>

    <symbol id="symbol" viewBox="0 0 18 18">
        <path d="M4.5,1h0A3.5,3.5,0,0,1,8,4.5V8A0,0,0,0,1,8,8H4.5A3.5,3.5,0,0,1,1,4.5v0A3.5,3.5,0,0,1,4.5,1Z" />
        <path d="M13.5,1h0A3.5,3.5,0,0,1,17,4.5v0A3.5,3.5,0,0,1,13.5,8H10a0,0,0,0,1,0,0V4.5A3.5,3.5,0,0,1,13.5,1Z" />
        <path d="M4.5,10H8a0,0,0,0,1,0,0v3.5A3.5,3.5,0,0,1,4.5,17h0A3.5,3.5,0,0,1,1,13.5v0A3.5,3.5,0,0,1,4.5,10Z" />
        <path
            d="M10,10h3.5A3.5,3.5,0,0,1,17,13.5v0A3.5,3.5,0,0,1,13.5,17h0A3.5,3.5,0,0,1,10,13.5V10A0,0,0,0,1,10,10Z" />
    </symbol>

    <symbol id="center-origin-object" viewBox="0 0 18 18">
        <path d="M2,2H5V1H1.5a.5.5,0,0,0-.5.5V5H2Z" />
        <path d="M2,13H1v3.5a.5.5,0,0,0,.5.5H5V16H2Z" />
        <path d="M16.5,1H13V2h3V5h1V1.5A.5.5,0,0,0,16.5,1Z" />
        <path d="M16,16H13v1h3.5a.5.5,0,0,0,.5-.5V13H16Z" />
        <circle cx="9" cy="9" r="1.125" />
        <path d="M9,6A3,3,0,1,1,6,9,3,3,0,0,1,9,6M9,4.75A4.25,4.25,0,1,0,13.25,9,4.25,4.25,0,0,0,9,4.75Z" />
    </symbol>

    <symbol id="center-object-origin" viewBox="0 0 18 18">
        <circle cx="9" cy="9" r="1.125" />
        <path d="M9,6A3,3,0,1,1,6,9,3,3,0,0,1,9,6M9,4.75A4.25,4.25,0,1,0,13.25,9,4.25,4.25,0,0,0,9,4.75Z" />
        <path
            d="M4.75,1h-.5A.25.25,0,0,0,4,1.25V4H1.25A.25.25,0,0,0,1,4.25v.5A.25.25,0,0,0,1.25,5H5V1.25A.25.25,0,0,0,4.75,1Z" />
        <path
            d="M13.25,1h.5a.25.25,0,0,1,.25.25V4h2.75a.25.25,0,0,1,.25.25v.5a.25.25,0,0,1-.25.25H13V1.25A.25.25,0,0,1,13.25,1Z" />
        <path
            d="M4.75,17h-.5A.25.25,0,0,1,4,16.75V14H1.25A.25.25,0,0,1,1,13.75v-.5A.25.25,0,0,1,1.25,13H5v3.75A.25.25,0,0,1,4.75,17Z" />
        <path
            d="M13.25,17h.5a.25.25,0,0,0,.25-.25V14h2.75a.25.25,0,0,0,.25-.25v-.5a.25.25,0,0,0-.25-.25H13v3.75A.25.25,0,0,0,13.25,17Z" />
    </symbol>

    <symbol id="swap-arrow-up-left" viewBox="0 0 18 18">
        <path
            d="M13.5,14.875A7.384,7.384,0,0,1,6.125,7.5V6H9.182a.25.25,0,0,0,.166-.437L5.836,2.17a.252.252,0,0,0-.351,0l-3.4,3.39A.25.25,0,0,0,2.25,6H4.875V7.5A8.635,8.635,0,0,0,13.5,16.125H16v-1.25Z" />
    </symbol>

    <symbol id="swap-arrow-down-right" viewBox="0 0 18 18">
        <path
            d="M3.238,4.5a7.383,7.383,0,0,0,7.375,7.375h1.5V8.818a.247.247,0,0,1,.084-.187.25.25,0,0,1,.353.021l3.392,3.512a.25.25,0,0,1,0,.351l-3.389,3.4a.254.254,0,0,1-.188.084.249.249,0,0,1-.249-.25V13.125h-1.5A8.635,8.635,0,0,1,1.988,4.5V2h1.25Z" />
    </symbol>

    <symbol id="swap-arrows" viewBox="0 0 18 18">
        <path
            d="M16.937,12.084A.252.252,0,0,0,16.75,12H14.125V8.5A3.629,3.629,0,0,0,10.5,4.875H6V2.25a.25.25,0,0,0-.437-.166L2.17,5.6a.251.251,0,0,0,0,.35l3.39,3.4A.25.25,0,0,0,6,9.182V6.125h4.5A2.377,2.377,0,0,1,12.875,8.5V12H9.818a.25.25,0,0,0-.166.437l3.4,3.39a.251.251,0,0,0,.35,0l3.513-3.393A.25.25,0,0,0,16.937,12.084Z" />
    </symbol>

    <symbol id="percent" viewBox="0 0 18 18">
        <path
            d="M5,3A2,2,0,0,1,7,5V6A2,2,0,0,1,3,6V5A2,2,0,0,1,5,3M5,2A3,3,0,0,0,2,5V6A3,3,0,0,0,8,6V5A3,3,0,0,0,5,2Z" />
        <path
            d="M13,10a2,2,0,0,1,2,2v1a2,2,0,0,1-4,0V12a2,2,0,0,1,2-2m0-1a3,3,0,0,0-3,3v1a3,3,0,0,0,6,0V12a3,3,0,0,0-3-3Z" />
        <path d="M3,15.5a.5.5,0,0,1-.354-.854l12-12a.5.5,0,0,1,.708.708l-12,12A.5.5,0,0,1,3,15.5Z" />
    </symbol>

    <symbol id="tile" viewBox="0 0 18 18">
        <g transform="rotate(45 9 9)">
            <rect height="7" rx="0.5" width="7" x="1" y="1" />
            <rect height="7" rx="0.5" width="7" x="10" y="1" />
            <rect height="7" rx="0.5" width="7" x="1" y="10" />
            <rect height="7" rx="0.5" width="7" x="10" y="10" />
        </g>
    </symbol>

    <symbol id="no-auto-rotate" viewBox="0 0 18 18">
        <path d="M16.177,2.177l-.354-.354a.25.25,0,0,0-.353,0L10.954,6.339,6.63,5.618a1.975,1.975,0,0,0,.24-.93A2.021,2.021,0,1,0,5.9,6.4l.571,4.43L1.823,15.47a.25.25,0,0,0,0,.353l.354.354a.25.25,0,0,0,.353,0l4.1-4.1L6.967,14.7a.373.373,0,0,0,.11.289.377.377,0,0,0,.532,0h0l7.385-7.382a.377.377,0,0,0-.289-.642l-2.539-.424L16.177,2.53A.25.25,0,0,0,16.177,2.177Z"/>
    </symbol>

    <symbol id="auto-rotate" viewBox="0 0 18 18">
        <path d="M16.177,2.177l-.354-.354a.25.25,0,0,0-.353,0L13.223,4.07A1.989,1.989,0,0,0,10.484,6.8L2.18,7.873a.373.373,0,0,0-.289.11.377.377,0,0,0,0,.532h0l3.443,3.444L1.823,15.47a.25.25,0,0,0,0,.353l.354.354a.25.25,0,0,0,.353,0l3.511-3.511L9.273,15.9a.378.378,0,0,0,.534,0,.373.373,0,0,0,.108-.287l1.347-8.074a1.974,1.974,0,0,0,.93.239,2,2,0,0,0,2-2,1.978,1.978,0,0,0-.271-.989L16.177,2.53A.25.25,0,0,0,16.177,2.177Z"/>
    </symbol>

    <symbol id="auto-rotate-reverse" viewBox="0 0 18 18">
        <path d="M1.823,15.823l.354.354a.25.25,0,0,0,.353,0L4.777,13.93A1.989,1.989,0,0,0,7.516,11.2l8.3-1.071a.373.373,0,0,0,.289-.11.377.377,0,0,0,0-.532h0L12.666,6.041,16.177,2.53a.25.25,0,0,0,0-.353l-.354-.354a.25.25,0,0,0-.353,0L11.959,5.334,8.727,2.1a.376.376,0,0,0-.642.289L6.738,10.463a1.974,1.974,0,0,0-.93-.239,2,2,0,0,0-2,2,1.978,1.978,0,0,0,.271.989L1.823,15.47A.25.25,0,0,0,1.823,15.823Z"/>
    </symbol>

    <symbol id="break-points" viewBox="0 0 18 18">
        <path d="M5,10a2.992,2.992,0,0,0-2.441,4.734L1.146,16.146a.5.5,0,0,0,.708.708l1.412-1.413A3,3,0,1,0,5,10Zm0,4.5A1.5,1.5,0,1,1,6.5,13,1.5,1.5,0,0,1,5,14.5Z"/>
        <path d="M16.854,1.146a.5.5,0,0,0-.708,0L14.734,2.559a3.015,3.015,0,1,0,.707.707l1.413-1.412A.5.5,0,0,0,16.854,1.146ZM13,6.5A1.5,1.5,0,1,1,14.5,5,1.5,1.5,0,0,1,13,6.5Z"/>
        <path d="M3.146,3.854a.5.5,0,0,0,.708-.708l-1-1a.5.5,0,0,0-.708.708Z"/>
        <path d="M6.146,6.854a.5.5,0,0,0,.708-.708l-1-1a.5.5,0,0,0-.708.708Z"/>
        <path d="M8.854,8.146a.5.5,0,0,0-.708.708l1,1a.5.5,0,0,0,.708-.708Z"/>
        <path d="M11.854,11.146a.5.5,0,0,0-.708.708l1,1a.5.5,0,0,0,.708-.708Z"/>
        <path d="M14.854,14.146a.5.5,0,0,0-.708.708l1,1a.5.5,0,0,0,.708-.708Z"/>
    </symbol>
    <symbol id="join-nodes" viewBox="0 0 18 18">
        <path d="M9,7.5a1.49,1.49,0,0,1,.864.281l.207.148.148.207a1.492,1.492,0,0,1-2.083,2.083l-.207-.148-.148-.207A1.492,1.492,0,0,1,9,7.5M16.5,1a.5.5,0,0,0-.354.146L10.734,6.559a2.992,2.992,0,0,0-4.175,4.175L1.146,16.146a.5.5,0,0,0,.708.708l5.412-5.413a2.992,2.992,0,0,0,4.175-4.175l5.413-5.412A.5.5,0,0,0,16.5,1Z"/>
        <path d="M5.75,2h-3a.25.25,0,0,0-.176.427l.969.969L1.47,5.47A.75.75,0,1,0,2.53,6.53L4.6,4.457l.969.969A.25.25,0,0,0,6,5.25v-3A.25.25,0,0,0,5.75,2Z"/>
        <path d="M12.25,16h3a.25.25,0,0,0,.176-.427l-.969-.969L16.53,12.53a.75.75,0,1,0-1.06-1.06L13.4,13.543l-.969-.969A.25.25,0,0,0,12,12.75v3A.25.25,0,0,0,12.25,16Z"/>
    </symbol>

    <symbol id="path-merge" viewBox="0 0 18 18">
        <path d="M15.5,6H12V2.48a.5.5,0,0,0-.5-.5h-9a.5.5,0,0,0-.5.5v9a.5.5,0,0,0,.5.5H6V15.5a.5.5,0,0,0,.5.5h9a.5.5,0,0,0,.5-.5v-9A.5.5,0,0,0,15.5,6ZM15,15H7V10.98H3v-8h8V7h4Z"/>
        <polygon points="9.98 8.01 9.98 4 4.02 4 4.02 9.96 6 9.96 7 9.96 8.03 9.96 8.03 10.98 8.03 11.98 8.03 13.97 13.99 13.97 13.99 8.01 9.98 8.01"/>
    </symbol>

    <symbol id="path-merge-alt" viewBox="0 0 18 18">
        <path d="M15.5,6H12V2.48a.5.5,0,0,0-.5-.5h-9a.5.5,0,0,0-.5.5v9a.5.5,0,0,0,.5.5H6V15.5a.5.5,0,0,0,.5.5h9a.5.5,0,0,0,.5-.5v-9A.5.5,0,0,0,15.5,6ZM15,15H7V10.98H3v-8h8V7h4Z"/>
    </symbol>

    <symbol id="path-split" viewBox="0 0 18 18">
        <path d="M2.5,2a.5.5,0,0,0-.5.5v9a.5.5,0,0,0,.5.5H5V2Z"/>
        <path d="M15.5,6H12V16h3.5a.5.5,0,0,0,.5-.5v-9A.5.5,0,0,0,15.5,6Z"/>
        <path d="M12,5V2.5a.5.5,0,0,0-.5-.5H6V5Z"/>
        <path d="M6,6v9.5a.5.5,0,0,0,.5.5H11V6Z"/>
    </symbol>

    <symbol id="export" viewBox="0 0 18 18">
        <path d="M16.925,8.828,13.666,5.1A.392.392,0,0,0,13.4,5a.4.4,0,0,0-.4.4V8H7.5a.5.5,0,0,0-.5.5v1a.5.5,0,0,0,.5.5H13v2.6a.4.4,0,0,0,.664.3l3.261-3.723A.246.246,0,0,0,16.925,8.828Z" />
        <path d="M9,14H3V4H9V6h2V2.5a.5.5,0,0,0-.5-.5h-9a.5.5,0,0,0-.5.5v13a.5.5,0,0,0,.5.5h9a.5.5,0,0,0,.5-.5V12H9Z" />
    </symbol>
    <symbol id="rgb-circles" viewBox="0 0 18 18">
        <g style="isolation: isolate">
            <circle cx="6" cy="6" r="6" stroke="none" fill="red" style="mix-blend-mode: var(--icon-blend, normal)" />
            <circle cx="12" cy="6" r="6" stroke="none" fill="lightgreen" style="mix-blend-mode: var(--icon-blend, normal)" />
            <circle cx="9" cy="12" r="6" stroke="none" fill="blue" style="mix-blend-mode: var(--icon-blend, normal)" />
        </g>
    </symbol>

    <symbol id="timeline-up" viewBox="0 0 18 18">
        <path d="M12.84,5.15c.22,.2,.22,.52-.02,.71-.11,.09-.25,.14-.4,.14h-1.41v3H7v-3h-1.4c-.33,0-.59-.22-.6-.49,0-.13,.06-.26,.17-.36l3.83-3.15,3.84,3.15Z"/>
        <rect x="1" y="11" width="16" height="6" rx=".5" ry=".5"/>
    </symbol>

    <symbol id="timeline-down" viewBox="0 0 18 18">
        <path d="M12.26,12.85c.19-.2,.18-.52-.02-.71-.09-.09-.21-.14-.34-.14h-1.4v-3h-3v3h-1.39c-.28,0-.5,.22-.51,.49,0,.13,.05,.26,.15,.36l3.25,3.15,3.26-3.15Z"/>
        <rect x="1" y="1" width="16" height="6" rx=".5" ry=".5"/>
    </symbol>

    <symbol id="visibility-bar" viewBox="0 0 18 18">
        <path d="m16.5,2H1.5c-.276,0-.5.224-.5.5v5c0,.276.224.5.5.5h8.227l3.141-4.035c.286-.367.718-.578,1.183-.578.331,0,.658.112.919.315l.729.567c.316.246.519.601.567.999.05.398-.059.791-.306,1.106l-1.264,1.625h1.804c.276,0,.5-.224.5-.5V2.5c0-.276-.224-.5-.5-.5Z"/>
        <path d="m15.084,5.058l-.727-.566c-.218-.168-.531-.129-.7.088l-6.818,8.758-3.323-3.306c-.195-.195-.512-.195-.707,0l-.663.665c-.195.195-.195.512,0,.707l4.463,4.45c.195.196.511.197.707.002.015-.015.03-.031.043-.049l7.812-10.046c.169-.218.13-.532-.087-.702Z"/>
    </symbol>

    <symbol id="textbox-fixed-size" viewBox="0 0 18 18">
        <path d="m15,3v12H3V3h12m.5-1H2.5c-.276,0-.5.224-.5.5v13c0,.276.224.5.5.5h13c.276,0,.5-.224.5-.5V2.5c0-.276-.224-.5-.5-.5h0Z"/>
    </symbol>

    <symbol id="textbox-auto-size" viewBox="0 0 18 18">
        <path d="m2,6v2h1v-2h-1Zm0,4v2h1v-2h-1ZM6,2v1h2v-1h-2Zm9.5,0h-1.5v1h1v1h1v-1.5c0-.28-.22-.5-.5-.5Zm-5.5,1h2v-1h-2v1Zm-7.5-1c-.28,0-.5.22-.5.5v1.5h1v-1h1v-1h-1.5Zm12.5,4v2h1v-2h-1Zm0,4v2h1v-2h-1ZM3,15v-1h-1v1.5c0,.28.22.5.5.5h1.5v-1h-1Zm7,0v1h2v-1h-2Zm5-1v1h-1v1h1.5c.28,0,.5-.22.5-.5v-1.5h-1Zm-9,1v1h2v-1h-2Z"/>
    </symbol>

    <symbol id="textbox-auto-width" viewBox="0 0 18 18">
        <path d="m3,6h-1v2h1v-2Zm0,4h-1v2h1v-2Zm12-6h1v-1.5c0-.28-.22-.5-.5-.5H2.5c-.28,0-.5.22-.5.5v1.5h1v-1h12v1Zm1,2h-1v2h1v-2Zm0,4h-1v2h1v-2Zm0,5.5v-1.5h-1v1H3v-1h-1v1.5c0,.28.22.5.5.5h13c.28,0,.5-.22.5-.5Z"/>
    </symbol>

    <symbol id="textbox-auto-height" viewBox="0 0 18 18">
        <path d="m6,15v1h2v-1h-2Zm4,0v1h2v-1h-2ZM4,3v-1h-1.5c-.28,0-.5.22-.5.5v13c0,.28.22.5.5.5h1.5v-1h-1V3h1Zm2-1v1h2v-1h-2Zm4,0v1h2v-1h-2Zm5.5,0h-1.5v1h1v12h-1v1h1.5c.28,0,.5-.22.5-.5V2.5c0-.28-.22-.5-.5-.5Z"/>
    </symbol>

    <symbol id="scenes" viewBox="0 0 18 18">
        <path d="m1,6h16v9.65c0,.193-.157.35-.35.35H1.35c-.193,0-.35-.157-.35-.35V6h0Z"/>
        <path d="m17,5v-2.75c0-.138-.112-.25-.25-.25h-2.75l3,3Z"/>
        <polygon points="9 2 12 5 15 5 12 2 9 2"/>
        <g>
            <path d="m5,5H1.25c-.07,0-.13-.03-.18-.07-.04-.05-.07-.11-.07-.18v-2.5c0-.14.11-.25.25-.25h.75l3,3Z"/>
            <polygon points="7 2 4 2 7 5 10 5 7 2"/>
        </g>
    </symbol>

    <symbol id="brushes" viewBox="0 0 18 18">
        <path d="m15.829,15.171c-.703-.319-1.089-1.027-1.229-1.814-.122-.687-.532-1.291-.98-1.817-.334-.316-.767-.487-1.211-.487-.108,0-.216.01-.323.03-.691.12-1.278.53-1.65,1.101-.511.782-.466,1.819.117,2.557.141.179.306.338.49.474.773.577,1.774.737,2.646.737.5,0,.958-.053,1.305-.109.265-.044.509-.097.723-.152.117-.032.207-.128.236-.25.029-.11-.024-.225-.125-.271Zm-2.139-.198c-.608,0-1.46-.094-2.065-.546-.113-.083-.214-.181-.302-.293-.319-.403-.345-.984-.065-1.414.236-.362.591-.6,1.013-.674.047-.009.094-.013.141-.013.183,0,.36.067.504.189.423.506.653.922.721,1.307.096.543.278,1.023.533,1.426-.164.012-.324.018-.479.018Z"/>
        <path d="m6.119,11.084c-.552-.105-1.119.064-1.534.456-.448.526-.857,1.13-.98,1.817-.14.786-.526,1.495-1.229,1.814-.101.045-.154.161-.125.271.028.122.119.218.236.25.214.055.458.108.723.152.953.155,2.735.28,3.951-.628.185-.136.349-.296.49-.474.583-.737.627-1.774.117-2.557-.372-.571-.96-.98-1.65-1.101Z"/>
        <path d="m10.886,9.8c2.175-2.763,5.507-7.133,5.076-7.565-.412-.412-4.086,3.096-6.555,5.556-1.862-2.391-4.782-5.791-6.448-5.791-.255,0-.49.088-.676.265-1.881,1.832,6.212,9.211,6.82,9.76v.01c.029.02.039.029.039.029v-.078c.147-.176.696-.862,1.431-1.793.108-.127.206-.255.314-.392Zm-2.126.578c-.333-.314-.666-.637-.98-.96C4.919,6.576,2.812,3.803,2.969,2.98c.999.029,3.479,2.587,5.732,5.507.294.372.578.754.852,1.137-.304.206-.578.461-.794.755Z"/>
    </symbol>

    <symbol id="patterns" viewBox="0 0 18 18">
        <rect x="12.4559" y="1.7794" width="3.7632" height="3.7632" transform="translate(1.6106 11.2103) rotate(-44.9993)"/>
        <rect x="12.4559" y="7.123" width="3.7632" height="3.7632" transform="translate(-2.1679 12.7754) rotate(-44.9993)"/>
        <rect x="12.4559" y="12.4574" width="3.7632" height="3.7632" transform="translate(-5.9398 14.3377) rotate(-44.9993)"/>
        <rect x="7.1332" y="1.7794" width="3.7632" height="3.7632" transform="translate(.0516 7.4466) rotate(-44.9993)"/>
        <rect x="7.1333" y="7.123" width="3.7632" height="3.7632" transform="translate(-3.7268 9.0119) rotate(-45)"/>
        <rect x="7.1333" y="12.4574" width="3.7632" height="3.7632" transform="translate(-7.4988 10.5743) rotate(-45)"/>
        <rect x="1.7896" y="1.7794" width="3.7632" height="3.7632" transform="translate(-1.5134 3.6681) rotate(-44.9993)"/>
        <rect x="1.7896" y="7.123" width="3.7632" height="3.7632" transform="translate(-5.292 5.2333) rotate(-45)"/>
        <rect x="1.7896" y="12.4574" width="3.7632" height="3.7632" transform="translate(-9.0639 6.7957) rotate(-45)"/>
    </symbol>

    <symbol id="textbox" viewBox="0 0 18 18">
        <polygon points="5 6 5 7 6 7 6 6 8 6 8 12 7 12 7 13 11 13 11 12 10 12 10 6 12 6 12 7 13 7 13 6 13 5 5 5 5 6" />
        <path d="m16.5,4c.2761,0,.5-.2239.5-.5V1.5c0-.2762-.2239-.5-.5-.5h-2c-.2761,0-.5.2238-.5.5v.5H4v-.5c0-.2762-.2239-.5-.5-.5H1.5c-.2761,0-.5.2238-.5.5v2c0,.2761.2239.5.5.5h.5v10h-.5c-.2761,0-.5.2238-.5.5v2c0,.2761.2239.5.5.5h2c.2761,0,.5-.2239.5-.5v-.5h10v.5c0,.2761.2239.5.5.5h2c.2761,0,.5-.2239.5-.5v-2c0-.2762-.2239-.5-.5-.5h-.5V4h.5Zm-1.5,10h-.5c-.2761,0-.5.2238-.5.5v.5H4v-.5c0-.2762-.2239-.5-.5-.5h-.5V4h.5c.2761,0,.5-.2239.5-.5v-.5h10v.5c0,.2761.2239.5.5.5h.5v10Z" />
    </symbol>

    <symbol id="dash-gap" viewBox="0 0 18 18">
        <path d="m1.5,8h4.5v3H1.5c-.276,0-.5-.224-.5-.5v-2c0-.276.224-.5.5-.5Z" />
        <rect x="8" y="8" width="2" height="3" />
        <path d="m12,8h4.5c.276,0,.5.224.5.5v2c0,.276-.224.5-.5.5h-4.5v-3h0Z" />
    </symbol>

    <symbol id="stroke-ontop" viewBox="0 0 18 18">
        <path d="m16,15h0V2H3c0,7.1797,5.8203,13,13,13" opacity=".15" />
        <path d="m16,6.95v9.04c-.17.01-.33.01-.5.01C8.0442,16,2,9.9558,2,2.5c0-.17,0-.33.01-.5h9.04c-.0266.1655-.0432.3325-.05.5-.0033,2.482,2.006,4.4967,4.488,4.5.004,0,.008,0,.012,0,.1675-.0068.3345-.0234.5-.05" />
    </symbol>

    <symbol id="stroke-below" viewBox="0 0 18 18">
        <path d="m16,15h0V2H3c0,7.1797,5.8203,13,13,13" opacity=".15" />
        <path d="m15.5,7c-2.4853,0-4.5-2.0147-4.5-4.5.0075-.1675.0242-.3344.05-.5h-5.025c-.008.167-.025.331-.025.5,0,5.2467,4.2533,9.5,9.5,9.5.169,0,.333-.017.5-.025v-5.025c-.1656.0258-.3325.0425-.5.05" opacity=".25" />
        <path d="m15.5,12c-5.2467,0-9.5-4.2533-9.5-9.5,0-.169.017-.333.025-.5H2.01c-.01.17-.01.33-.01.5,0,7.4558,6.0442,13.5,13.5,13.5.17,0,.33,0,.5-.01v-4.015c-.167.008-.331.025-.5.025" />
    </symbol>

    <symbol id="miter" viewBox="0 0 18 18">
        <path d="m9.0009,3l-4.9931,11.8214c-.0277.0722.0206.1493.1079.1722.017.0045.0348.0066.0526.0064h9.6652c.0915.0004.1661-.0607.1665-.1364,0-.0143-.0025-.0285-.0077-.0421L9.0009,3Z" />
    </symbol>

    <symbol id="dash-offset" viewBox="0 0 18 18">
        <path d="m6.0257,13c-.1902,0-.3805-.0781-.5257-.2344l-3.5-3.7656,3.5-3.7656c.2905-.3125.761-.3125,1.0515,0s.2905.8188,0,1.1313l-2.4485,2.6344,2.4485,2.6344c.2905.3125.2905.8187,0,1.1312-.1452.1562-.3355.2344-.5257.2344Z" />
        <path d="m11.9743,13c-.1907,0-.3805-.0781-.5257-.2344-.2905-.3125-.2905-.8187,0-1.1312l2.4485-2.6344-2.4485-2.6344c-.2905-.3125-.2905-.8188,0-1.1313s.761-.3125,1.0515,0l3.5,3.7656-3.5,3.7656c-.1452.1562-.335.2344-.5257.2344Z" />
    </symbol>

    <symbol id="ruler" viewBox="0 0 18 18">
        <path d="m13.464.98l-1.992,1.992,1.019,1.018-.707.707-1.019-1.017-1.414,1.41,2.017,2.02-.707.707-2.017-2.016-1.414,1.414,1.017,1.016-.707.707-1.018-1.017-1.414,1.414,1.767,1.767-.707.707-1.767-1.767-1.419,1.414,1.017,1.017-.708.707-1.01-1.016-1.3,1.3,3.537,3.536,12.482-12.484-3.536-3.536Z" />
    </symbol>

    <symbol id="size" viewBox="0 0 18 18">
        <path d="m7.036,10.354c-.1953-.1952-.5118-.1952-.707,0l-3.242,3.246-1.489-1.5c-.0658-.0654-.1553-.1014-.248-.1-.1933,0-.35.1567-.35.35v4.42c.0093.1222.1059.2196.228.23h4.42c.1933,0,.35-.1567.35-.35.0008-.0917-.0352-.18-.1-.245l-1.5-1.495,3.242-3.242c.1952-.1953.1952-.5117,0-.707l-.604-.607Z" />
        <path d="m16.771,1h-4.421c-.1933,0-.35.1567-.35.35-.0008.0917.0352.18.1.245l1.5,1.494-3.246,3.243c-.1952.1953-.1952.5118,0,.707l.608.608c.1953.1952.5118.1952.707,0l3.241-3.247,1.4901,1.5c.0656.0652.1545.1012.2469.1.1933.0016.3514-.1537.353-.347V1.23c-.0094-.1225-.1065-.22-.229-.23Z" />
    </symbol>

    <symbol id="angle" viewBox="0 0 18 18">
        <path d="m15.386,12.7804h-2.4863c-.1373-2.2794-1.0518-4.4739-2.5769-6.1826l1.5681-1.5573c.2399-.2387.2389-.6246-.001-.8623-.2399-.2372-.6284-.2382-.8683.001L2.18,12.9586c-.1756.1744-.2283.4373-.1334.665s.319.3764.5675.3764h12.7718c.3387,0,.614-.2735.614-.6098s-.2754-.6098-.614-.6098Zm-3.4629,0h-7.8257l5.5347-5.4968c1.3447,1.5255,2.1566,3.4745,2.291,5.4968Z" />
    </symbol>

    <symbol id="radius" viewBox="0 0 18 18">
        <path d="m9,14c2.7614,0,5-2.2386,5-5s-2.2386-5-5-5-5,2.2386-5,5,2.2386,5,5,5Zm0-9c2.2056,0,4,1.7944,4,4s-1.7944,4-4,4-4-1.7944-4-4,1.7944-4,4-4Z" />
        <path d="m2,2v14h14V2H2Zm13,13H3V3h12v12Z" />
    </symbol>

    <symbol id="roundness" viewBox="0 0 18 18">
        <path d="m9,5C4.58,5,1,8.58,1,13h1c0-3.86,3.14-7,7-7s7,3.14,7,7h1c0-4.42-3.58-8-8-8Z" />
    </symbol>

    <symbol id="outer" viewBox="0 0 18 18">
        <path d="m5,7v-1.5c0-.2761.2239-.5.5-.5h1.5v1h-1v1h-1Z" />
        <path d="m11,6v-1h1.5c.2761,0,.5.2239.5.5v1.5h-1v-1h-1Z" />
        <path d="m5,11v1.5c0,.2761.2239.5.5.5h1.5v-1h-1v-1h-1Z" />
        <path d="m11,12v1h1.5c.2761,0,.5-.2239.5-.5v-1.5h-1v1h-1Z" />
    </symbol>

    <symbol id="inner" viewBox="0 0 18 18">
        <path d="m8,6v1.5c0,.2761-.2239.5-.5.5h-1.5v-1h1v-1h1Z" />
        <path d="m12,7v1h-1.5c-.2761,0-.5-.2239-.5-.5v-1.5h1v1h1Z" />
        <path d="m8,12v-1.5c0-.2761-.2239-.5-.5-.5h-1.5v1h1v1h1Z" />
        <path d="m12,11v-1h-1.5c-.2761,0-.5.2239-.5.5v1.5h1v-1h1Z" />
    </symbol>

    <symbol id="rotate-star" viewBox="0 0 18 18">
        <path d="m5.2492,2l1.4175,2.3333,7.235-1.7113-1.4017,1.7113,3.5,6.9412-2.3333-1.1079-5.0223,5.8333.3556-2.3333-7-3.3986,2.3333-.1014.9158-8.1667m.0002-1.0001c-.0715,0-.1437.0077-.2156.0235-.4178.0922-.7307.4399-.7784.8651l-.8205,7.3162-1.4783.0642c-.4574.0199-.8429.3479-.9358.7962-.0929.4483.1306.9025.5424,1.1025l6.3372,3.0768-.2446,1.6049c-.0672.4408.1656.8729.5708,1.0592.1342.0617.2765.0915.4175.0915.2846,0,.5636-.1216.7582-.3476l4.5246-5.2553,1.6443.7807c.1371.0651.2835.0967.4286.0967.2636,0,.5232-.1042.7157-.3014.2985-.3057.3699-.7674.1775-1.1489l-3.2072-6.3605.9895-1.2081c.2717-.3317.3017-.7998.0745-1.1635-.1854-.2968-.5086-.4702-.848-.4702-.0764,0-.1536.0088-.2303.0269l-6.5276,1.544-1.0401-1.7121c-.1839-.3027-.5105-.4809-.8545-.4809h0Z" />
    </symbol>

    <symbol id="rectangle-radius" viewBox="0 0 18 18">
        <path d="m3,3h3v-1h-3.5c-.2761,0-.5.2238-.5.5v3.5h1v-3Z" />
        <path d="m3,12h-1v3.5c0,.2761.2239.5.5.5h3.5v-1h-3v-3Z" />
        <path d="m15.5,2h-3.5v1h3v3h1v-3.5c0-.2762-.2239-.5-.5-.5Z" />
        <path d="m15,15h-3v1h3.5c.2761,0,.5-.2239.5-.5v-3.5h-1v3Z" />
        <circle cx="6" cy="6" r="1" />
        <circle cx="12" cy="6" r="1" />
        <circle cx="6" cy="12" r="1" />
        <circle cx="12" cy="12" r="1" />
    </symbol>

    <symbol id="skew" viewBox="0 0 18 18">
        <path d="m15,5l-6,8H3l6-8h6m0-1h-6c-.3148,0-.6111.1482-.8.4l-6,8c-.2273.303-.2638.7084-.0944,1.0472.1694.3388.5157.5528.8944.5528h6c.3148,0,.6111-.1482.8-.4l6-8c.2273-.303.2638-.7084.0944-1.0472-.1694-.3388-.5157-.5528-.8944-.5528h0Zm0,2h.005-.005Z" />
    </symbol>

    <symbol id="x" viewBox="0 0 18 18">
        <path d="m6,12l2.2827-3.1356-2.1104-2.8644h1.2775l.9334,1.3212c.1051.1567.2173.3185.337.4873s.2371.3396.3516.5124h.0578c.1051-.1728.2103-.3436.3154-.5124s.2103-.3305.316-.4873l.8464-1.3212h1.2348l-2.1098,2.9749,2.2675,3.0251h-1.2769l-1.0193-1.3955c-.1244-.1808-.2512-.3617-.3808-.5425-.1291-.1808-.2558-.3587-.3803-.5315h-.0572c-.1244.1728-.2442.3486-.3592.5255-.1145.1768-.2296.3597-.344.5486l-.9474,1.3955h-1.2348Z" />
    </symbol>

    <symbol id="y" viewBox="0 0 18 18">
        <path d="m7.0565,14c-.1444,0-.2822-.0112-.4133-.0347-.1306-.0225-.2502-.0496-.3588-.0806l.2436-.7363c.0816.0225.1626.0403.2441.0515.081.0112.1576.0178.2304.0178.3792,0,.6883-.1133.9275-.34s.4266-.5124.5621-.8571l.1488-.415-2.6409-5.6056h1.1513l1.3409,3.097c.1086.2379.2166.4946.3252.771.108.2763.2116.5452.3114.8056h.054c.0992-.2604.1967-.5274.2915-.8s.1824-.5311.264-.7766l1.1783-3.097h1.0835l-2.4784,6.0553c-.1538.3681-.3389.6998-.5555.9948-.2166.296-.4789.5283-.7853.697-.3075.1686-.6823.2529-1.1243.2529Z" />
    </symbol>

    <symbol id="w" viewBox="0 0 18 18">
        <path d="m6.6097,12l-1.6097-6h1.0251l.8466,3.4692c.0636.2718.1232.5435.179.8148.0553.2713.1072.5676.1548.8881h.048c.0636-.3205.1252-.6169.1848-.8881.0592-.2713.1208-.543.1848-.8148l.8582-3.4692h1.0731l.8703,3.4692c.0718.2718.1368.5435.197.8148.0592.2713.1213.5676.1844.8881h.0475c.064-.3205.1232-.6169.1795-.8881.0553-.2713.1106-.543.1669-.8148l.8461-3.4692h.9538l-1.5622,6h-1.275l-.7753-3.21c-.064-.2798-.1252-.5576-.1853-.8334-.0592-.2753-.1213-.5903-.1844-.9444h-.0475c-.0563.3542-.1135.6711-.1727.9509-.0602.2798-.1252.5556-.197.8269l-.7753,3.21h-1.2158Z" />
    </symbol>

    <symbol id="h" viewBox="0 0 18 18">
        <path d="m6,13V5h1s-.0382,3.2584-.0382,3.2584c.2997-.2469.6682-.4138.9987-.5898.3295-.176.7081-.2643,1.1369-.2643.66,0,1.1421.182,1.4455.545.3044.3635.4571.8934.4571,1.5901v3.4605h-1.0543v-3.3371c0-.5171-.092-.8892-.2761-1.1178s-.4864-.3429-.9058-.3429c-.318,0-.6024.0713-.8556.2135-.2521.1422-.5914.3072-.9083.5843v4h-1Z" />
    </symbol>

    <symbol id="x1" viewBox="0 0 18 18">
        <path d="m4,12l2.2827-3.1356-2.1104-2.8644h1.2775l.9334,1.3212c.1051.1567.2173.3185.337.4873s.2371.3396.3516.5124h.0578c.1051-.1728.2103-.3436.3154-.5124s.2103-.3305.316-.4873l.8464-1.3212h1.2348l-2.1098,2.9749,2.2675,3.0251h-1.2769l-1.0193-1.3955c-.1244-.1808-.2512-.3617-.3808-.5425-.1291-.1808-.2558-.3587-.3803-.5315h-.0572c-.1244.1728-.2442.3486-.3592.5255-.1145.1768-.2296.3597-.344.5486l-.9474,1.3955h-1.2348Z"/>
        <path d="m11.5918,14v-.752h1.1357v-3.3438h-.9355v-.5762c.251-.0488.4697-.1055.6562-.1719s.3594-.1484.5195-.2441h.6885v4.3359h1v.752h-3.0645Z"/>
    </symbol>

    <symbol id="x2" viewBox="0 0 18 18">
        <path d="m4,12l2.2827-3.1356-2.1104-2.8644h1.2775l.9334,1.3212c.1051.1567.2173.3185.337.4873s.2371.3396.3516.5124h.0578c.1051-.1728.2103-.3436.3154-.5124s.2103-.3305.316-.4873l.8464-1.3212h1.2348l-2.1098,2.9749,2.2675,3.0251h-1.2769l-1.0193-1.3955c-.1244-.1808-.2512-.3617-.3808-.5425-.1291-.1808-.2558-.3587-.3803-.5315h-.0572c-.1244.1728-.2442.3486-.3592.5255-.1145.1768-.2296.3597-.344.5486l-.9474,1.3955h-1.2348Z"/>
        <path d="m11.3037,14v-.5684c.4697-.4375.876-.8359,1.2207-1.1953.3438-.3604.6104-.6885.7998-.9844s.2842-.5723.2842-.8281c0-.2715-.0713-.4863-.2119-.644-.1416-.1572-.3516-.2358-.6289-.2358-.1973,0-.377.0562-.54.168-.1621.1123-.3125.2456-.4512.3994l-.4961-.4873c.2285-.2559.4688-.4546.7197-.5962.251-.1411.5469-.2119.8877-.2119.3252,0,.6084.064.8486.1919.2393.1284.4268.3081.5596.54.1338.2319.2002.5049.2002.8203,0,.3145-.0869.626-.2598.9365-.1738.3086-.4072.625-.7002.9473-.2939.3223-.6191.6621-.9766,1.0195.1338-.0156.2793-.0293.4365-.0391.1572-.0117.2969-.0166.4199-.0166h1.3281v.7842h-3.4404Z"/>
    </symbol>

    <symbol id="y1" viewBox="0 0 18 18">
        <path d="m5.0565,14c-.1444,0-.2822-.0112-.4133-.0347-.1306-.0225-.2502-.0496-.3588-.0806l.2436-.7363c.0816.0225.1626.0403.2441.0515.081.0112.1576.0178.2304.0178.3792,0,.6883-.1133.9275-.34s.4266-.5124.5621-.8571l.1488-.415-2.6409-5.6056h1.1513l1.3409,3.097c.1086.2379.2166.4946.3252.771.108.2763.2116.5452.3114.8056h.054c.0992-.2604.1967-.5274.2915-.8s.1824-.5311.264-.7766l1.1783-3.097h1.0835l-2.4784,6.0553c-.1538.3681-.3389.6998-.5555.9948-.2166.296-.4789.5283-.7853.697-.3075.1686-.6823.2529-1.1243.2529Z"/>
        <path d="m11.5918,14v-.752h1.1357v-3.3438h-.9355v-.5762c.251-.0488.4697-.1055.6562-.1719s.3594-.1484.5195-.2441h.6885v4.3359h1v.752h-3.0645Z"/>
    </symbol>

    <symbol id="y2" viewBox="0 0 18 18">
        <path d="m5.0565,14c-.1444,0-.2822-.0112-.4133-.0347-.1306-.0225-.2502-.0496-.3588-.0806l.2436-.7363c.0816.0225.1626.0403.2441.0515.081.0112.1576.0178.2304.0178.3792,0,.6883-.1133.9275-.34s.4266-.5124.5621-.8571l.1488-.415-2.6409-5.6056h1.1513l1.3409,3.097c.1086.2379.2166.4946.3252.771.108.2763.2116.5452.3114.8056h.054c.0992-.2604.1967-.5274.2915-.8s.1824-.5311.264-.7766l1.1783-3.097h1.0835l-2.4784,6.0553c-.1538.3681-.3389.6998-.5555.9948-.2166.296-.4789.5283-.7853.697-.3075.1686-.6823.2529-1.1243.2529Z"/>
        <path d="m11.3037,14v-.5684c.4697-.4375.876-.8359,1.2207-1.1953.3438-.3604.6104-.6885.7998-.9844s.2842-.5723.2842-.8281c0-.2715-.0713-.4863-.2119-.644-.1416-.1572-.3516-.2358-.6289-.2358-.1973,0-.377.0562-.54.168-.1621.1123-.3125.2456-.4512.3994l-.4961-.4873c.2285-.2559.4688-.4546.7197-.5962.251-.1411.5469-.2119.8877-.2119.3252,0,.6084.064.8486.1919.2393.1284.4268.3081.5596.54.1338.2319.2002.5049.2002.8203,0,.3145-.0869.626-.2598.9365-.1738.3086-.4072.625-.7002.9473-.2939.3223-.6191.6621-.9766,1.0195.1338-.0156.2793-.0293.4365-.0391.1572-.0117.2969-.0166.4199-.0166h1.3281v.7842h-3.4404Z"/>
    </symbol>

    <symbol id="connected" viewBox="0 0 18 18">
        <path d="m9,7.5c.3879,0,.684.1528.864.281l.2073.1476.1476.2073c.1282.1801.281.4762.281.864,0,.8271-.6729,1.5-1.5,1.5-.3879,0-.684-.1528-.8641-.281l-.2073-.1476-.1476-.2073c-.1282-.1801-.281-.4762-.281-.8641,0-.8271.6729-1.5,1.5-1.5m7.5-6.5c-.1279,0-.2559.0488-.3535.1465l-5.4125,5.4125c-.4904-.3491-1.0862-.559-1.7339-.559-1.6569,0-3,1.3431-3,3,0,.6477.21,1.2436.559,1.734l-5.4125,5.4125c-.1953.1953-.1953.5117,0,.707.0977.0977.2256.1465.3535.1465s.2559-.0488.3535-.1465l5.4125-5.4125c.4904.3491,1.0862.559,1.734.559,1.6569,0,3-1.3431,3-3,0-.6477-.21-1.2436-.559-1.7339l5.4125-5.4125c.1953-.1953.1953-.5117,0-.707-.0977-.0977-.2256-.1465-.3535-.1465h0Z"/>
    </symbol>

    <symbol id="disconnected" viewBox="0 0 18 18">
        <path d="m5,10c-1.6569,0-3,1.3431-3,3,0,.6477.21,1.2436.559,1.7339l-1.4125,1.4125c-.1953.1953-.1953.5117,0,.707.0977.0977.2256.1465.3535.1465s.2559-.0488.3535-.1465l1.4125-1.4125c.4904.3491,1.0862.559,1.7339.559,1.6569,0,3-1.3431,3-3s-1.3431-3-3-3Zm0,4.5c-.8271,0-1.5-.6729-1.5-1.5s.6729-1.5,1.5-1.5,1.5.6729,1.5,1.5-.6729,1.5-1.5,1.5Z"/>
        <path d="m16.8535,1.1465c-.1953-.1953-.5117-.1953-.707,0l-1.4125,1.4125c-.4904-.3491-1.0862-.559-1.7339-.559-1.6569,0-3,1.3431-3,3s1.3431,3,3,3,3-1.3431,3-3c0-.6477-.21-1.2436-.559-1.7339l1.4125-1.4125c.1953-.1953.1953-.5117,0-.707Zm-3.8535,5.3535c-.8271,0-1.5-.6729-1.5-1.5s.6729-1.5,1.5-1.5,1.5.6729,1.5,1.5-.6729,1.5-1.5,1.5Z"/>
    </symbol>

    <symbol id="r1" viewBox="0 0 18 18">
        <path d="m11.5918,14v-.752h1.1357v-3.3438h-.9355v-.5762c.251-.0488.4697-.1055.6562-.1719s.3594-.1484.5195-.2441h.6885v4.3359h1v.752h-3.0645,0Z"/>
        <path d="m9.3652,5.6436v.8276c-.0713,0-.1436-.0122-.2031-.0122-1.3193,0-2.123.8398-2.123,2.3267v3.2144h-.8516v-6.3086h.8154v1.2354c.3955-.8394,1.1992-1.2832,2.3623-1.2832Z"/>
    </symbol>

    <symbol id="r2" viewBox="0 0 18 18">
        <path d="m9.3652,5.6436v.8276c-.0713,0-.1436-.0122-.2031-.0122-1.3193,0-2.123.8398-2.123,2.3267v3.2144h-.8516v-6.3086h.8154v1.2354c.3955-.8394,1.1992-1.2832,2.3623-1.2832Z"/>
        <path d="m11.3037,14v-.5684c.4697-.4365.876-.8359,1.2207-1.1953.3438-.3604.6104-.6885.7998-.9844s.2842-.5723.2842-.8281c0-.2715-.0713-.4863-.2119-.6436-.1416-.1572-.3516-.2363-.6289-.2363-.1973,0-.377.0557-.54.168-.1621.1123-.3125.2451-.4512.4004l-.4961-.4883c.2285-.2559.4688-.4551.7197-.5957.251-.1416.5469-.2119.8877-.2119.3252,0,.6084.0635.8486.1914.2393.1279.4268.3086.5596.54.1338.2324.2002.5059.2002.8203s-.0869.627-.2598.9355c-.1738.3096-.4072.626-.7002.9482-.2939.3232-.6191.6631-.9766,1.0205.1338-.0166.2793-.0293.4365-.04s.2969-.0166.4199-.0166h1.3281v.7842h-3.4404Z"/>
    </symbol>

    <symbol id="save-as" viewBox="0 0 18 18">
        <path d="m5,15v-7h3.9267c.9816-.7805,2.2217-1.25,3.5733-1.25,1.3187,0,2.53.4487,3.5,1.1952v-3.4452c.0001-.1326-.0524-.2597-.146-.3535,0,0-2.0075-2-2.073-2.057-.0821-.0583-.1803-.0896-.281-.0895h-.5v4h-6V2H2.5c-.2761,0-.5.2238-.5.5v13c0,.2761.2239.5.5.5h5.4452c-.2386-.31-.4451-.6446-.6172-1h-2.328Z"/>
        <path d="m12.55,8.1c-2.4576,0-4.45,1.9924-4.45,4.45s1.9924,4.45,4.45,4.45,4.45-1.9924,4.45-4.45-1.9923-4.45-4.45-4.45Zm2.5,4.7c0,.1381-.1119.25-.25.25h-1.75v1.75c0,.1381-.1119.25-.25.25h-.5c-.1381,0-.25-.1119-.25-.25v-1.75h-1.75c-.1381,0-.25-.1119-.25-.25v-.5c0-.1381.1119-.25.25-.25h1.75v-1.75c0-.1381.1119-.25.25-.25h.5c.1381,0,.25.1119.25.25v1.75h1.75c.1381,0,.25.1119.25.25v.5Z"/>
    </symbol>

    <symbol id="copy" viewBox="0 0 18 18">
        <path d="M11,2H3C2.5,2,2,2.5,2,3v8c0,0.6,0.5,1,1,1h1v-1H3V3h8v1h1V3C12,2.5,11.6,2,11,2z"/>
        <path d="M15,6H7C6.4,6,6,6.4,6,7v8c0,0.6,0.4,1,1,1h8c0.6,0,1-0.4,1-1V7C16,6.4,15.6,6,15,6z"/>
    </symbol>

    <symbol id="arrow-up-right" viewBox="0 0 18 18">
        <path d="M15.9496,5.5908l-2.7562-3.4956c-.1-.1269-.287-.1269-.387,0l-2.7538,3.4926c-.1309,.1714-.0028,.4123,.2192,.4123h2.0778c-.2624,4.936-4.349,8.875-9.3497,8.875h-.5c-.3452,0-.625,.2803-.625,.625s.2798,.625,.625,.625h.5c5.6896,0,10.3359-4.4994,10.5997-10.125h2.1284c.2202,0,.3488-.2374,.2216-.4092Z"/>
    </symbol>

    <symbol id="lottie" viewBox="0 0 18 18">
        <path d="M2.6362,16.2305h-.0156c-.4141-.002-.7485-.3389-.7471-.7529,.0015-.4131,.3369-.7471,.75-.7471h.0117c2.2446,0,4.0078-3.1006,5.7129-6.0996,1.9233-3.3828,3.9126-6.8809,7.0483-6.8809,.4141,0,.75,.3359,.75,.75s-.3359,.75-.75,.75c-2.2627,0-4.0332,3.1123-5.7441,6.1221-1.9175,3.3721-3.8999,6.8584-7.0161,6.8584Z"/>
    </symbol>
</svg>
