<svg xmlns="http://www.w3.org/2000/svg" style="height: 0; width: 0; position: absolute; visibility: hidden;">
    <symbol id="FolderOpen" viewBox="0 0 18 18">
        <path d="M15,7V4.5a.5.5,0,0,0-.5-.5l-6.166.004-1.65-1.7A1,1,0,0,0,5.9645,2H2A1,1,0,0,0,1,3V14.5a.5.5,0,0,0,.5.5H14.6535a.5.5,0,0,0,.468-.3245l2.625-7A.5.5,0,0,0,17.2785,7ZM2,3H5.9645L7.617,4.7l.295.3035h.4225L14,5V7H4.3465a.5.5,0,0,0-.468.3245L2,12.3335Z"/>
    </symbol>
    <symbol id="Folder" viewBox="0 0 18 18">
        <path d="M16.5,4l-7.166.004-1.65-1.7A1,1,0,0,0,6.9645,2H2A1,1,0,0,0,1,3V14.5a.5.5,0,0,0,.5.5h15a.5.5,0,0,0,.5-.5V4.5A.5.5,0,0,0,16.5,4ZM2,3H6.9645L8.908,5H2Z" />
    </symbol>
    <symbol id="SaveFloppy" viewBox="0 0 18 18">
        <path d="M15.854,4.1465s-2.0075-2-2.073-2.057A.48449.48449,0,0,0,13.5,2H13V6H7V2H2.5a.5.5,0,0,0-.5.5v13a.5.5,0,0,0,.5.5h13a.5.5,0,0,0,.5-.5V4.5A.5.5,0,0,0,15.854,4.1465ZM13,15H5V8h8Z"/>
    </symbol>
    <symbol id="SaveAsFloppy" viewBox="0 0 18 18">
        <rect height="3" width="2" x="10" y="1" />
        <path d="M7.8845,16H4V8h6.76A6.12,6.12,0,0,1,17,8.4465V4.21a.5.5,0,0,0-.146-.3535s-2.7125-2.711-2.7785-2.7675A.48352.48352,0,0,0,13.7945,1H13V5H6V1H1.5a.5.5,0,0,0-.5.5v15a.5.5,0,0,0,.5.5H8.446A6.12753,6.12753,0,0,1,7.8845,16Z" />
        <path d="M13.5,9.05a4.45,4.45,0,1,0,4.45,4.45A4.45,4.45,0,0,0,13.5,9.05Zm2.5,4.7a.25.25,0,0,1-.25.25H14v1.75a.25.25,0,0,1-.25.25h-.5a.25.25,0,0,1-.25-.25V14H11.25a.25.25,0,0,1-.25-.25v-.5a.25.25,0,0,1,.25-.25H13V11.25a.25.25,0,0,1,.25-.25h.5a.25.25,0,0,1,.25.25V13h1.75a.25.25,0,0,1,.25.25Z" />
    </symbol>
    <symbol id="Undo" viewBox="0 0 18 18">
        <path d="M15.3315,6.271A5.19551,5.19551,0,0,0,11.8355,5H5.5V2.4A.4.4,0,0,0,5.1,2a.39352.39352,0,0,0-.2635.1L1.072,5.8245a.25.25,0,0,0,0,.35L4.834,9.9a.39352.39352,0,0,0,.2635.1.4.4,0,0,0,.4-.4V7h6.441A3.06949,3.06949,0,0,1,15.05,9.9a2.9445,2.9445,0,0,1-2.78274,3.09783Q12.13375,13.005,12,13H8.5a.5.5,0,0,0-.5.5v1a.5.5,0,0,0,.5.5h3.263a5.16751,5.16751,0,0,0,5.213-4.5065A4.97351,4.97351,0,0,0,15.3315,6.271Z"/>
    </symbol>
    <symbol id="Redo" viewBox="0 0 18 18">
        <path d="M2.6685,6.271A5.19551,5.19551,0,0,1,6.1645,5H12.5V2.4a.4.4,0,0,1,.4-.4.39352.39352,0,0,1,.2635.1l3.762,3.7225a.25.25,0,0,1,0,.35L13.166,9.9a.39352.39352,0,0,1-.2635.1.4.4,0,0,1-.4-.4V7H6.0615A3.06949,3.06949,0,0,0,2.95,9.9a2.9445,2.9445,0,0,0,2.78274,3.09783Q5.86626,13.005,6,13H9.5a.5.5,0,0,1,.5.5v1a.5.5,0,0,1-.5.5H6.237a5.16751,5.16751,0,0,1-5.213-4.5065A4.97349,4.97349,0,0,1,2.6685,6.271Z"/>
    </symbol>
    <symbol id="AlignLeft" viewBox="0 0 18 18">
        <rect height="18" rx="0.25" width="1" x="1" />
        <rect height="5" rx="0.5" width="13" x="3" y="10" />
        <rect height="5" rx="0.5" width="8" x="3" y="3" />
    </symbol>
    <symbol id="AlignCenter" viewBox="0 0 18 18">
        <path d="M14.5,10H9V8h3.5a.5.5,0,0,0,.5-.5v-4a.5.5,0,0,0-.5-.5H9V.25A.25.25,0,0,0,8.75,0h-.5A.25.25,0,0,0,8,.25V3H4.5a.5.5,0,0,0-.5.5v4a.5.5,0,0,0,.5.5H8v2H2.5a.5.5,0,0,0-.5.5v4a.5.5,0,0,0,.5.5H8v2.75a.25.25,0,0,0,.25.25h.5A.25.25,0,0,0,9,17.75V15h5.5a.5.5,0,0,0,.5-.5v-4A.5.5,0,0,0,14.5,10Z" />
    </symbol>
    <symbol id="AlignRight" viewBox="0 0 18 18">
        <rect height="18" rx="0.25" width="1" x="16" />
        <rect height="5" rx="0.5" width="13" x="2" y="10" />
        <rect height="5" rx="0.5" width="8" x="7" y="3" />
    </symbol>
    <symbol id="AlignTop" viewBox="0 0 18 18">
        <rect height="1" rx="0.25" width="18" y="1" />
        <rect height="13" rx="0.5" width="5" x="3" y="3" />
        <rect height="8" rx="0.5" width="5" x="10" y="3" />
    </symbol>
    <symbol id="AlignMiddle" viewBox="0 0 18 18">
        <path d="M17.75,8H15V4.5a.5.5,0,0,0-.5-.5h-4a.5.5,0,0,0-.5.5V8H8V2.5A.5.5,0,0,0,7.5,2h-4a.5.5,0,0,0-.5.5V8H.25A.25.25,0,0,0,0,8.25v.5A.25.25,0,0,0,.25,9H3v5.5a.5.5,0,0,0,.5.5h4a.5.5,0,0,0,.5-.5V9h2v3.5a.5.5,0,0,0,.5.5h4a.5.5,0,0,0,.5-.5V9h2.75A.25.25,0,0,0,18,8.75v-.5A.25.25,0,0,0,17.75,8Z" />
    </symbol>
    <symbol id="AlignBottom" viewBox="0 0 18 18">
        <rect height="13" rx="0.5" width="5" x="3" y="2" />
        <rect height="8" rx="0.5" width="5" x="10" y="7" />
        <rect height="1" rx="0.25" width="18" y="16" />
    </symbol>
    <symbol id="DistributeHorizontally" viewBox="0 0 18 18">
        <rect height="12" rx="0.5" width="6" x="6" y="3" />
        <rect height="18" rx="0.25" width="1" x="2" />
        <rect height="18" rx="0.25" width="1" x="15" />
    </symbol>
    <symbol id="DistributeVertically" viewBox="0 0 18 18">
        <rect height="6" rx="0.5" width="12" x="3" y="6" />
        <rect height="1" rx="0.25" width="18" y="15" />
        <rect height="1" rx="0.25" width="18" y="2" />
    </symbol>
    <symbol id="ChevronRight" viewBox="0 0 18 18">
        <path d="M12,9a.994.994,0,0,1-.2925.7045l-3.9915,3.99a1,1,0,1,1-1.4355-1.386l.0245-.0245L9.5905,9,6.3045,5.715A1,1,0,0,1,7.691,4.28l.0245.0245,3.9915,3.99A.994.994,0,0,1,12,9Z" />
    </symbol>
    <symbol id="ChevronDown" viewBox="0 0 18 18">
        <path d="M4,7.01a1,1,0,0,1,1.7055-.7055l3.289,3.286,3.289-3.286a1,1,0,0,1,1.437,1.3865l-.0245.0245L9.7,11.7075a1,1,0,0,1-1.4125,0L4.293,7.716A.9945.9945,0,0,1,4,7.01Z" />
    </symbol>
    <symbol id="ChevronUp" viewBox="0 0 18 18">
        <path d="M14,10.99a1,1,0,0,1-1.7055.7055l-3.289-3.286-3.289,3.286a1,1,0,0,1-1.437-1.3865l.0245-.0245L8.3,6.2925a1,1,0,0,1,1.4125,0L13.707,10.284A.9945.9945,0,0,1,14,10.99Z" />
    </symbol>
    <symbol id="ChevronLeft" viewBox="0 0 18 18">
        <path d="M6,9a.994.994,0,0,0,.2925.7045l3.9915,3.99a1,1,0,1,0,1.4355-1.386l-.0245-.0245L8.4095,9l3.286-3.285A1,1,0,0,0,10.309,4.28l-.0245.0245L6.293,8.2945A.994.994,0,0,0,6,9Z" />
    </symbol>
    <symbol id="Refresh" viewBox="0 0 18 18">
        <path d="M16.337,10H15.39a.6075.6075,0,0,0-.581.469A5.7235,5.7235,0,0,1,5.25,13.006l-.346-.3465L6.8815,10.682A.392.392,0,0,0,7,10.4a.4.4,0,0,0-.377-.4H1.25a.25.25,0,0,0-.25.25v5.375A.4.4,0,0,0,1.4,16a.3905.3905,0,0,0,.28-.118l1.8085-1.8085.178.1785a8.09048,8.09048,0,0,0,3.642,2.1655,7.715,7.715,0,0,0,9.4379-5.47434q.04733-.178.0861-.35816A.5.5,0,0,0,16.337,10Z" />
        <path d="M16.6,2a.3905.3905,0,0,0-.28.118L14.5095,3.9265l-.178-.1765a8.09048,8.09048,0,0,0-3.642-2.1655A7.715,7.715,0,0,0,1.25269,7.06072q-.04677.17612-.08519.35428A.5.5,0,0,0,1.663,8H2.61a.6075.6075,0,0,0,.581-.469A5.7235,5.7235,0,0,1,12.75,4.994l.346.3465L11.1185,7.318A.392.392,0,0,0,11,7.6a.4.4,0,0,0,.377.4H16.75A.25.25,0,0,0,17,7.75V2.377A.4.4,0,0,0,16.6,2Z" />
    </symbol>

    <symbol id="LockClosed" viewBox="0 0 18 18">
        <path d="M14.5,8H14V7A5,5,0,0,0,4,7V8H3.5a.5.5,0,0,0-.5.5v8a.5.5,0,0,0,.5.5h11a.5.5,0,0,0,.5-.5v-8A.5.5,0,0,0,14.5,8ZM6,7a3,3,0,0,1,6,0V8H6Zm4,6.111V14.5a.5.5,0,0,1-.5.5h-1a.5.5,0,0,1-.5-.5V13.111a1.5,1.5,0,1,1,2,0Z" />
    </symbol>

    <symbol id="LockOpen" viewBox="0 0 18 18">
        <path d="M14.5,8H5.95V5.1765A3.1065,3.1065,0,0,1,8.9852,2.0003L9,2a3.0715,3.0715,0,0,1,2.754,1.7095c.155.3195.133.573.3885.573a.2541.2541,0,0,0,.093-.018L13.576,3.73a.25649.25649,0,0,0,.161-.2355A4.96,4.96,0,0,0,9,.05,5.16306,5.16306,0,0,0,4,5.146V8H3.5a.5.5,0,0,0-.5.5v8a.5.5,0,0,0,.5.5h11a.5.5,0,0,0,.5-.5v-8A.5.5,0,0,0,14.5,8ZM10,13.111V14.5a.5.5,0,0,1-.5.5h-1a.5.5,0,0,1-.5-.5V13.111a1.5,1.5,0,1,1,2,0Z" />
    </symbol>

    <symbol id="Visibility" viewBox="0 0 18 18">
        <path d="M12.3065,4.29A7.48591,7.48591,0,0,0,9,3.4685c-4.332,0-7.875,4.3125-7.875,5.7115,0,1.5,3.729,5.35,7.843,5.35,4.15,0,7.907-3.853,7.907-5.35C16.875,8,14.768,5.5095,12.3065,4.29ZM9,13.6125A4.6125,4.6125,0,1,1,13.6125,9,4.6125,4.6125,0,0,1,9,13.6125Z" />
        <path d="M10.3335,9.0415A1.3335,1.3335,0,0,1,9,7.7085a1.316,1.316,0,0,1,.675-1.135A2.46964,2.46964,0,0,0,9,6.469a2.5315,2.5315,0,1,0,2.5315,2.5315V9a2.35682,2.35682,0,0,0-.0875-.6A1.3125,1.3125,0,0,1,10.3335,9.0415Z" />
    </symbol>

    <symbol id="VisibilityOff" viewBox="0 0 18 18">
        <path d="M7.2865,4.72A4.6075,4.6075,0,0,1,13.28,10.7135l1.4725,1.4725C16.05,11.0915,16.875,9.88,16.875,9.18c0-1.182-2.107-3.6705-4.5685-4.89A7.48591,7.48591,0,0,0,9,3.4685a7.18,7.18,0,0,0-2.4945.4705Z" />
        <path d="M16.897,16.029l-5.733-5.733A2.511,2.511,0,0,0,11.531,9a2.35608,2.35608,0,0,0-.087-.6,1.31249,1.31249,0,0,1-1.1105.639A1.3335,1.3335,0,0,1,9,7.7085a1.316,1.316,0,0,1,.675-1.135A2.47276,2.47276,0,0,0,9,6.469a2.511,2.511,0,0,0-1.296.367L1.971,1.103a.40949.40949,0,0,0-.5785,0l-.289.2895a.4085.4085,0,0,0-.00079.57771L1.1035,1.971l3.173,3.173c-1.908,1.37-3.15,3.209-3.15,4.036,0,1.5,3.729,5.35,7.843,5.35a8.2275,8.2275,0,0,0,3.722-.974l3.3395,3.3395a.40851.40851,0,0,0,.57771.0008l.00079-.0008.289-.289A.409.409,0,0,0,16.897,16.029ZM9,13.6125A4.6,4.6,0,0,1,5.3395,6.207l1.497,1.497A2.50409,2.50409,0,0,0,6.469,9a2.531,2.531,0,0,0,2.5305,2.5315H9a2.50447,2.50447,0,0,0,1.296-.368l1.497,1.497A4.572,4.572,0,0,1,9,13.6125Z" />
    </symbol>

    <symbol id="AddToSelection" viewBox="0 0 18 18">
        <path d="M12.08,2.7215l.514-.8885a7.97354,7.97354,0,0,0-2.7-.803V2.063A6.94168,6.94168,0,0,1,12.08,2.7215Z" />
        <path d="M14.765,5.033l.9-.5175a8.06649,8.06649,0,0,0-1.926-1.985l-.519.894A7.03319,7.03319,0,0,1,14.765,5.033Z" />
        <path d="M15.9665,8.3315H17a7.95519,7.95519,0,0,0-.6895-2.6455L15.415,6.2A6.95,6.95,0,0,1,15.9665,8.3315Z" />
        <path d="M15.9665,9.6685a6.95,6.95,0,0,1-.55,2.129l.8955.516A7.95513,7.95513,0,0,0,17,9.6685Z" />
        <path d="M13.22,14.5755l.5165.894a8.06544,8.06544,0,0,0,1.926-1.985l-.9-.5175A7.033,7.033,0,0,1,13.22,14.5755Z" />
        <path d="M9.8925,15.937V16.97a7.97354,7.97354,0,0,0,2.7-.803l-.5125-.8885A6.94146,6.94146,0,0,1,9.8925,15.937Z" />
        <path d="M6.269,15.447l-.514.8885A7.99637,7.99637,0,0,0,8.5535,17V15.9775A6.96845,6.96845,0,0,1,6.269,15.447Z" />
        <path d="M3.3695,13.1465l-.9.5175a8.06609,8.06609,0,0,0,2.107,2.031l.513-.8875A7.03548,7.03548,0,0,1,3.3695,13.1465Z" />
        <path d="M2.0335,9.6685H1a7.94984,7.94984,0,0,0,.787,2.847L2.6825,12A6.94449,6.94449,0,0,1,2.0335,9.6685Z" />
        <path d="M2.6825,6,1.787,5.4845A7.94984,7.94984,0,0,0,1,8.3315H2.0335A6.94449,6.94449,0,0,1,2.6825,6Z" />
        <path d="M5.092,3.192l-.513-.8875a8.06609,8.06609,0,0,0-2.107,2.031l.9.5175A7.03639,7.03639,0,0,1,5.092,3.192Z" />
        <path d="M8.5535,2.0225V1a7.99514,7.99514,0,0,0-2.8.6645l.5135.8885A6.96854,6.96854,0,0,1,8.5535,2.0225Z" />
        <path d="M14,9.5a.5.5,0,0,1-.5.5H10v3.5a.5.5,0,0,1-.5.5h-1a.5.5,0,0,1-.5-.5V10H4.5A.5.5,0,0,1,4,9.5v-1A.5.5,0,0,1,4.5,8H8V4.5A.5.5,0,0,1,8.5,4h1a.5.5,0,0,1,.5.5V8h3.5a.5.5,0,0,1,.5.5Z" />
    </symbol>
    <symbol id="AddCircle" viewBox="0 0 18 18">
        <path d="M9,1a8,8,0,1,0,8,8A8,8,0,0,0,9,1Zm5,8.5a.5.5,0,0,1-.5.5H10v3.5a.5.5,0,0,1-.5.5h-1a.5.5,0,0,1-.5-.5V10H4.5A.5.5,0,0,1,4,9.5v-1A.5.5,0,0,1,4.5,8H8V4.5A.5.5,0,0,1,8.5,4h1a.5.5,0,0,1,.5.5V8h3.5a.5.5,0,0,1,.5.5Z" />
    </symbol>
    <symbol id="Add" viewBox="0 0 18 18">
        <path d="M14.5,8H10V3.5A.5.5,0,0,0,9.5,3h-1a.5.5,0,0,0-.5.5V8H3.5a.5.5,0,0,0-.5.5v1a.5.5,0,0,0,.5.5H8v4.5a.5.5,0,0,0,.5.5h1a.5.5,0,0,0,.5-.5V10h4.5a.5.5,0,0,0,.5-.5v-1A.5.5,0,0,0,14.5,8Z" />
    </symbol>
    <symbol id="Filter" viewBox="0 0 18 18">
        <path d="M15.473,1H1.527a.5.5,0,0,0-.3935.8085L7,9.2945V16.95a.496.496,0,0,0,.84.412l1.9905-2.0765A.60949.60949,0,0,0,10,14.864V9.2945l5.8665-7.486A.5.5,0,0,0,15.473,1Z" />
    </symbol>
    <symbol id="FilterCheck" viewBox="0 0 18 18">
        <path d="M7.4,13.5A6.573,6.573,0,0,1,9,9.2945c1.0415-1.347,5.8665-7.486,5.8665-7.486A.5.5,0,0,0,14.473,1H.527a.5.5,0,0,0-.3935.8085L6,9.2945V16.95a.496.496,0,0,0,.84.4125L8.009,16.143A6.06548,6.06548,0,0,1,7.4,13.5Z" />
        <path d="M13.5,9.05a4.45,4.45,0,1,0,4.45,4.45A4.45,4.45,0,0,0,13.5,9.05Zm-1.169,7.156-2.064-2.0635a.25.25,0,0,1,0-.3535l.518-.518a.25.25,0,0,1,.3535,0l1.3655,1.3655,3.053-3.053a.25.25,0,0,1,.3535,0l.5215.5215a.25.25,0,0,1,0,.3535l-3.75,3.75A.25.25,0,0,1,12.331,16.206Z" />
    </symbol>
    <symbol id="More" viewBox="0 0 18 18">
        <circle cx="8.9" cy="9.1" r="1.7" />
        <circle cx="14.75" cy="9.1" r="1.7" />
        <circle cx="3.05" cy="9.1" r="1.7" />
    </symbol>
    <symbol id="Settings" viewBox="0 0 18 18">
        <path d="M16.45,7.8965H14.8945a5.97644,5.97644,0,0,0-.921-2.2535L15.076,4.54a.55.55,0,0,0,.00219-.77781L15.076,3.76l-.8365-.836a.55.55,0,0,0-.77781-.00219L13.4595,2.924,12.357,4.0265a5.96235,5.96235,0,0,0-2.2535-.9205V1.55a.55.55,0,0,0-.55-.55H8.45a.55.55,0,0,0-.55.55V3.106a5.96235,5.96235,0,0,0-2.2535.9205l-1.1-1.1025a.55.55,0,0,0-.77781-.00219L3.7665,2.924,2.924,3.76a.55.55,0,0,0-.00219.77781L2.924,4.54,4.0265,5.643a5.97644,5.97644,0,0,0-.921,2.2535H1.55a.55.55,0,0,0-.55.55V9.55a.55.55,0,0,0,.55.55H3.1055a5.967,5.967,0,0,0,.921,2.2535L2.924,13.4595a.55.55,0,0,0-.00219.77782l.00219.00218.8365.8365a.55.55,0,0,0,.77781.00219L4.5405,15.076,5.643,13.9735a5.96235,5.96235,0,0,0,2.2535.9205V16.45a.55.55,0,0,0,.55.55H9.55a.55.55,0,0,0,.55-.55V14.894a5.96235,5.96235,0,0,0,2.2535-.9205L13.456,15.076a.55.55,0,0,0,.77782.00219L14.236,15.076l.8365-.8365a.55.55,0,0,0,.00219-.77781l-.00219-.00219L13.97,12.357a5.967,5.967,0,0,0,.921-2.2535H16.45a.55.55,0,0,0,.55-.55V8.45a.55.55,0,0,0-.54649-.55349ZM11.207,9A2.207,2.207,0,1,1,9,6.793H9A2.207,2.207,0,0,1,11.207,9Z" />
    </symbol>
    <symbol id="Delete" viewBox="0 0 18 18">
        <path d="M15.75,3H12V2a1,1,0,0,0-1-1H6A1,1,0,0,0,5,2V3H1.25A.25.25,0,0,0,1,3.25v.5A.25.25,0,0,0,1.25,4h1L3.4565,16.55a.5.5,0,0,0,.5.45H13.046a.5.5,0,0,0,.5-.45L14.75,4h1A.25.25,0,0,0,16,3.75v-.5A.25.25,0,0,0,15.75,3ZM5.5325,14.5a.5.5,0,0,1-.53245-.46529L5,14.034l-.5355-8a.50112.50112,0,0,1,1-.067l.5355,8a.5.5,0,0,1-.46486.53283ZM9,14a.5.5,0,0,1-1,0V6A.5.5,0,0,1,9,6ZM11,3H6V2h5Zm1,11.034a.50112.50112,0,0,1-1-.067l.5355-8a.50112.50112,0,1,1,1,.067Z" />
    </symbol>
    <symbol id="Graphic" viewBox="0 0 18 18">
        <path d="M16.5,7H12V.6925a.241.241,0,0,0-.23183-.24983L11.7595.4425H11.75a.247.247,0,0,0-.175.0735L.5455,11.573A.25.25,0,0,0,.7225,12h4.419a3.98211,3.98211,0,0,0,7.3035,3H16.5a.5.5,0,0,0,.5-.5v-7A.5.5,0,0,0,16.5,7ZM2.414,11,11,2.414V7H9.5a.5.5,0,0,0-.5.5V9a3.98351,3.98351,0,0,0-3.4455,2ZM9,16a3,3,0,1,1,3-3A3,3,0,0,1,9,16Z" />
    </symbol>
    <symbol id="ColorPalette" viewBox="0 0 18 18">
        <path d="M11.807,3.0725c-2.1855-.35-4.503,0-4.824,1.046a1.146,1.146,0,0,0,.647,1.454A1.549,1.549,0,0,1,8.1995,7.843a1.41449,1.41449,0,0,1-1.5625.563C4.763,7.9325,2.6905,6.965.9945,8.5785-.55,10.05.079,12.233,1.577,13.421a11.7,11.7,0,0,0,7.2565,2.637c4.793,0,9.0665-2.8255,9.0665-6.558C17.9,5.721,14.316,3.4715,11.807,3.0725Zm-7.46,10.654a1.9,1.9,0,1,1,1.9-1.9A1.9,1.9,0,0,1,4.347,13.7265Zm9.643-8.017a1.25,1.25,0,1,1-1.25,1.25A1.25,1.25,0,0,1,13.99,5.7095Zm-5.351,9.07a1.7805,1.7805,0,1,1,1.7795-1.7825V13A1.78,1.78,0,0,1,8.639,14.7795Zm3.895-.748a1.5035,1.5035,0,1,1,1.501-1.507v.005A1.50249,1.50249,0,0,1,12.534,14.0315ZM15,11.28a1.3375,1.3375,0,1,1,1.337-1.338v.0005A1.337,1.337,0,0,1,15.0005,11.28Z" />
    </symbol>
    <symbol id="Effects" viewBox="0 0 18 18">
        <path d="M17.267,6h-1.65c-.1,0-.1215.039-.1815.118L12.1,9.4265V9.404L10.7185,6.0785C10.698,6.0195,10.678,6,10.5975,6H6.018l.31-1.344c.585-2.6475,1.8-3.1155,2.7605-3.1155a8.96952,8.96952,0,0,1,1.5.375c.0695.023.1165-.023.14-.114l.304-1.324C11.056.409,11.0095.341,10.939.295A7.98216,7.98216,0,0,0,9.1165.0405C6.847.0405,5.209,1.324,4.437,4.7705L4.127,6H1.8695a.1275.1275,0,0,0-.14081.11263L1.7285,6.1145l-.468,1.25-.0065.045c.007.009.038,0,.1.0915H3.5805C3.37,8.527,1.2595,16.35.7685,17.7415c-.047.114,0,.1825.093.1825.1875-.0225,1.267.069,1.8285,0,.1165-.0225.1635-.0455.187-.1595C3.368,16.2805,4.6605,11.791,5.5725,7.5h2.391c.05,0,1.019-.0125,1.55-.063l1.41,2.8115c-1.2295,1.35-2.764,3.2255-4.034,4.6145A.076.076,0,0,0,6.93,15H8.6605c.1,0,2.444-2.7755,3.17-3.695H11.85S13.862,15,13.943,15h1.632c.0805,0,.121-.059.0805-.137-.443-.939-1.929-3.3625-2.4935-4.5365,1.1285-1.213,3.2-3.1135,4.1655-4.1895C17.3885,6.0785,17.368,6,17.267,6Z" />
    </symbol>
    <symbol id="FlipHorizontal" viewBox="0 0 18 18">
        <rect height="1" rx="0.25" width="1" x="8" y="1" />
        <rect height="1" rx="0.25" width="1" x="8" y="3" />
        <rect height="1" rx="0.25" width="1" x="8" y="5" />
        <rect height="1" rx="0.25" width="1" x="8" y="7" />
        <rect height="1" rx="0.25" width="1" x="8" y="9" />
        <rect height="1" rx="0.25" width="1" x="8" y="11" />
        <rect height="1" rx="0.25" width="1" x="8" y="13" />
        <rect height="1" rx="0.25" width="1" x="8" y="15" />
        <path d="M15.138,14.35,10.1,8.9a.505.505,0,0,1,0-.714L15.138,2.65A.505.505,0,0,1,16,3.006V13.994a.505.505,0,0,1-.862.356Z" />
        <path d="M1.9225,4.0395,6.0065,8.461,1.9225,12.95ZM1.522,2.5a.5045.5045,0,0,0-.50849.50048V13.994a.5045.5045,0,0,0,.503.506l.006,0a.4935.4935,0,0,0,.353-.15l5.036-5.5335a.505.505,0,0,0,0-.714L1.8755,2.65A.49451.49451,0,0,0,1.522,2.5Z" />
    </symbol>
    <symbol id="FlipVertical" viewBox="0 0 18 18">
        <rect height="1" rx="0.25" width="1" x="1" y="8" />
        <rect height="1" rx="0.25" width="1" x="3" y="8" />
        <rect height="1" rx="0.25" width="1" x="5" y="8" />
        <rect height="1" rx="0.25" width="1" x="7" y="8" />
        <rect height="1" rx="0.25" width="1" x="9" y="8" />
        <rect height="1" rx="0.25" width="1" x="11" y="8" />
        <rect height="1" rx="0.25" width="1" x="13" y="8" />
        <rect height="1" rx="0.25" width="1" x="15" y="8" />
        <path d="M2.65,15.1245l5.45-5.036a.505.505,0,0,1,.714,0l5.536,5.036a.505.505,0,0,1-.357.862H3.006a.505.505,0,0,1-.356-.862Z" />
        <path d="M12.9605,1.909,8.539,5.993,4.05,1.909ZM14.5,1.5085A.5045.5045,0,0,0,13.99952,1H3.006a.5045.5045,0,0,0-.506.503l0,.006a.4935.4935,0,0,0,.15.353L8.1835,6.9a.505.505,0,0,0,.714,0L14.35,1.862A.49451.49451,0,0,0,14.5,1.5085Z" />
    </symbol>

    <symbol id="AddTo" viewBox="0 0 18 18">
        <path d="M12,6V2.5a.5.5,0,0,0-.5-.5h-9a.5.5,0,0,0-.5.5v9a.5.5,0,0,0,.5.5H6v3.5a.5.5,0,0,0,.5.5h9a.5.5,0,0,0,.5-.5v-9a.5.5,0,0,0-.5-.5Z" />
    </symbol>

    <symbol id="SubtractFrontPath" viewBox="0 0 18 18">
        <path d="M15.5,6H12V2.5a.5.5,0,0,0-.5-.5h-9a.5.5,0,0,0-.5.5v9a.5.5,0,0,0,.5.5H6v3.5a.5.5,0,0,0,.5.5h9a.5.5,0,0,0,.5-.5v-9A.5.5,0,0,0,15.5,6ZM15,15H7V7h8Z" />
    </symbol>

    <symbol id="SubtractBackPath" viewBox="0 0 18 18">
        <path d="M15.5,6H12V2.5a.5.5,0,0,0-.5-.5h-9a.5.5,0,0,0-.5.5v9a.5.5,0,0,0,.5.5H6v3.5a.5.5,0,0,0,.5.5h9a.5.5,0,0,0,.5-.5v-9A.5.5,0,0,0,15.5,6ZM11,11H3V3h8Z" />
    </symbol>

    <symbol id="IntersectOverlap" viewBox="0 0 18 18">
        <path d="M15.5,6H12V2.5a.5.5,0,0,0-.5-.5h-9a.5.5,0,0,0-.5.5v9a.5.5,0,0,0,.5.5H6v3.5a.5.5,0,0,0,.5.5h9a.5.5,0,0,0,.5-.5v-9A.5.5,0,0,0,15.5,6ZM6,6.5V11H3V3h8V6H6.5A.5.5,0,0,0,6,6.5ZM15,15H7V12h5V7h3Z" />
    </symbol>

    <symbol id="ExcludeOverlap" viewBox="0 0 18 18">
        <path d="M12,6V2.5a.5.5,0,0,0-.5-.5h-9a.5.5,0,0,0-.5.5v9a.5.5,0,0,0,.5.5H6V6Z" />
        <path d="M15.5,6H12v6H6v3.5a.5.5,0,0,0,.5.5h9a.5.5,0,0,0,.5-.5v-9A.5.5,0,0,0,15.5,6Z" />
    </symbol>

    <symbol id="DividePath" viewBox="0 0 18 18">
        <rect height="6" width="6" x="6" y="6" />
        <path d="M5,5h7V2.5a.5.5,0,0,0-.5-.5h-9a.5.5,0,0,0-.5.5v9a.5.5,0,0,0,.5.5H5Z" />
        <path d="M15.5,6H13v7H6v2.5a.5.5,0,0,0,.5.5h9a.5.5,0,0,0,.5-.5v-9A.5.5,0,0,0,15.5,6Z" />
    </symbol>

    <symbol id="OutlinePath" viewBox="0 0 18 18">
        <path d="M5.25,11H3V3h8V5.25h1V2.5a.5.5,0,0,0-.5-.5h-9a.5.5,0,0,0-.5.5v9a.5.5,0,0,0,.5.5H5.25Z" />
        <path d="M15.5,6H12.75V7H15v8H7V12.75H6V15.5a.5.5,0,0,0,.5.5h9a.5.5,0,0,0,.5-.5v-9A.5.5,0,0,0,15.5,6Z" />
        <path d="M11,7.75V11H7.75v1H11.5a.5.5,0,0,0,.5-.5V7.75Z" />
        <path d="M10.25,6H6.5a.5.5,0,0,0-.5.5v3.75H7V7h3.25Z" />
    </symbol>

    <symbol id="Group" viewBox="0 0 18 18">
        <path d="M11,7V5.5a.5.5,0,0,0-.5-.5h-5a.5.5,0,0,0-.5.5v5a.5.5,0,0,0,.5.5H7V7Z" />
        <path d="M12.5,8H8v4.5a.5.5,0,0,0,.5.5h4a.5.5,0,0,0,.5-.5v-4A.5.5,0,0,0,12.5,8Z" />
        <path d="M16.5,4a.5.5,0,0,0,.5-.5v-2a.5.5,0,0,0-.5-.5h-2a.5.5,0,0,0-.5.5V2H4V1.5A.5.5,0,0,0,3.5,1h-2a.5.5,0,0,0-.5.5v2a.5.5,0,0,0,.5.5H2V14H1.5a.5.5,0,0,0-.5.5v2a.5.5,0,0,0,.5.5h2a.5.5,0,0,0,.5-.5V16H14v.5a.5.5,0,0,0,.5.5h2a.5.5,0,0,0,.5-.5v-2a.5.5,0,0,0-.5-.5H16V4ZM15,14h-.5a.5.5,0,0,0-.5.5V15H4v-.5a.5.5,0,0,0-.5-.5H3V4h.5A.5.5,0,0,0,4,3.5V3H14v.5a.5.5,0,0,0,.5.5H15Z" />
    </symbol>

    <symbol id="Ungroup" viewBox="0 0 18 18">
        <rect height="3.5" rx="0.5" width="3.5" x="10.25" y="10.25" />
        <path d="M17.75,9A.25.25,0,0,0,18,8.75V6.25A.25.25,0,0,0,17.75,6h-2.5a.25.25,0,0,0-.25.25V7H9V6.25A.25.25,0,0,0,8.75,6H6.25A.25.25,0,0,0,6,6.25v2.5A.25.25,0,0,0,6.25,9H7v6H6.25a.25.25,0,0,0-.25.25v2.5a.25.25,0,0,0,.25.25h2.5A.25.25,0,0,0,9,17.75V17h6v.75a.25.25,0,0,0,.25.25h2.5a.25.25,0,0,0,.25-.25v-2.5a.25.25,0,0,0-.25-.25H17V9ZM16,15h-.75a.25.25,0,0,0-.25.25V16H9v-.75A.25.25,0,0,0,8.75,15H8V9h.75A.25.25,0,0,0,9,8.75V8h6v.75a.25.25,0,0,0,.25.25H16Z" />
        <path d="M5,5.5A.5.5,0,0,1,5.5,5H7.75V4.75a.5.5,0,0,0-.5-.5H4.75a.5.5,0,0,0-.5.5v2.5a.5.5,0,0,0,.5.5H5Z" />
        <path d="M5,10H3V9.25A.25.25,0,0,0,2.75,9H2V3h.75A.25.25,0,0,0,3,2.75V2H9v.75A.25.25,0,0,0,9.25,3H10V5h1V3h.75A.25.25,0,0,0,12,2.75V.25A.25.25,0,0,0,11.75,0H9.25A.25.25,0,0,0,9,.25V1H3V.25A.25.25,0,0,0,2.75,0H.25A.25.25,0,0,0,0,.25v2.5A.25.25,0,0,0,.25,3H1V9H.25A.25.25,0,0,0,0,9.25v2.5A.25.25,0,0,0,.25,12h2.5A.25.25,0,0,0,3,11.75V11H5Z" />
    </symbol>

    <symbol id="PinOff" viewBox="0 0 18 18">
        <polygon points="5.823 10.999 7.012 12.189 1.962 17.203 0 18 0.822 16.013 5.823 10.999" />
        <path d="M11.9775,13.1605,12,10.1445,16.1465,6l1.135-.0115a.7262.7262,0,0,0,.505-1.2395L15.5205,2.48,13.25.2415A.723.723,0,0,0,12.0155.747L12,1.854,7.8535,6,4.841,6.022a.72345.72345,0,0,0-.554,1.233l.001.001,3.2295,3.229,3.2285,3.2295a.721.721,0,0,0,1.2315-.554Z" />
    </symbol>
    <symbol id="PinOn" viewBox="0 0 18 18">
        <path d="M2.823,14l1.1895,1.1905-1.87,1.8345a.25.25,0,0,1-.35355-.002l-.003-.003-.795-.83a.25.25,0,0,1,.004-.35Z" />
        <path d="M8.9775,16.1605,9,13.1445,13.1465,9l1.135-.0115A.72618.72618,0,0,0,14.789,7.749L12.5205,5.48,10.25,3.212a.723.723,0,0,0-1.2345.5055L9,4.854,4.8535,9,1.841,9.022a.72345.72345,0,0,0-.554,1.233l.001.001,3.2295,3.229L7.746,16.7145a.721.721,0,0,0,1.2315-.554Z" />
    </symbol>

    <symbol id="Follow" viewBox="0 0 18 18">
        <path d="M7.044,14.45l-.379.05a1.45,1.45,0,0,1-1.62561-1.25L5.039,13.247l-.15-1.3625,3.258-.4225.15,1.3625a1.45,1.45,0,0,1-1.25052,1.62518ZM5.9725.669C5.135-.3075,4.2-.4,3.5365,1.654c-.98,4.35-.22,6.105,1.161,8.96l3.258-.4225c-.35-2.697.322-3.9075.181-4.993A8.78345,8.78345,0,0,0,5.9725.669Z" />
        <path d="M10.6865,17.916l.377.0635a1.45,1.45,0,0,0,1.67242-1.18659l.00058-.00341.2-1.3295L9.7,14.9135,9.5,16.243a1.45,1.45,0,0,0,1.18592,1.6729ZM12.284,4.185c.8745-.944,1.8165-1,2.3995,1.0775.813,4.3835-.0135,6.109-1.503,8.909L9.938,13.625c.45-2.6815-.172-3.917.01-4.996A8.78449,8.78449,0,0,1,12.284,4.185Z" />
    </symbol>

    <symbol id="FollowOff" viewBox="0 0 18 18">
        <path d="M3.95,14.45l-.379.05a1.45,1.45,0,0,1-1.62561-1.25L1.945,13.247l-.15-1.3625,3.258-.4225.15,1.3625a1.45,1.45,0,0,1-1.25052,1.62518ZM2.8795.669C2.0415-.3075,1.105-.4.443,1.654c-.98,4.35-.22,6.105,1.1615,8.96l3.258-.4225c-.35-2.697.3215-3.9075.181-4.993A8.78449,8.78449,0,0,0,2.8795.669Z" />
        <path d="M6.8445,13.625l.5095.0855c0-.07-.004-.14-.004-.2105a6.15251,6.15251,0,0,1,4.5335-5.935,18.71909,18.71909,0,0,0-.2965-2.3c-.582-2.08-1.5215-2.024-2.396-1.08A8.782,8.782,0,0,0,6.855,8.629C6.673,9.708,7.2975,10.9435,6.8445,13.625Z" />
        <path d="M7.5535,15.0735l-.95-.16-.2,1.3295a1.45,1.45,0,0,0,1.18659,1.67242l.00341.00058.377.0635a1.447,1.447,0,0,0,1.073-.2415A6.13907,6.13907,0,0,1,7.5535,15.0735Z" />
        <path d="M13.5,9.05a4.45,4.45,0,1,0,4.45,4.45A4.45,4.45,0,0,0,13.5,9.05ZM10,13.5a3.46708,3.46708,0,0,1,.7375-2.126l4.8885,4.8885A3.483,3.483,0,0,1,10,13.5Zm6.2625,2.126L11.374,10.7375a3.483,3.483,0,0,1,4.8885,4.8885Z" />
    </symbol>

    <symbol id="Moon" viewBox="0 0 18 18">
        <path d="M9,1a8,8,0,1,0,8,8A8,8,0,0,0,9,1Zm.5,14.982c-.165.0115-.332.018-.5.018A7,7,0,0,1,9,2c.168,0,.335.0065.5.018A11,11,0,0,0,9.5,15.982Z" />
    </symbol>

    <symbol id="Light" viewBox="0 0 18 18">
        <circle cx="9" cy="9" r="3.95" />
        <rect height="3" rx="0.25" width="1.8" x="8.1" />
        <rect height="3" rx="0.25" width="1.8" x="8.1" y="15" />
        <rect height="1.8" rx="0.25" width="3" y="8.1" />
        <rect height="1.8" rx="0.25" width="3" x="15" y="8.1" />
        <rect height="1.8" rx="0.25" transform="translate(1.76808 11.28817) rotate(-45)" width="3" x="13.01006" y="2.60983" />
        <rect height="1.8" rx="0.25" transform="translate(-9.23217 6.73192) rotate(-45)" width="3" x="2.01006" y="13.61017" />
        <rect height="3" rx="0.25" transform="translate(-1.44982 3.49982) rotate(-45)" width="1.8" x="2.59975" y="2" />
        <rect height="3" rx="0.25" transform="translate(-6.00197 14.48997) rotate(-45)" width="1.8" x="13.58995" y="12.99" />
    </symbol>

    <symbol id="ShowMenu" viewBox="0 0 18 18">
        <rect height="2" rx="0.5" width="14" x="2" y="8" />
        <rect height="2" rx="0.5" width="14" x="2" y="3" />
        <rect height="2" rx="0.5" width="14" x="2" y="13" />
    </symbol>

    <symbol id="Duplicate" viewBox="0 0 18 18">
        <path d="M4.5,4H13V1.5a.5.5,0,0,0-.5-.5H1.5a.5.5,0,0,0-.5.5v11a.5.5,0,0,0,.5.5H4V4.5A.5.5,0,0,1,4.5,4Z" />
        <path d="M16.5,5H5.5a.5.5,0,0,0-.5.5v11a.5.5,0,0,0,.5.5h11a.5.5,0,0,0,.5-.5V5.5A.5.5,0,0,0,16.5,5Zm-2,6.75H11.75V14.5h-1.5V11.75H7.5v-1.5h2.75V7.5h1.5v2.75H14.5Z" />
    </symbol>

    <symbol id="AssetsDownloaded" viewBox="0 0 18 18">
        <path d="M6,12H2V2H16V7.812a6.023,6.023,0,0,1,1,.729V1.5a.5.5,0,0,0-.5-.5H1.5a.5.5,0,0,0-.5.5v11a.5.5,0,0,0,.5.5H7a5.98723,5.98723,0,0,1,.0905-1Z" />
        <path d="M13,8.025A4.975,4.975,0,1,0,17.975,13,4.975,4.975,0,0,0,13,8.025Zm-.085,8.0905-2.695-2.682A.25.25,0,0,1,10.3895,13H12V10.25a.25.25,0,0,1,.25-.25h1.5a.25.25,0,0,1,.25.25V13h1.6105a.25.25,0,0,1,.1695.4335l-2.695,2.682A.125.125,0,0,1,12.915,16.1155Z" />
    </symbol>

    <symbol id="CloseCircle" viewBox="0 0 18 18">
        <path d="M14.657,3.343a8,8,0,1,0-.00021,11.31371l.00021-.00021A8,8,0,0,0,14.657,3.343Zm-1.3435,9.265-.707.7055a.6.6,0,0,1-.84853.00147l-.00147-.00147L9,10.5555l-2.758,2.758a.6.6,0,0,1-.84853.00147L5.392,13.3135l-.7045-.7075a.6.6,0,0,1-.00147-.84853L4.6875,11.756,7.4445,9,4.6875,6.242A.6.6,0,0,1,4.686,5.39347L4.6875,5.392l.707-.707A.6.6,0,0,1,6.243,4.68353L6.2445,4.685,9,7.444l2.758-2.7575a.6.6,0,0,1,.84853-.00147l.00147.00147.707.707a.6.6,0,0,1,.00147.84853L13.315,6.2435,10.5555,9l2.758,2.758a.6.6,0,0,1,.00147.84853Z" />
    </symbol>

    <symbol id="Close" viewBox="0 0 18 18">
        <path d="M13.2425,3.343,9,7.586,4.7575,3.343a.5.5,0,0,0-.707,0L3.343,4.05a.5.5,0,0,0,0,.707L7.586,9,3.343,13.2425a.5.5,0,0,0,0,.707l.707.7075a.5.5,0,0,0,.707,0L9,10.414l4.2425,4.243a.5.5,0,0,0,.707,0l.7075-.707a.5.5,0,0,0,0-.707L10.414,9l4.243-4.2425a.5.5,0,0,0,0-.707L13.95,3.343a.5.5,0,0,0-.70711-.00039Z" />
    </symbol>

    <symbol id="AssetsAdded" viewBox="0 0 18 18">
        <path d="M6,12H2V2H16V7.812a6.023,6.023,0,0,1,1,.729V1.5a.5.5,0,0,0-.5-.5H1.5a.5.5,0,0,0-.5.5v11a.5.5,0,0,0,.5.5H7a5.98723,5.98723,0,0,1,.0905-1Z" />
        <path d="M13,8.025A4.975,4.975,0,1,0,17.975,13,4.975,4.975,0,0,0,13,8.025Zm3,5.725a.25.25,0,0,1-.25.25H14v1.75a.25.25,0,0,1-.25.25h-1.5a.25.25,0,0,1-.25-.25V14H10.25a.25.25,0,0,1-.25-.25v-1.5a.25.25,0,0,1,.25-.25H12V10.25a.25.25,0,0,1,.25-.25h1.5a.25.25,0,0,1,.25.25V12h1.75a.25.25,0,0,1,.25.25Z" />
    </symbol>

    <symbol id="ViewList" viewBox="0 0 18 18">
        <rect height="4" rx="0.5" width="4" x="1" y="1" />
        <rect height="2" rx="0.25" width="11" x="6" y="2" />
        <rect height="2" rx="0.25" width="11" x="6" y="8" />
        <rect height="2" rx="0.25" width="11" x="6" y="14" />
        <rect height="4" rx="0.5" width="4" x="1" y="7" />
        <rect height="4" rx="0.5" width="4" x="1" y="13" />
    </symbol>

    <symbol id="FileAdd" viewBox="0 0 18 18">
        <polygon points="8 1 8 6 3 6 8 1" />
        <path d="M7.35,13.5A6.1545,6.1545,0,0,1,15,7.5345V1.5a.5.5,0,0,0-.5-.5H9V6.5a.5.5,0,0,1-.5.5H3v9.5a.5.5,0,0,0,.5.5H8.443A6.12045,6.12045,0,0,1,7.35,13.5Z" />
        <path d="M13.5,9.05a4.45,4.45,0,1,0,4.45,4.45A4.45,4.45,0,0,0,13.5,9.05Zm2.5,4.7a.25.25,0,0,1-.25.25H14v1.75a.25.25,0,0,1-.25.25h-.5a.25.25,0,0,1-.25-.25V14H11.25a.25.25,0,0,1-.25-.25v-.5a.25.25,0,0,1,.25-.25H13V11.25a.25.25,0,0,1,.25-.25h.5a.25.25,0,0,1,.25.25V13h1.75a.25.25,0,0,1,.25.25Z" />
    </symbol>

    <symbol id="DocumentFragment" viewBox="0 0 18 18">
        <circle cx="7.428" cy="6.75" r="1" />
        <path d="M17.5,2H.5a.5.5,0,0,0-.5.5v13a.5.5,0,0,0,.5.5h17a.5.5,0,0,0,.5-.5V2.5A.5.5,0,0,0,17.5,2ZM2,4h8v6.347a4.26743,4.26743,0,0,0-1.739-.5625c-.8265,0-1.2,1.1-2.026,1.1S4.767,8.708,3.941,8.708C3.1895,8.706,2,10.9095,2,10.9095ZM16,14H2V13H16Zm0-3H12V10h4Zm0-3H12V7h4Zm0-3H12V4h4Z" />
    </symbol>

    <symbol id="Image" viewBox="0 0 18 18" >
        <path d="M16.5,3H1.5a.5.5,0,0,0-.5.5v11a.5.5,0,0,0,.5.5h15a.5.5,0,0,0,.5-.5V3.5A.5.5,0,0,0,16.5,3ZM16,12.6865,13.364,10.05a1,1,0,0,0-1.414,0l-1.536,1.536L6.636,7.8075a1,1,0,0,0-1.414,0L2,11.0295V4H16Z" />
        <circle cx="13.35" cy="6.65" r="1.35" />
    </symbol>

    <symbol id="Checkmark" viewBox="0 0 18 18">
        <path d="M15.656,3.8625l-.7275-.5665a.5.5,0,0,0-.7.0875L7.411,12.1415,4.0875,8.8355a.5.5,0,0,0-.707,0L2.718,9.5a.5.5,0,0,0,0,.707l4.463,4.45a.5.5,0,0,0,.75-.0465L15.7435,4.564A.5.5,0,0,0,15.656,3.8625Z" />
    </symbol>

    <symbol id="Document" viewBox="0 0 18 18">
        <path d="M10,5.5V1H3.5a.5.5,0,0,0-.5.5v15a.5.5,0,0,0,.5.5h11a.5.5,0,0,0,.5-.5V6H10.5A.5.5,0,0,1,10,5.5Z" />
        <path d="M11,1h.043a.5.5,0,0,1,.3535.1465l3.457,3.457A.5.5,0,0,1,15,4.957V5H11Z" />
    </symbol>

    <symbol id="Back" viewBox="0 0 18 18">
        <path d="M5,5V2.6035a.25.25,0,0,0-.427-.177L0,7l4.573,4.573A.25.25,0,0,0,5,11.3965V9h8v6.5a.5.5,0,0,0,.5.5h3a.5.5,0,0,0,.5-.5V8a3,3,0,0,0-3-3Z" />
    </symbol>

    <symbol id="RotateCCW" viewBox="0 0 18 18">
        <circle cx="13.3735" cy="14.994" r="0.55" />
        <circle cx="15.1735" cy="13.0605" r="0.55" />
        <circle cx="10.996" cy="16.1345" r="0.55" />
        <circle cx="8.398" cy="16.378" r="0.55" />
        <circle cx="5.856" cy="15.7095" r="0.55" />
        <circle cx="3.6835" cy="14.196" r="0.55" />
        <circle cx="2.227" cy="12.101" r="0.55" />
        <path d="M9,.9A7.974,7.974,0,0,0,3.3635,3.2305L1.65,2.05a.25.25,0,0,0-.3905.2315l.524,5.1105,4.95-1.3395a.25.25,0,0,0,.0765-.447l-1.673-1.15a6.7665,6.7665,0,0,1,4.35-1.55,6.30745,6.30745,0,0,1,6.5095,6.042v.014a7.41587,7.41587,0,0,1-.172,1.503.5025.5025,0,1,0,.9815.2A8,8,0,0,0,9,.9Z" />
    </symbol>

    <symbol id="RotateCW" viewBox="0 0 18 18">
        <circle cx="4.6265" cy="14.994" r="0.55" />
        <circle cx="2.8265" cy="13.0605" r="0.55" />
        <circle cx="7.004" cy="16.1345" r="0.55" />
        <circle cx="9.602" cy="16.378" r="0.55" />
        <circle cx="12.144" cy="15.7095" r="0.55" />
        <circle cx="14.3165" cy="14.196" r="0.55" />
        <circle cx="15.773" cy="12.101" r="0.55" />
        <path d="M9,.9a7.974,7.974,0,0,1,5.6365,2.33L16.35,2.05a.25.25,0,0,1,.3905.2315l-.524,5.1105-4.95-1.3395a.25.25,0,0,1-.0765-.447l1.673-1.15a6.7665,6.7665,0,0,0-4.35-1.55,6.30745,6.30745,0,0,0-6.5095,6.042v.014a7.41587,7.41587,0,0,0,.172,1.503.536.536,0,0,1-.35.627.54.54,0,0,1-.631-.428A8,8,0,0,1,9,.9Z" />
    </symbol>
    <symbol id="RectSelect" viewBox="0 0 18 18">
        <rect height="1" width="3" x="5" y="2" />
        <rect height="1" width="3" x="10" y="2" />
        <path d="M1.5,2a.5.5,0,0,0-.5.5V4H2V3H3V2Z" />
        <rect height="2" width="1" x="1" y="6" />
        <rect height="2" width="1" x="1" y="10" />
        <path d="M2,15V14H1v1.5a.5.5,0,0,0,.5.5H3V15Z" />
        <rect height="1" width="3" x="5" y="15" />
        <rect height="1" width="3" x="10" y="15" />
        <path d="M15,2V3h1V4h1V2.5a.5.5,0,0,0-.5-.5Z" />
        <rect height="2" width="1" x="16" y="6" />
        <rect height="2" width="1" x="16" y="10" />
        <path d="M16,14v1H15v1h1.5a.5.5,0,0,0,.5-.5V14Z" />
    </symbol>

    <symbol id="Properties" viewBox="0 0 18 18">
        <path d="M16.75,3H7.95a2.5,2.5,0,0,0-4.9,0H1.25A.25.25,0,0,0,1,3.25v.5A.25.25,0,0,0,1.25,4h1.8a2.5,2.5,0,0,0,4.9,0h8.8A.25.25,0,0,0,17,3.75v-.5A.25.25,0,0,0,16.75,3ZM5.5,5A1.5,1.5,0,1,1,7,3.5,1.5,1.5,0,0,1,5.5,5Z" />
        <path d="M16.75,13H9.95a2.5,2.5,0,0,0-4.9,0H1.25a.25.25,0,0,0-.25.25v.5a.25.25,0,0,0,.25.25h3.8a2.5,2.5,0,0,0,4.9,0h6.8a.25.25,0,0,0,.25-.25v-.5A.25.25,0,0,0,16.75,13ZM7.5,15A1.5,1.5,0,1,1,9,13.5,1.5,1.5,0,0,1,7.5,15Z" />
        <path d="M1,8.25v.5A.25.25,0,0,0,1.25,9h8.8a2.5,2.5,0,0,0,4.9,0h1.8A.25.25,0,0,0,17,8.75v-.5A.25.25,0,0,0,16.75,8h-1.8a2.5,2.5,0,0,0-4.9,0H1.25A.25.25,0,0,0,1,8.25ZM11,8.5A1.5,1.5,0,1,1,12.5,10,1.5,1.5,0,0,1,11,8.5Z" />
    </symbol>

    <symbol id="Gears" viewBox="0 0 18 18">
        <path d="M8.5965,12.893H7.534a3.0709,3.0709,0,0,0-.45-1.0895l.7565-.7565a.3035.3035,0,0,0,0-.429l-.46-.46a.3035.3035,0,0,0-.429,0l-.7555.757a3.07263,3.07263,0,0,0-1.089-.45V9.4035A.3035.3035,0,0,0,4.8035,9.1h-.607a.3035.3035,0,0,0-.3035.3035V10.466a3.07263,3.07263,0,0,0-1.089.45l-.7565-.758a.3035.3035,0,0,0-.429,0l-.46.46a.3035.3035,0,0,0,0,.429l.7565.757a3.0709,3.0709,0,0,0-.45,1.0895H.4035A.3035.3035,0,0,0,.1,13.197h0v.607a.3035.3035,0,0,0,.3035.3035H1.466a3.0709,3.0709,0,0,0,.45,1.0895l-.758.756a.3035.3035,0,0,0,0,.429l.46.46a.3035.3035,0,0,0,.429,0l.757-.757a3.07263,3.07263,0,0,0,1.089.45v1.0625a.3035.3035,0,0,0,.3035.3035h.607a.3035.3035,0,0,0,.3035-.3035V16.534a3.07263,3.07263,0,0,0,1.089-.45l.7565.7565a.3035.3035,0,0,0,.429,0l.46-.46a.3035.3035,0,0,0,0-.429L7.085,15.196a3.0709,3.0709,0,0,0,.45-1.0895H8.5975a.3035.3035,0,0,0,.3035-.3035v-.6065a.3035.3035,0,0,0-.3035-.3035ZM4.5,15.082A1.582,1.582,0,1,1,6.082,13.5h0A1.582,1.582,0,0,1,4.5,15.082Z" />
        <path d="M17.681,7.453l-1.4-.5715a4.37836,4.37836,0,0,0-.006-1.6785l1.405-.591a.4325.4325,0,0,0,.231-.566l-.361-.8545a.432.432,0,0,0-.5655-.23121l-.0005.00021L15.5785,3.55A4.38056,4.38056,0,0,0,14.383,2.372l.5715-1.4a.4325.4325,0,0,0-.237-.5635l-.8-.3265a.4325.4325,0,0,0-.5635.237l-.5715,1.4a4.38055,4.38055,0,0,0-1.6785.006L10.512.322A.432.432,0,0,0,9.9465.09079L9.946.091,9.0915.45a.4325.4325,0,0,0-.231.566L9.45,2.4215a4.3765,4.3765,0,0,0-1.178,1.196l-1.4-.5715a.4325.4325,0,0,0-.5635.237l-.3265.8a.4325.4325,0,0,0,.237.5635l1.4.5715a4.37836,4.37836,0,0,0,.006,1.6785l-1.405.591a.4325.4325,0,0,0-.231.566l.3595.854a.432.432,0,0,0,.5655.23121l.0005-.00021,1.405-.591a4.38043,4.38043,0,0,0,1.196,1.178l-.5715,1.4a.4325.4325,0,0,0,.237.5635l.8.3265a.4325.4325,0,0,0,.5635-.237l.5715-1.4a4.37757,4.37757,0,0,0,1.6785-.006l.591,1.405a.432.432,0,0,0,.5655.23121l.0005-.00021.8545-.3595a.4325.4325,0,0,0,.231-.566L14.45,9.6785A4.37607,4.37607,0,0,0,15.628,8.483l1.4.5715a.432.432,0,0,0,.5633-.23652l.0002-.00048.3265-.8a.4325.4325,0,0,0-.23624-.56419Zm-5.731.691A2.094,2.094,0,1,1,14.044,6.05,2.094,2.094,0,0,1,11.95,8.144Z" />
    </symbol>

    <symbol id="User" viewBox="0 0 18 18">
        <path d="M16.4745,17a.4965.4965,0,0,0,.50089-.49207q.00015-.01724-.00089-.03443c-.3305-3.592-4.0135-4.8155-5.139-4.9135C11.013,11.4885,11,10.826,11,10a7.51507,7.51507,0,0,0,1.766-4.479C12.766,2.8085,11.2225,1,9,1S5.234,2.8085,5.234,5.521A7.51507,7.51507,0,0,0,7,10c0,.826-.013,1.4885-.837,1.56-1.1255.1-4.8085,1.3215-5.139,4.9135a.49649.49649,0,0,0,.46557.52561q.01719.001.03443.00089Z" />
    </symbol>

    <symbol id="Draw" viewBox="0 0 18 18">
        <path d="M10.227,4,2.542,11.686a.496.496,0,0,0-.1255.2105L1.0275,16.55c-.057.188.2295.425.3915.425a.15587.15587,0,0,0,.031-.003c.138-.032,3.9335-1.172,4.6555-1.389a.492.492,0,0,0,.2075-.125L14,7.772ZM5.7,14.658c-1.0805.3245-2.431.7325-3.3645,1.011L3.34,12.304Z" />
        <path d="M16.7835,4.1,13.9,1.216a.60751.60751,0,0,0-.433-.1765H13.45a.686.686,0,0,0-.4635.2035l-2.05,2.05L14.708,7.0645l2.05-2.05a.686.686,0,0,0,.2-.4415A.612.612,0,0,0,16.7835,4.1Z" />
    </symbol>

    <symbol id="Layers" viewBox="0 0 18 18">
        <path d="M14.144,9.969,9.2245,13.3825a.3945.3945,0,0,1-.45,0L3.856,9.969.929,12a.1255.1255,0,0,0,0,.2055l7.925,5.5a.2575.2575,0,0,0,.292,0l7.925-5.5a.1255.1255,0,0,0,0-.2055Z" />
        <path d="M8.85,11.494.929,6a.1245.1245,0,0,1,0-.205L8.85.297a.265.265,0,0,1,.3,0l7.921,5.496a.1245.1245,0,0,1,0,.205L9.15,11.494A.265.265,0,0,1,8.85,11.494Z" />
    </symbol>

    <symbol id="Crop" viewBox="0 0 18 18">
        <path d="M12,11h2V4.5a.5.5,0,0,0-.5-.5H7V6h5Z" />
        <path d="M6,12V1.5A.5.5,0,0,0,5.5,1h-1a.5.5,0,0,0-.5.5V4H1.5a.5.5,0,0,0-.5.5v1a.5.5,0,0,0,.5.5H4v7.5a.5.5,0,0,0,.5.5H12v2.5a.5.5,0,0,0,.5.5h1a.5.5,0,0,0,.5-.5V14h2.5a.5.5,0,0,0,.5-.5v-1a.5.5,0,0,0-.5-.5Z" />
    </symbol>

    <symbol id="DragHandle" viewBox="0 0 18 18">
        <circle cx="7" cy="13" r="1"/>
        <circle cx="7" cy="10" r="1"/>
        <circle cx="7" cy="7" r="1"/>
        <circle cx="7" cy="4" r="1"/>
        <circle cx="10" cy="13" r="1"/>
        <circle cx="10" cy="10" r="1"/>
        <circle cx="10" cy="7" r="1"/>
        <circle cx="10" cy="4" r="1"/>
    </symbol>

    <symbol id="Circle" viewBox="0 0 18 18">
        <circle cx="9" cy="9" r="8" />
    </symbol>

    <symbol id="CheckmarkCircle" viewBox="0 0 18 18">
        <path d="M9,1a8,8,0,1,0,8,8A8,8,0,0,0,9,1Zm5.333,4.54L8.009,13.6705a.603.603,0,0,1-.4375.2305H7.535a.6.6,0,0,1-.4245-.1755L3.218,9.829a.6.6,0,0,1-.00147-.84853L3.218,8.979l.663-.6625A.6.6,0,0,1,4.72953,8.315L4.731,8.3165,7.4,10.991l5.257-6.7545a.6.6,0,0,1,.8419-.10586L13.5,4.1315l.7275.5685A.6.6,0,0,1,14.333,5.54Z" />
    </symbol>

    <symbol id="Download" viewBox="0 0 18 18">
        <path d="M16.5,12h-1a.5.5,0,0,0-.5.5V15H3V12.5a.5.5,0,0,0-.5-.5h-1a.5.5,0,0,0-.5.5v4a.5.5,0,0,0,.5.5h15a.5.5,0,0,0,.5-.5v-4A.5.5,0,0,0,16.5,12Z" />
        <path d="M8.8245,13.428a.25.25,0,0,0,.35,0L12.9,9.6655a.391.391,0,0,0,.1-.263.4.4,0,0,0-.4-.4H10V1.5A.5.5,0,0,0,9.5,1h-1a.5.5,0,0,0-.5.5V9H5.4a.4.4,0,0,0-.4.4.391.391,0,0,0,.1.263Z" />
    </symbol>

    <symbol id="TextAlignLeft" viewBox="0 0 18 18">
        <rect height="2" rx="0.5" width="12" x="2" y="14" />
        <rect height="2" rx="0.5" width="15" x="2" y="2" />
        <rect height="2" rx="0.5" width="12" x="2" y="6" />
        <rect height="2" rx="0.5" width="15" x="2" y="10" />
    </symbol>

    <symbol id="TextAlignCenter" viewBox="0 0 18 18">
        <rect height="2" rx="0.5" width="10" x="4" y="14" />
        <rect height="2" rx="0.5" width="16" x="1" y="10" />
        <rect height="2" rx="0.5" width="16" x="1" y="2" />
        <rect height="2" rx="0.5" width="10" x="4" y="6" />
    </symbol>

    <symbol id="TextAlignRight" viewBox="0 0 18 18">
        <rect height="2" rx="0.5" width="12" x="4" y="14" />
        <rect height="2" rx="0.5" width="15" x="1" y="2" />
        <rect height="2" rx="0.5" width="12" x="4" y="6" />
        <rect height="2" rx="0.5" width="15" x="1" y="10" />
    </symbol>

    <symbol id="TextAlignJustify" viewBox="0 0 18 18">
        <rect height="2" rx="0.5" width="14" x="2" y="2" />
        <rect height="2" rx="0.5" width="14" x="2" y="6" />
        <rect height="2" rx="0.5" width="14" x="2" y="10" />
        <rect height="2" rx="0.5" width="14" x="2" y="14" />
    </symbol>

    <symbol id="TextStyle" viewBox="0 0 18 18">
        <path d="M3.988,11.65c.292,1.521,1.485,4.2395,4.243,4.2395a2.57217,2.57217,0,0,0,2.864-2.5345c0-1.0825-.7425-2.0275-2.095-2.95L8.2045,9.9C6.534,8.771,5.049,7.481,5.049,5.5685c0-2.719,2.519-4.4,5.7805-4.4a9.87005,9.87005,0,0,1,2.9965.461c.4775.138.822.2765,1.087.3685a31.61081,31.61081,0,0,0-.159,3.5255l-.928.069c-.2385-1.45-.875-3.5-3.2085-3.5A2.403,2.403,0,0,0,8.0761,4.34863q-.00348.05862-.0041.11737c0,1.129.7425,1.8665,2.15,2.742l.7955.4835c1.83,1.15,3.3415,2.4195,3.3415,4.493,0,2.9035-2.864,4.6545-6.417,4.6545a8.188,8.188,0,0,1-4.8265-1.4285c.0265-.53.0265-1.8205,0-3.6635Z" />
    </symbol>

    <symbol id="TextTracking" viewBox="0 0 18 18">
        <path d="M13.183,3.35c-.216.9045-.9,2.9035-1.3045,4.132h2.65c-.2835-.8915-1.0615-3.1865-1.332-4.132Z" />
        <path d="M17.75,1H.25A.25.25,0,0,0,0,1.25v10.5A.25.25,0,0,0,.25,12h17.5a.25.25,0,0,0,.25-.25V1.25A.25.25,0,0,0,17.75,1ZM6.0365,10.7775a.1175.1175,0,0,1-.1345.0945H4.335a.11949.11949,0,0,1-.1345-.0805L1.027,2.1215C1,2.054,1.027,2,1.1075,2H2.661a.0935.0935,0,0,1,.107.07765L2.7685,2.081C4.05,5.633,4.929,8.2525,5.1725,9.25H5.2c.3-1.053.9725-3.35,2.255-7.1435.027-.081.0545-.108.1215-.108H9.05c.067,0,.1075.0405.0805.1215ZM17.25,10.872H15.7355a.1365.1365,0,0,1-.1355-.0805L14.9335,8.872H11.477l-.6305,1.892a.13349.13349,0,0,1-.15.108H9.35c-.0815,0-.1085-.0405-.0945-.135L12.035,2.824a2.05547,2.05547,0,0,0,.1215-.7295c0-.054.0275-.0945.081-.0945h1.877c.0675,0,.0815.0135.0945.081l3.1195,8.669C17.3425,10.8315,17.3285,10.872,17.25,10.872Z" />
        <path d="M16.3615,15.075l-1.977-1.9815a.216.216,0,0,0-.3625.131v1.283H3.978v-1.283a.216.216,0,0,0-.3625-.131L1.6385,15.075a.25.25,0,0,0,0,.353L3.616,17.414a.216.216,0,0,0,.3625-.1315V16H14.022v1.2825a.216.216,0,0,0,.3625.1315l1.9775-1.986A.25.25,0,0,0,16.3615,15.075Z" />
        <path d="M16.4155,15.0635,14.417,13.064A.245.245,0,0,0,14.25,13a.25.25,0,0,0-.25.25V14.5H4V13.25A.25.25,0,0,0,3.75,13a.245.245,0,0,0-.1655.0645l-2,2a.25.25,0,0,0-.019.353l.019.019,2,2A.245.245,0,0,0,3.75,17.5.25.25,0,0,0,4,17.25V16H14v1.25a.25.25,0,0,0,.25.25.245.245,0,0,0,.1655-.0645l2-2a.25.25,0,0,0,.019-.353Z" />
    </symbol>

    <symbol id="TextSize" viewBox="0 0 18 18">
        <path d="M6.75,9A.25.25,0,0,1,7,9.25v1.5a.25.25,0,0,1-.25.25h-.5A.25.25,0,0,1,6,10.75V10H4v5h.75a.25.25,0,0,1,.25.25v.5a.25.25,0,0,1-.25.25H2.25A.25.25,0,0,1,2,15.75v-.5A.25.25,0,0,1,2.25,15H3V10H1v.75A.25.25,0,0,1,.75,11H.25A.25.25,0,0,1,0,10.75V9.25A.25.25,0,0,1,.25,9Z" />
        <path d="M4.5,2a.5.5,0,0,0-.5.5v3a.5.5,0,0,0,.5.5h1A.5.5,0,0,0,6,5.5V4h4V14H8.5a.5.5,0,0,0-.5.5v1a.5.5,0,0,0,.5.5h5a.5.5,0,0,0,.5-.5v-1a.5.5,0,0,0-.5-.5H12V4h4V5.5a.5.5,0,0,0,.5.5h1a.5.5,0,0,0,.5-.5v-3a.5.5,0,0,0-.5-.5Z" />
    </symbol>

    <symbol id="LineHeight" viewBox="0 0 18 18">
        <rect height="2" rx="0.5" width="11" x="6" y="2" />
        <rect height="2" rx="0.5" width="11" x="6" y="8" />
        <rect height="2" rx="0.5" width="11" x="6" y="14" />
        <path d="M4.5,15H3.497L3.5,4H4.503a.25.25,0,0,0,.25-.25.245.245,0,0,0-.0735-.175L2.912,1.5565a.25.25,0,0,0-.3165,0L.8275,3.573a.24549.24549,0,0,0-.074.175.25.25,0,0,0,.25.25h1.004L2.0045,15H1a.25.25,0,0,0-.25.25.245.245,0,0,0,.0735.175L2.592,17.4415a.25.25,0,0,0,.316,0L4.676,15.425a.24549.24549,0,0,0,.074-.175A.25.25,0,0,0,4.5,15Z" />
    </symbol>

    <symbol id="TextBaselineShift" viewBox="0 0 18 18">
        <path d="M10.65,11.888,6.5305,1.5c-.0185-.0645-.0355-.08-.106-.08H4.706a.08.08,0,0,0-.0876.0716L4.618,1.5a1.53653,1.53653,0,0,1-.123.656L.6725,11.872c-.017.08.018.128.105.128H1.97c.0875,0,.1235-.032.1405-.096L3.244,9H7.958l1.15,2.92a.15848.15848,0,0,0,.14.08h1.333C10.669,12,10.686,11.95,10.65,11.888ZM5.5835,2.5085H5.6C5.9325,3.5965,7.2725,6.9585,7.6585,8H3.5455C4.212,6.2395,5.285,3.5325,5.5835,2.5085Z" />
        <rect height="1" rx="0.25" width="10.5" x="0.5" y="13" />
        <rect height="1" rx="0.25" width="6" x="11.5" y="8" />
        <path d="M16.7685,5.864a4.59777,4.59777,0,0,0,.0235.574c0,.024,0,.0355-.0235.05A4.936,4.936,0,0,1,14.5325,7c-1.268,0-2.2245-.622-2.2245-1.8775,0-1.2675,1.1835-1.8295,2.667-1.8295.4415,0,.693.0125.825.024V3.03a1.18015,1.18015,0,0,0-1.35-1.1955,3.207,3.207,0,0,0-1.5185.3585.0585.0585,0,0,1-.083-.0595V1.404a.105.105,0,0,1,.0595-.0955A3.95,3.95,0,0,1,14.6035.95a2.01955,2.01955,0,0,1,2.165,2.25ZM15.8,4.106a5.70074,5.70074,0,0,0-.79-.05c-1.16,0-1.722.395-1.722,1.0645,0,.538.3715,1.0645,1.423,1.0645A2.8072,2.8072,0,0,0,15.8,5.9815Z" />
        <path d="M16.9355,12.583l-2-2a.25.25,0,0,0-.35307-.01843L14.564,10.583l-2,2a.245.245,0,0,0-.064.167.25.25,0,0,0,.25.25H14v2.5775A.4225.4225,0,0,0,14.4225,16h.655a.4225.4225,0,0,0,.4225-.4225V13h1.25a.25.25,0,0,0,.25-.25A.245.245,0,0,0,16.9355,12.583Z" />
    </symbol>

    <symbol id="HelpOutline" viewBox="0 0 18 18">
        <path d="M10.09064,12.966a.9167.9167,0,0,1-.97722,1.0076.93092.93092,0,0,1-.97769-1.0076.97756.97756,0,0,1,1.95491-.02931Q10.09085,12.95135,10.09064,12.966ZM8.97658,4a4.61617,4.61617,0,0,0-2.2591.5362c-.05924.03139-.05924.09215-.05924.15342V6.17521a.07459.07459,0,0,0,.11854.06076,3.69224,3.69224,0,0,1,1.87246-.50481c.90632,0,1.26328.38278,1.26328.93417,0,.47493-.28253.79645-.77259,1.30176C8.42665,8.70278,7.99526,9.1615,7.99526,9.8815a1.70875,1.70875,0,0,0,.357,1.05721A.244.244,0,0,0,8.54519,11h1.2929a.06531.06531,0,0,0,.05931-.10734,1.65129,1.65129,0,0,1-.23779-.843c0-.45874.54994-.96405,1.12955-1.53113a2.73714,2.73714,0,0,0,.95107-2.1129C11.74024,5.05774,10.75955,4,8.97658,4ZM17.5,9A8.5,8.5,0,1,1,9,.50005H9A8.5,8.5,0,0,1,17.5,9ZM15.6748,9A6.67481,6.67481,0,1,0,9,15.67476H9A6.67476,6.67476,0,0,0,15.6748,9Z" />
    </symbol>
    <symbol id="InfoOutline" viewBox="0 0 18 18">
        <path d="M10.075,6A1.075,1.075,0,1,1,9,4.925H9A1.075,1.075,0,0,1,10.075,6Zm.09173,6H10V8.2A.20005.20005,0,0,0,9.8,8H7.83324S7.25,8.01612,7.25,8.5c0,.48365.58325.5.58325.5H8v3H7.83325s-.58325.01612-.58325.5c0,.48365.58325.5.58325.5h2.3335s.58325-.01635.58325-.5C10.75,12.01612,10.16673,12,10.16673,12ZM9,.5A8.5,8.5,0,1,0,17.5,9,8.5,8.5,0,0,0,9,.5ZM9,15.6748A6.67481,6.67481,0,1,1,15.67484,9,6.67481,6.67481,0,0,1,9,15.6748Z" />
    </symbol>

    <symbol id="Artboard" viewBox="0 0 18 18">
        <path d="M4,4.5v12a.5.5,0,0,0,.5.5h12a.5.5,0,0,0,.5-.5V7.457a.5.5,0,0,0-.1465-.3535l-2.957-2.957A.5.5,0,0,0,13.543,4H4.5A.5.5,0,0,0,4,4.5ZM16,16H5V5h8V7.5a.5.5,0,0,0,.5.5H16Z" />
        <rect height="3" width="1" x="4" />
        <rect height="1" width="3" y="4" />
    </symbol>
    <symbol id="Brush" viewBox="0 0 18 18">
        <path d="M6.2545,10.515a2.46051,2.46051,0,0,0-2.0975.6,6.46753,6.46753,0,0,0-1.3395,2.391,2.80972,2.80972,0,0,1-1.68,2.386.3.3,0,0,0-.1705.356.45.45,0,0,0,.3225.329c.2925.073.6265.142.9885.2,1.3035.2045,3.74.369,5.403-.826a3.44365,3.44365,0,0,0,1.411-2.273A3.4065,3.4065,0,0,0,6.2545,10.515Z" />
        <path d="M9.95,12.05c3.6175-4.1135,8.211-9.7675,7.008-10.9705S10.773,5.488,7.19,9.415A5.02547,5.02547,0,0,1,9.95,12.05Z" />
    </symbol>
    <symbol id="ColorFill" viewBox="0 0 18 18">
        <path d="M16.8635,11.836a32.17369,32.17369,0,0,0-.653-3.316c-.312-1.218-1.4595-1.49-2.67-1.654L9.487,2.8125a.5.5,0,0,0-.70711-.00039L8.7795,2.8125l-1.212,1.215,2.436,2.436A.75.75,0,0,1,8.96142,7.54242L8.943,7.524,6.507,5.088.928,10.667a.5.5,0,0,0-.00039.70711L.928,11.3745,6.3045,16.744a.5.5,0,0,0,.707,0L14.797,8.947a.5.5,0,0,0,.0075-.7.19.19,0,0,1,.283.0745,3.32249,3.32249,0,0,1-.264,2.787,4.74244,4.74244,0,0,0-.694,1.628,1.258,1.258,0,0,0,1.3895,1.4C16.34,14.137,17.0165,13.3665,16.8635,11.836Z" />
        <path d="M7.5655,4.025,4.7,1.1585A.75042.75042,0,0,0,3.638,2.219L6.5045,5.0855Z" />
    </symbol>
    <symbol id="Pattern" viewBox="0 0 18 18">
        <rect height="4" rx="0.25" width="1" x="5" y="1" />
        <rect height="2" rx="0.25" width="3" x="7" y="2" />
        <rect height="2" rx="0.25" width="3" x="13" y="2" />
        <rect height="4" rx="0.25" width="1" x="11" y="1" />
        <rect height="2" rx="0.25" width="3" x="1" y="10" />
        <rect height="4" rx="0.25" width="1" x="5" y="9" />
        <rect height="2" rx="0.25" width="3" x="7" y="10" />
        <rect height="2" rx="0.25" width="3" x="13" y="10" />
        <rect height="4" rx="0.25" width="1" x="11" y="9" />
        <rect height="4" rx="0.25" width="1" x="2" y="5" />
        <rect height="2" rx="0.25" width="3" x="4" y="6" />
        <rect height="2" rx="0.25" width="3" x="10" y="6" />
        <rect height="4" rx="0.25" width="1" x="8" y="5" />
        <rect height="4" rx="0.25" width="1" x="14" y="5" />
        <rect height="4" rx="0.25" width="1" x="2" y="13" />
        <rect height="2" rx="0.25" width="3" x="4" y="14" />
        <rect height="2" rx="0.25" width="3" x="10" y="14" />
        <rect height="4" rx="0.25" width="1" x="8" y="13" />
        <rect height="4" rx="0.25" width="1" x="14" y="13" />
    </symbol>

    <symbol id="Transparency" viewBox="0 0 18 18">
        <rect height="3" width="3" x="6" y="6" />
        <rect height="3" width="3" x="9" y="9" />
        <path d="M15.5,2H2.5a.5.5,0,0,0-.5.5v13a.5.5,0,0,0,.5.5h13a.5.5,0,0,0,.5-.5V2.5A.5.5,0,0,0,15.5,2ZM15,6H12V9h3v3H12v3H9V12H6v3H3V12H6V9H3V6H6V3H9V5.99h3V3h3Z" />
    </symbol>

    <symbol id="Looks" viewBox="0 0 18 18">
      <path d="M13.995,6.603c0-.035.005-.0685.005-.103a5.5,5.5,0,0,0-11,0c0,.0345.0045.068.005.103A5.497,5.497,0,1,0,8.5,16.1065,5.497,5.497,0,1,0,13.995,6.603ZM8.5,14.832a4.46248,4.46248,0,0,1-1.47-3.0365,5.38556,5.38556,0,0,0,2.94,0A4.46248,4.46248,0,0,1,8.5,14.832ZM8.5,11a4.45,4.45,0,0,1-1.424-.25A4.46452,4.46452,0,0,1,8.5,8.168a4.46448,4.46448,0,0,1,1.424,2.58A4.45014,4.45014,0,0,1,8.5,11Zm-2.368-.688A4.48049,4.48049,0,0,1,4.076,7.25,4.45,4.45,0,0,1,5.5,7a4.44988,4.44988,0,0,1,2.154.572A5.489,5.489,0,0,0,6.132,10.312Zm3.214-2.74a4.265,4.265,0,0,1,3.578-.32,4.4805,4.4805,0,0,1-2.056,3.06A5.489,5.489,0,0,0,9.346,7.572ZM8.5,2a4.4865,4.4865,0,0,1,4.47,4.205,5.45,5.45,0,0,0-4.47.6885A5.45,5.45,0,0,0,4.03,6.205,4.4865,4.4865,0,0,1,8.5,2Zm-3,14A4.4905,4.4905,0,0,1,3.132,7.688,5.50548,5.50548,0,0,0,6.005,11.4c0,.0345-.005.068-.005.1a5.4805,5.4805,0,0,0,1.654,3.928A4.447,4.447,0,0,1,5.5,16Zm6,0a4.447,4.447,0,0,1-2.154-.572A5.4805,5.4805,0,0,0,11,11.5c0-.0345-.0045-.068-.005-.1a5.5055,5.5055,0,0,0,2.873-3.7095A4.4905,4.4905,0,0,1,11.5,16Z" />
    </symbol>

    <symbol id="Individual" viewBox="0 0 18 18">
        <rect height="3.5" rx="0.5" width="3.5" x="7.25" y="7.25" />
        <path d="M14.75,6A.25.25,0,0,0,15,5.75V3.25A.25.25,0,0,0,14.75,3h-2.5a.25.25,0,0,0-.25.25V4H6V3.25A.25.25,0,0,0,5.75,3H3.25A.25.25,0,0,0,3,3.25v2.5A.25.25,0,0,0,3.25,6H4v6H3.25a.25.25,0,0,0-.25.25v2.5a.25.25,0,0,0,.25.25h2.5A.25.25,0,0,0,6,14.75V14h6v.75a.25.25,0,0,0,.25.25h2.5a.25.25,0,0,0,.25-.25v-2.5a.25.25,0,0,0-.25-.25H14V6ZM13,12h-.75a.25.25,0,0,0-.25.25V13H6v-.75A.25.25,0,0,0,5.75,12H5V6h.75A.25.25,0,0,0,6,5.75V5h6v.75a.25.25,0,0,0,.25.25H13Z" />
    </symbol>

    <symbol id="StrokeWidth" viewBox="0 0 18 18">
        <rect height="2" rx="0.5" width="16" x="1" y="2" />
        <rect height="4" rx="0.5" width="16" x="1" y="11" />
        <rect height="3" rx="0.5" width="16" x="1" y="6" />
    </symbol>

    <symbol id="Target" viewBox="0 0 18 18">
        <path d="M9,1a8,8,0,1,0,8,8A8,8,0,0,0,9,1ZM9,14.1A5.1,5.1,0,1,1,14.1,9,5.1,5.1,0,0,1,9,14.1Z" />
        <circle cx="9" cy="9" r="2" />
    </symbol>

    <symbol id="Anchor" viewBox="0 0 18 18">
        <path d="M16.966,12.6355,15,9.9145l-2.05,2.721a.193.193,0,0,0,.126.3145h1.25a5.531,5.531,0,0,1-4.35,1.95V8.606l1.04-.0355a.359.359,0,0,0,.335-.3795V7.4325a.359.359,0,0,0-.335-.3795l-1.04.035L9.964,6.0285A2.96249,2.96249,0,0,0,11.5,3.58,2.58251,2.58251,0,0,0,9.0055.98,2.6445,2.6445,0,0,0,6.5,3.6375,2.8315,2.8315,0,0,0,8,6.0285V7.053H6.9965a.359.359,0,0,0-.335.3795V8.191a.359.359,0,0,0,.335.3795H8V14.864A5.423,5.423,0,0,1,3.675,12.95H4.85a.1935.1935,0,0,0,.126-.3145L3,9.9145l-1.966,2.721a.193.193,0,0,0,.126.3145h.9705c.966,2.65,3.8145,3.9695,6.875,3.9695s5.898-1.3195,6.864-3.9695H16.84a.193.193,0,0,0,.126-.3145ZM7.672,3.5615a1.3915,1.3915,0,0,1,1.3335-1.328A1.33,1.33,0,0,1,10.328,3.504,1.43651,1.43651,0,0,1,9.0055,4.8895,1.3915,1.3915,0,0,1,7.672,3.5615Z" />
    </symbol>

    <symbol id="Orbit" viewBox="0 0 18 18">
        <path d="M13.8785,6.9355A3.9915,3.9915,0,0,0,6.35,4.374c-.331-.0255-.659-.045-.974-.045C2.6525,4.329.5785,5.2745.1,7c-.52,1.8845,1.019,4.186,3.678,5.973L2.3545,14.6805A.1905.1905,0,0,0,2.5,14.993H8.95L6.045,10.635a.191.191,0,0,0-.305-.0165L4.7555,11.8c-2.25-1.471-3.5-3.25-3.1855-4.3935.261-.944,1.756-1.554,3.8085-1.554.2055,0,.421.018.633.0305C6.0115,5.923,6,5.96,6,6a3.9925,3.9925,0,0,0,7.2385,2.332c2.2,1.4605,3.4045,3.214,3.091,4.345-.2605.944-1.7555,1.554-3.807,1.554-.283,0-.5745-.0155-.87-.041a.3805.3805,0,0,0-.41571.34168l-.00179.03382v.766a.386.386,0,0,0,.353.3835c.3185.025.631.0395.9345.0395,2.725,0,4.8-.9455,5.276-2.671C18.3365,11.1395,16.694,8.7445,13.8785,6.9355Z" />
    </symbol>

    <symbol id="Crosshairs" viewBox="0 0 18 18">
        <path d="M9,7.9A1.1,1.1,0,1,0,10.1,9,1.1,1.1,0,0,0,9,7.9Z" />
        <path d="M9,1a8,8,0,1,0,8,8A8,8,0,0,0,9,1Zm1,14.776V12H8v3.776A6.85,6.85,0,0,1,2.224,10H6V8H2.224A6.85,6.85,0,0,1,8,2.224V6h2V2.224A6.85,6.85,0,0,1,15.776,8H12v2h3.776A6.85,6.85,0,0,1,10,15.776Z" />
    </symbol>

    <symbol id="ProjectNameEdit" viewBox="0 0 18 18">
        <path d="M7,12H2V2H16V8h1V1.5a.5.5,0,0,0-.5-.5H1.5a.5.5,0,0,0-.5.5v11a.5.5,0,0,0,.5.5H7Z" />
        <path d="M17.5,9h-9a.5.5,0,0,0-.5.5v2a.5.5,0,0,0,.5.5h1a.5.5,0,0,0,.5-.5V11h2v5h-.5a.5.5,0,0,0-.5.5v1a.5.5,0,0,0,.5.5h3a.5.5,0,0,0,.5-.5v-1a.5.5,0,0,0-.5-.5H14V11h2v.5a.5.5,0,0,0,.5.5h1a.5.5,0,0,0,.5-.5v-2A.5.5,0,0,0,17.5,9Z" />
    </symbol>

    <symbol id="Stopwatch" viewBox="0 0 18 18">
        <path d="M10,1h.5a.5.5,0,0,0,0-1h-2a.5.5,0,0,0,0,1H9V2h1Z" />
        <path d="M9.5,2A7.47,7.47,0,0,0,4.55,3.8645L3.7185,3.031l.354-.3535a.5001.5001,0,1,0-.7075-.707l-.3535.3535-.707.707L1.95,3.385a.50028.50028,0,1,0,.708.707l.3535-.3535.8345.834A7.5,7.5,0,1,0,9.5,2Zm0,14A6.5,6.5,0,1,1,13.4165,4.3125L8.954,8.775c-.0105.0105-.0185.02-.0285.031a.929.929,0,1,0,1.28141,1.34541l.02809-.02791c.0115-.0105.023-.0225.034-.0335l4.4565-4.456A6.5,6.5,0,0,1,9.5,16Z" />
    </symbol>

    <symbol id="Blur" viewBox="0 0 18 18">
      <path d="M7.4545.1735C8.1305,4.8095,3.591,8.4355,3.591,12.15A5.22669,5.22669,0,0,0,9,17.173a5.22734,5.22734,0,0,0,5.409-5.023C14.409,8.3165,8.662,4.2785,7.4545.1735Z" />
    </symbol>

    <symbol id="Cut" viewBox="0 0 18 18">
      <path d="M14.957,11.0605c0-.0035.0165-.0145.012-.0145A4.24048,4.24048,0,0,1,11.4,9.037c-.0085-.014-.023-.0235-.0325-.037.0095-.0135.024-.023.0325-.037a4.2405,4.2405,0,0,1,3.571-2.009c.0045,0-.0115-.0105-.013-.014a2.95851,2.95851,0,1,0-1.965-.794L9.758,7.868l-6.3-3.35a2,2,0,0,0-1.9.0115l-1.147.627L7.63,9,.411,12.8435l1.146.6275a2,2,0,0,0,1.9.0115l6.3-3.35,3.235,1.722a2.946,2.946,0,1,0,1.965-.794Zm.1825-9.0195a1.9665,1.9665,0,1,1-2.10018,1.823l.00018-.00254A1.966,1.966,0,0,1,15.1395,2.041Zm0,13.918a1.9665,1.9665,0,1,1,1.82032-2.10254L16.96,13.859A1.96649,1.96649,0,0,1,15.1395,15.959Z" />
    </symbol>

    <symbol id="Copy" viewBox="0 0 18 18">
        <rect height="1" rx="0.25" width="1" x="16" y="11" />
        <rect height="1" rx="0.25" width="1" x="16" y="9" />
        <rect height="1" rx="0.25" width="1" x="16" y="7" />
        <rect height="1" rx="0.25" width="1" x="16" y="5" />
        <rect height="1" rx="0.25" width="1" x="16" y="3" />
        <rect height="1" rx="0.25" width="1" x="16" y="1" />
        <rect height="1" rx="0.25" width="1" x="14" y="1" />
        <rect height="1" rx="0.25" width="1" x="12" y="1" />
        <rect height="1" rx="0.25" width="1" x="10" y="1" />
        <rect height="1" rx="0.25" width="1" x="8" y="1" />
        <rect height="1" rx="0.25" width="1" x="6" y="1" />
        <rect height="1" rx="0.25" width="1" x="6" y="3" />
        <rect height="1" rx="0.25" width="1" x="6" y="5" />
        <rect height="1" rx="0.25" width="1" x="6" y="7" />
        <rect height="1" rx="0.25" width="1" x="6" y="9" />
        <rect height="1" rx="0.25" width="1" x="6" y="11" />
        <rect height="1" rx="0.25" width="1" x="8" y="11" />
        <rect height="1" rx="0.25" width="1" x="10" y="11" />
        <rect height="1" rx="0.25" width="1" x="12" y="11" />
        <rect height="1" rx="0.25" width="1" x="14" y="11" />
        <path d="M5,6H1.5a.5.5,0,0,0-.5.5v10a.5.5,0,0,0,.5.5h10a.5.5,0,0,0,.5-.5V13H5.5a.5.5,0,0,1-.5-.5Z" />
    </symbol>

    <symbol id="Paste" viewBox="0 0 18 18">
      <path d="M14,3V5.5a.5.5,0,0,1-.5.5h-9A.5.5,0,0,1,4,5.5V3H2.5a.5.5,0,0,0-.5.5v13a.5.5,0,0,0,.5.5h13a.5.5,0,0,0,.5-.5V3.5a.5.5,0,0,0-.5-.5Z" />
      <path d="M11,3V2A2,2,0,0,0,7,2V3H5V5h8V3ZM10,3H8V2a1,1,0,0,1,2,0Z" />
    </symbol>

    <symbol id="VideoFilled" viewBox="0 0 18 18">
        <path d="M2,2.5v13a.5.5,0,0,0,.5.5h13a.5.5,0,0,0,.5-.5V2.5a.5.5,0,0,0-.5-.5H2.5A.5.5,0,0,0,2,2.5ZM5,14.75a.25.25,0,0,1-.25.25H3.25A.25.25,0,0,1,3,14.75v-1.5A.25.25,0,0,1,3.25,13h1.5a.25.25,0,0,1,.25.25Zm0-3.353a.25.25,0,0,1-.25.25H3.25a.25.25,0,0,1-.25-.25v-1.5a.25.25,0,0,1,.25-.25h1.5a.25.25,0,0,1,.25.25ZM5,8.103a.25.25,0,0,1-.25.25H3.25A.25.25,0,0,1,3,8.103v-1.5a.25.25,0,0,1,.25-.25h1.5a.25.25,0,0,1,.25.25ZM5,4.75A.25.25,0,0,1,4.75,5H3.25A.25.25,0,0,1,3,4.75V3.25A.25.25,0,0,1,3.25,3h1.5A.25.25,0,0,1,5,3.25ZM11.75,9H6.25A.25.25,0,0,1,6,8.75v-.5A.25.25,0,0,1,6.25,8h5.5a.25.25,0,0,1,.25.25v.5A.25.25,0,0,1,11.75,9ZM15,14.75a.25.25,0,0,1-.25.25h-1.5a.25.25,0,0,1-.25-.25v-1.5a.25.25,0,0,1,.25-.25h1.5a.25.25,0,0,1,.25.25Zm0-3.353a.25.25,0,0,1-.25.25h-1.5a.25.25,0,0,1-.25-.25v-1.5a.25.25,0,0,1,.25-.25h1.5a.25.25,0,0,1,.25.25Zm0-3.294a.25.25,0,0,1-.25.25h-1.5a.25.25,0,0,1-.25-.25v-1.5a.25.25,0,0,1,.25-.25h1.5a.25.25,0,0,1,.25.25ZM15,4.75a.25.25,0,0,1-.25.25h-1.5A.25.25,0,0,1,13,4.75V3.25A.25.25,0,0,1,13.25,3h1.5a.25.25,0,0,1,.25.25Z" />
    </symbol>

    <symbol id="Code" viewBox="0 0 18 18">
        <path d="M17.7465,9.5305l-4.0965,4.16a.5.5,0,0,1-.70709.00541l-.00541-.00541-.4465-.4535a.503.503,0,0,1,0-.7L15.9715,9,12.492,5.4645a.503.503,0,0,1,0-.7l.4465-.4535a.5.5,0,0,1,.70709-.00541L13.651,4.311l4.0955,4.16A.76151.76151,0,0,1,17.7465,9.5305Z" />
        <path d="M.2535,8.4695,4.35,4.3095a.5.5,0,0,1,.70709-.00541l.00541.00541.4465.4535a.503.503,0,0,1,0,.7L2.0285,9,5.508,12.5355a.503.503,0,0,1,0,.7l-.4465.4535a.5.5,0,0,1-.70709.00541L4.349,13.689.2535,9.5305A.76151.76151,0,0,1,.2535,8.4695Z" />
        <path d="M7.7445,14.8435h-.572a.5.5,0,0,1-.483-.6295L9.7855,2.6935a.5.5,0,0,1,.483-.3705h.5525a.5.5,0,0,1,.483.627L8.2275,14.473A.5.5,0,0,1,7.7445,14.8435Z" />
    </symbol>

    <symbol id="Multiple" viewBox="0 0 18 18">
        <path d="M15.5,2h-5a.5.5,0,0,0-.5.5V5h2a1,1,0,0,1,1,1V8h2.5a.5.5,0,0,0,.5-.5v-5A.5.5,0,0,0,15.5,2Z" />
        <rect height="6" rx="0.5" width="6" x="2" y="10" />
        <path d="M11.5,6h-5a.5.5,0,0,0-.5.5V9H8a1,1,0,0,1,1,1v2h2.5a.5.5,0,0,0,.5-.5v-5A.5.5,0,0,0,11.5,6Z" />
    </symbol>

    <symbol id="Sync" viewBox="0 0 18 18">
        <path d="M10.5,8a.5.5,0,0,0,.5-.5v-3a.5.5,0,0,0-.5-.5H5V1.8675A.3665.3665,0,0,0,4.63451,1.5h-.004a.359.359,0,0,0-.2565.108L.0945,5.508a.36751.36751,0,0,0,0,.492L4.374,10.392a.359.359,0,0,0,.2565.108A.3665.3665,0,0,0,5,10.13651V8Z" />
        <path d="M17.9055,12,13.626,7.608a.359.359,0,0,0-.2565-.108A.3665.3665,0,0,0,13,7.86349V10H7.5a.5.5,0,0,0-.5.5v3a.5.5,0,0,0,.5.5H13v2.1325a.3665.3665,0,0,0,.36549.36751h.004a.359.359,0,0,0,.2565-.108l4.2795-3.9A.36751.36751,0,0,0,17.9055,12Z" />
    </symbol>

    <symbol id="GraphTrend" viewBox="0 0 18 18">
        <path d="M16.5465,3.0305l-4.07,5.687L10.45,4.6605a.25.25,0,0,0-.4585.0265l-2.725,7.496L5.226,10.1425a.25.25,0,0,0-.337-.0155L1.09,13.2895a.25.25,0,0,0-.09.192v2.094a.25.25,0,0,0,.4145.188l3.524-3.0785,2.854,2.854a.25.25,0,0,0,.4115-.0915l2.274-6.255L12,12.2405a.25.25,0,0,0,.4285.0315L16.955,5.808A.25.25,0,0,0,17,5.665V3.176a.25.25,0,0,0-.4535-.1455Z" />
    </symbol>

    <symbol id="DeviceDesktop" viewBox="0 0 18 18">
        <path d="M17.5,1H.5a.5.5,0,0,0-.5.5v12a.5.5,0,0,0,.5.5H7v1.5a.5.5,0,0,1-.5.5h-1a.5.5,0,0,0-.5.5v1a.5.5,0,0,0,.5.5h7a.5.5,0,0,0,.5-.5v-1a.5.5,0,0,0-.5-.5h-1a.5.5,0,0,1-.5-.5V14h6.5a.5.5,0,0,0,.5-.5V1.5A.5.5,0,0,0,17.5,1ZM16,12H2V3H16Z" />
    </symbol>

    <symbol id="Preset" viewBox="0 0 18 18">
        <path d="M17,7A6,6,0,0,0,5.2585,5.2585a6.01888,6.01888,0,0,1,1.15-.2285A5,5,0,1,1,12.97,11.5925a6.01888,6.01888,0,0,1-.2285,1.15A6,6,0,0,0,17,7Z" />
        <rect height="1" width="1" x="7" y="6" />
        <rect height="1" width="1" x="6" y="7" />
        <rect height="1" width="1" x="7" y="8" />
        <rect height="1" width="1" x="6" y="9" />
        <rect height="1" width="1" x="7" y="10" />
        <rect height="1" width="1" x="8" y="11" />
        <rect height="1" width="1" x="8" y="9" />
        <rect height="1" width="1" x="8" y="7" />
        <rect height="1" width="1" x="9" y="8" />
        <rect height="1" width="1" x="9" y="10" />
        <path d="M12,12.9085V12H11v1a5.99342,5.99342,0,0,1-1-.09V12H9v.65a5.96962,5.96962,0,0,1-1-.461V12H7.686A5.94317,5.94317,0,0,1,7,11.463V11H6.537A6.08593,6.08593,0,0,1,6,10.314V10H5.8095A5.928,5.928,0,0,1,5.349,9H6V8H5.09A5.99342,5.99342,0,0,1,5,7H6V6H5.0915a6.035,6.035,0,0,1,.167-.741,6,6,0,1,0,7.483,7.482A6.063,6.063,0,0,1,12,12.9085Z" />
        <rect height="1" width="1" x="10" y="11" />
        <rect height="1" width="1" x="11" y="10" />
        <rect height="1" width="1" x="10" y="9" />
        <rect height="1" width="1" x="11" y="8" />
        <rect height="1" width="1" x="10" y="7" />
        <rect height="1" width="1" x="9" y="6" />
        <path d="M13,11H12v1h.9085A5.94018,5.94018,0,0,0,13,11Z" />
        <path d="M12.65,9H12v1h.91A5.95448,5.95448,0,0,0,12.65,9Z" />
        <path d="M12,7.686V8h.1905C12.1295,7.894,12.0675,7.788,12,7.686Z" />
        <path d="M6,6H7V5a5.94018,5.94018,0,0,0-1,.0915Z" />
        <path d="M8,5.09V6H9V5.35A5.95448,5.95448,0,0,0,8,5.09Z" />
        <path d="M10,5.8095V6h.314C10.212,5.9325,10.106,5.8705,10,5.8095Z" />
        <path d="M11,6.537V7h.463A5.95239,5.95239,0,0,0,11,6.537Z" />
    </symbol>

    <symbol id="Contrast" viewBox="0 0 18 18">
        <path d="M9,1.05A7.95,7.95,0,1,0,16.95,9,7.95,7.95,0,0,0,9,1.05ZM9,15.9565a6.956,6.956,0,1,1,.001,0Z" />
        <path d="M9,3.1V14.9A5.9,5.9,0,0,0,9,3.1Z" />
    </symbol>

    <symbol id="TrimPath" viewBox="0 0 18 18">
        <rect height="10" rx="0.5" width="10" x="6" y="6" />
        <path d="M5,5h7V2.5a.5.5,0,0,0-.5-.5h-9a.5.5,0,0,0-.5.5v9a.5.5,0,0,0,.5.5H5Z" />
    </symbol>

    <symbol id="EditInLight" viewBox="0 0 18 18">
        <path d="M17.8225,8.3425,15.6605,6.181a.456.456,0,0,0-.325-.1325h-.014a.51748.51748,0,0,0-.35.15l-7.616,7.621a.368.368,0,0,0-.094.1575l-1.222,3.67c-.0425.141.1725.319.294.319l.023-.0025c.1035-.024,3.13-1.059,3.672-1.222a.36653.36653,0,0,0,.155-.0935L17.8,9.0295a.515.515,0,0,0,.15-.331A.458.458,0,0,0,17.8225,8.3425Zm-10.803,8.644.989-2.7595,1.77,1.7655C8.968,16.236,7.7195,16.7775,7.0195,16.9865Z" />
        <path d="M13.5,1H1.5a.5.5,0,0,0-.5.5v12a.5.5,0,0,0,.5.5H6.0385l.1125-.339a1.35,1.35,0,0,1,.336-.55L6.6,13H2V2H13V6.583l1-1V1.5A.5.5,0,0,0,13.5,1Z" />
    </symbol>

    <symbol id="RangeMask" viewBox="0 0 18 18">
        <path d="M12.9745,11.044a5.45007,5.45007,0,0,1-.423,1.6395l.888.513A6.47216,6.47216,0,0,0,14,11.044Z" />
        <path d="M10.8345,14.8735l.5155.8905a6.54414,6.54414,0,0,0,1.563-1.614l-.891-.514A5.531,5.531,0,0,1,10.8345,14.8735Z" />
        <path d="M8.2255,15.95v1.035a6.46406,6.46406,0,0,0,2.1945-.6535l-.512-.8865A5.45348,5.45348,0,0,1,8.2255,15.95Z" />
        <path d="M5.377,15.5785l-.5135.89a6.49052,6.49052,0,0,0,2.274.5405V15.9865A5.4636,5.4636,0,0,1,5.377,15.5785Z" />
        <path d="M3.09,13.779l-.894.516A6.55559,6.55559,0,0,0,3.908,15.95l.512-.889A5.538,5.538,0,0,1,3.09,13.779Z" />
        <path d="M2.029,11.044H1a6.47354,6.47354,0,0,0,.6395,2.316l.891-.514A5.454,5.454,0,0,1,2.029,11.044Z" />
        <path d="M2.534,8.1565,1.6395,7.64A6.47354,6.47354,0,0,0,1,9.956H2.0295A5.4642,5.4642,0,0,1,2.534,8.1565Z" />
        <path d="M4.424,5.9465l-.516-.894A6.55544,6.55544,0,0,0,2.196,6.705l.9.519A5.54255,5.54255,0,0,1,4.424,5.9465Z" />
        <path d="M7.1375,5.0235V3.991a6.47959,6.47959,0,0,0-2.274.5405l.5185.9A5.47165,5.47165,0,0,1,7.1375,5.0235Z" />
        <path d="M17.9115,2.129A1.619,1.619,0,0,0,17.455.82L17.1925.5575A1.603,1.603,0,0,0,16.05.0935h-.0605a1.867,1.867,0,0,0-1.25.554L12.975,2.411l-.6565-.6565A.445.445,0,0,0,12,1.6255a.51847.51847,0,0,0-.364.154l-1.18,1.181a.483.483,0,0,0-.0255.6815l.383.383-5.65,5.65A2.23552,2.23552,0,0,0,8.325,12.8365l5.65-5.65.395.3955a.447.447,0,0,0,.318.1285.5165.5165,0,0,0,.364-.154L16.233,6.376a.4835.4835,0,0,0,.025-.682L15.6,5.0375l1.7625-1.763A1.87449,1.87449,0,0,0,17.9115,2.129Zm-10.2955,10a1.2355,1.2355,0,0,1-1.7772-1.7168l.0302-.0302,5.65-5.65,1.75,1.7475Z" />
    </symbol>

    <symbol id="Login" viewBox="0 0 18 18">
        <path d="M5.8,15.0885A3.95,3.95,0,0,1,9.7455,11.144a3.78664,3.78664,0,0,1,.9755.1275l.45-.45c0-.016-.0085-.031-.0085-.05V9.661a.77.77,0,0,1,.196-.4965A5.873,5.873,0,0,0,12.694,5.5c0-2.7735-1.4705-4.323-3.6935-4.323S5.2655,2.7875,5.2655,5.5a5.93651,5.93651,0,0,0,1.4,3.665.77.77,0,0,1,.196.4965v1.107a.764.764,0,0,1-.6665.771c-4.4655.3885-5.163,3.443-5.163,4.65,0,.134.0155.6605.0255.792h5.246A3.89259,3.89259,0,0,1,5.8,15.0885Z" />
        <path d="M17.8325,10.446l-1.971-1.971a.45751.45751,0,0,0-.647,0L11.018,12.6715a2.714,2.714,0,0,0-1.2735-.327A2.7445,2.7445,0,1,0,12.489,15.089a2.71592,2.71592,0,0,0-.32-1.2605l2.05-2.05,1.1405,1.1405a.2285.2285,0,0,0,.32315.00035L15.683,12.919l1.02-1.02-1.3-1.3.3755-.3755,1.3,1.3.753-.753a.2285.2285,0,0,0,.00235-.32314ZM9.45,16.3a.915.915,0,1,1,.915-.915A.915.915,0,0,1,9.45,16.3Z" />
    </symbol>

    <symbol id="MoveLeftRight" viewBox="0 0 18 18">
        <path d="M3.1555,5.2415A.5.5,0,0,1,4,5.6V7H7v3H4v1.389a.503.503,0,0,1-.8535.361L0,8.5Z" />
        <path d="M14.8535,5.25A.503.503,0,0,0,14,5.611V7H11v3h3v1.4a.5.5,0,0,0,.8445.3575L18,8.5Z" />
        <rect height="15" rx="0.5" width="2" x="8" y="1" />
    </symbol>

    <symbol id="MoveUpDown" viewBox="0 0 18 18">
        <path d="M11.7585,3.1555A.5.5,0,0,1,11.4,4H10V7H7V4H5.611a.503.503,0,0,1-.361-.8535L8.5,0Z" />
        <path d="M11.75,14.8535A.503.503,0,0,0,11.389,14H10V11H7v3H5.6a.5.5,0,0,0-.3575.8445L8.5,18Z" />
        <rect height="2" rx="0.5" width="15" x="1" y="8" />
    </symbol>

    <symbol id="Move" viewBox="0 0 18 18">
        <path d="M17,9a.25.25,0,0,0-.0565-.158L16,8.0145V8h-.0165L14.927,7.0735A.245.245,0,0,0,14.75,7a.25.25,0,0,0-.25.25V8H10V3.5h.75A.25.25,0,0,0,11,3.25a.24448.24448,0,0,0-.0735-.175L10,2.0165V2H9.9855L9.158,1.0565a.25.25,0,0,0-.316,0L8.0145,2H8v.0165L7.0735,3.073A.24449.24449,0,0,0,7,3.25a.25.25,0,0,0,.25.25H8V8H3.5V7.25A.25.25,0,0,0,3.25,7a.245.245,0,0,0-.175.0735L2.0165,8H2v.0145l-.9435.8275a.25.25,0,0,0,0,.316L2,9.9855V10h.0165l1.0565.926A.24552.24552,0,0,0,3.25,11a.25.25,0,0,0,.25-.25V10H8v4.5H7.25a.25.25,0,0,0-.25.25.24352.24352,0,0,0,.0735.175L8,15.9835V16h.0145l.8275.9435a.25.25,0,0,0,.316,0L9.9855,16H10v-.0165l.9265-1.057A.24349.24349,0,0,0,11,14.75a.25.25,0,0,0-.25-.25H10V10h4.5v.75a.25.25,0,0,0,.25.25.24549.24549,0,0,0,.175-.074L15.9835,10H16V9.9855l.9435-.8275A.25.25,0,0,0,17,9Z" />
    </symbol>

    <symbol id="Flag" viewBox="0 0 18 18">
        <path class="fill" d="M14.2915,2.927a9.51934,9.51934,0,0,0-2.0565.2265.54651.54651,0,0,1-.65-.542v-.807a.5435.5435,0,0,0-.4075-.5305A9.74611,9.74611,0,0,0,8.875,1,9.57707,9.57707,0,0,0,4,2.324V9.9065a9.55,9.55,0,0,1,4.88-1.323.55.55,0,0,1,.5365.55V11.003a.4955.4955,0,0,0,.703.454,9.63952,9.63952,0,0,1,6.2575-.7175.50351.50351,0,0,0,.623-.484V3.7a.5.5,0,0,0-.3755-.49A9.72033,9.72033,0,0,0,14.2915,2.927Z" />
        <rect class="fill" height="17" rx="0.25" width="2" x="1" y="1" />
    </symbol>
<!--
    <symbol id="" viewBox="0 0 18 18">
    </symbol>
-->
</svg>
